
<svg
  version="1.0"
  xmlns="http://www.w3.org/2000/svg"
  xmlns:xlink="http://www.w3.org/1999/xlink"
  width="2400"
  height="1800"
>
  
  <rect
    x="0"
    y="0"
    width="100%"
    height="100%"
    fill="rgba(255,255,255,0)"
    fill-opacity="1"
  ></rect>
  <svg
    version="1.0"
    xmlns="http://www.w3.org/2000/svg"
    xmlns:xlink="http://www.w3.org/1999/xlink"
    x="0"
    y="0"
    width="2400"
    height="1800"
    viewBox="0 0 340.000000 250.000000"
    preserveAspectRatio="xMidYMid meet"
    color-interpolation-filters="sRGB"
  >
    <defs><linearGradient id="92" x1="0%" y1="0%" x2="100%" y2="0%"><stop offset="0%" stop-color="#fa71cd"/> <stop offset="100%" stop-color="#9b59b6"/></linearGradient><linearGradient id="93" x1="0%" y1="0%" x2="100%" y2="0%"><stop offset="0%" stop-color="#f9d423"/> <stop offset="100%" stop-color="#f83600"/></linearGradient><linearGradient id="94" x1="0%" y1="0%" x2="100%" y2="0%"><stop offset="0%" stop-color="#0064d2"/> <stop offset="100%" stop-color="#1cb0f6"/></linearGradient><linearGradient id="95" x1="0%" y1="0%" x2="100%" y2="0%"><stop offset="0%" stop-color="#f00978"/> <stop offset="100%" stop-color="#3f51b1"/></linearGradient><linearGradient id="96" x1="0%" y1="0%" x2="100%" y2="0%"><stop offset="0%" stop-color="#7873f5"/> <stop offset="100%" stop-color="#ec77ab"/></linearGradient><linearGradient id="97" x1="0%" y1="0%" x2="100%" y2="0%"><stop offset="0%" stop-color="#f9d423"/> <stop offset="100%" stop-color="#e14fad"/></linearGradient><linearGradient id="98" x1="0%" y1="0%" x2="100%" y2="0%"><stop offset="0%" stop-color="#009efd"/> <stop offset="100%" stop-color="#2af598"/></linearGradient><linearGradient id="99" x1="0%" y1="0%" x2="100%" y2="0%"><stop offset="0%" stop-color="#ffcc00"/> <stop offset="100%" stop-color="#00b140"/></linearGradient><linearGradient id="100" x1="0%" y1="0%" x2="100%" y2="0%"><stop offset="0%" stop-color="#d51007"/> <stop offset="100%" stop-color="#ff8177"/></linearGradient><linearGradient id="102" x1="0%" y1="0%" x2="100%" y2="0%"><stop offset="0%" stop-color="#a2b6df"/> <stop offset="100%" stop-color="#0c3483"/></linearGradient><linearGradient id="103" x1="0%" y1="0%" x2="100%" y2="0%"><stop offset="0%" stop-color="#7ac5d8"/> <stop offset="100%" stop-color="#eea2a2"/></linearGradient><linearGradient id="104" x1="0%" y1="0%" x2="100%" y2="0%"><stop offset="0%" stop-color="#00ecbc"/> <stop offset="100%" stop-color="#007adf"/></linearGradient><linearGradient id="105" x1="0%" y1="0%" x2="100%" y2="0%"><stop offset="0%" stop-color="#b88746"/> <stop offset="100%" stop-color="#fdf5a6"/></linearGradient></defs> <g fill="#03001e" class="icon-text-wrapper icon-svg-group iconsvg" transform="translate(86.11494445800781,82.05755996704102)"><g class="iconsvg-imagesvg" transform="translate(0,0)"><g><rect fill="#03001e" fill-opacity="0" stroke-width="2" x="0" y="0" width="60" height="60.892068808037756" class="image-rect"/> <svg filter="url(#colors4540648004)" x="0" y="0" width="60" height="60.892068808037756" filtersec="colorsf6306810729" class="image-svg-svg primary" style="overflow: visible;"><svg xmlns="http://www.w3.org/2000/svg" viewBox="23.099998474121094 21.299999237060547 53.79999542236328 54.60000228881836"><path d="M28.8 53.8l-5.7-5.7L50 21.3l26.8 26.8-5.7 5.7L50 32.7 28.8 53.8zm-5.6 16.4l5.7 5.7L50 54.7l21.2 21.2 5.7-5.7L50 43.3 23.2 70.2z" fill="#000000"/></svg></svg> <defs><filter id="colors4540648004"><feColorMatrix type="matrix" values="0 0 0 0 0.01171875  0 0 0 0 0  0 0 0 0 0.1171875  0 0 0 1 0" class="icon-feColorMatrix "/></filter> <filter id="colorsf6306810729"><feColorMatrix type="matrix" values="0 0 0 0 0.99609375  0 0 0 0 0.99609375  0 0 0 0 0.99609375  0 0 0 1 0" class="icon-fecolormatrix"/></filter> <filter id="colorsb5131283889"><feColorMatrix type="matrix" values="0 0 0 0 0  0 0 0 0 0  0 0 0 0 0  0 0 0 1 0" class="icon-fecolormatrix"/></filter></defs></g></g> <g transform="translate(56.229896545410156,3.8920669555664062)"><g fill-rule="" class="tp-name iconsvg-namesvg" transform="translate(0,0)"><g transform="scale(0.7399999999999998)"><g><path d="M0.98-71.92L79.79-71.92 79.79-43.31 63.72-43.31Q63.72-46.58 63.55-49 63.38-51.42 62.79-52.91 62.21-54.39 61.01-55.1 59.81-55.81 57.81-55.81L57.81-55.81 54.79-55.81 54.79-23.58Q54.79-20.41 56.64-19.26 58.5-18.12 62.79-18.12L62.79-18.12 62.79 0 18.02 0 18.02-18.12Q22.31-18.12 24.15-19.26 25.98-20.41 25.98-23.58L25.98-23.58 25.98-55.81 23-55.81Q21-55.81 19.8-55.1 18.6-54.39 17.99-52.91 17.38-51.42 17.24-49 17.09-46.58 17.09-43.31L17.09-43.31 0.98-43.31 0.98-71.92ZM149.41-71.92L149.41-45.8 133.3-45.8Q132.91-48.29 131.57-50.44 130.22-52.59 128.27-54.15 126.32-55.71 123.93-56.57 121.53-57.42 118.99-57.42L118.99-57.42Q115.92-57.42 114.01-56.25 112.11-55.08 112.11-52.98L112.11-52.98Q112.11-50.98 113.82-49.73 115.53-48.49 118.31-47.58 121.09-46.68 124.66-45.85 128.22-45.02 131.91-43.8 135.6-42.58 139.16-40.84 142.72-39.11 145.51-36.4 148.29-33.69 150-29.79 151.71-25.88 151.71-20.41L151.71-20.41Q151.71-14.6 149.22-10.5 146.73-6.4 142.53-3.76 138.33-1.12 132.86 0.1 127.39 1.32 121.53 1.32L121.53 1.32Q115.82 1.32 110.62 0 105.42-1.32 100-4.3L100-4.3 100 0 83.89 0 83.89-26.61 100-26.61Q101.42-20.9 105.66-17.6 109.91-14.31 115.23-14.31L115.23-14.31Q118.8-14.31 120.56-15.65 122.31-16.99 122.31-18.7L122.31-18.7Q122.31-21.39 119.41-22.85 116.5-24.32 112.21-25.46 107.91-26.61 102.81-28.05 97.71-29.49 93.41-32.2 89.11-34.91 86.21-39.36 83.3-43.8 83.3-50.98L83.3-50.98Q83.3-56.3 85.6-60.4 87.89-64.5 91.75-67.31 95.61-70.12 100.66-71.56 105.71-73 111.33-73L111.33-73Q119.09-73 124.66-71.19 130.22-69.38 133.3-67.38L133.3-67.38 133.3-71.92 149.41-71.92Z" transform="translate(-0.9800000190734863, 73)"/></g> </g></g> <g fill-rule="" class="tp-slogan iconsvg-slogansvg" fill="#03001e" transform="translate(-48.59349060058594,71.99679946899414)"> <g transform="scale(1, 1)"><g transform="scale(1.1400000000000003)"><path d="M4.14-7.61L6.77-7.61L6.77-8.53L0.45-8.53L0.45-7.61L3.08-7.61L3.08 0L4.14 0L4.14-7.61ZM13.69-2.16L13.69-2.16Q13.69-1.80 13.53-1.55Q13.38-1.29 13.14-1.13L13.14-1.13Q12.90-0.96 12.59-0.88Q12.29-0.80 11.97-0.80L11.97-0.80Q11.57-0.80 11.23-0.91Q10.90-1.02 10.64-1.24L10.64-1.24Q10.38-1.45 10.22-1.75Q10.05-2.06 10-2.46L10-2.46L8.89-2.46Q8.91-1.91 9.14-1.46Q9.36-1.01 9.75-0.68L9.75-0.68Q10.18-0.29 10.77-0.09Q11.36 0.12 11.97 0.12L11.97 0.12Q12.48 0.12 12.99-0.03Q13.50-0.17 13.90-0.46L13.90-0.46Q14.31-0.74 14.56-1.17Q14.82-1.59 14.82-2.17L14.82-2.17Q14.82-2.74 14.58-3.17Q14.34-3.60 13.96-3.90L13.96-3.90Q13.56-4.22 13.09-4.43Q12.61-4.64 12.14-4.79L12.14-4.79Q11.85-4.88 11.53-4.99Q11.20-5.11 10.93-5.29L10.93-5.29Q10.64-5.46 10.46-5.72Q10.28-5.97 10.28-6.34L10.28-6.34Q10.28-6.68 10.41-6.94Q10.55-7.20 10.79-7.37L10.79-7.37Q11.01-7.55 11.31-7.63Q11.61-7.72 11.92-7.72L11.92-7.72Q12.30-7.72 12.61-7.60Q12.92-7.48 13.14-7.27L13.14-7.27Q13.36-7.05 13.50-6.75Q13.63-6.45 13.68-6.08L13.68-6.08L14.79-6.08Q14.78-6.66 14.54-7.14Q14.30-7.61 13.90-7.95L13.90-7.95Q13.50-8.28 12.99-8.46Q12.47-8.65 11.92-8.65L11.92-8.65Q11.41-8.65 10.91-8.49Q10.42-8.34 10.02-8.04L10.02-8.04Q9.63-7.74 9.39-7.31Q9.14-6.87 9.14-6.32L9.14-6.32Q9.14-5.77 9.39-5.36Q9.63-4.96 10.02-4.66L10.02-4.66Q10.40-4.37 10.86-4.16Q11.33-3.95 11.78-3.80L11.78-3.80Q12.09-3.70 12.43-3.58Q12.77-3.46 13.05-3.28L13.05-3.28Q13.33-3.09 13.51-2.82Q13.69-2.55 13.69-2.16ZM22.79-2.75L22.78-8.53L21.73-8.53L21.71-2.75Q21.70-2.37 21.59-2.02Q21.48-1.67 21.27-1.40L21.27-1.40Q21.05-1.13 20.73-0.96Q20.42-0.80 20-0.80L20-0.80Q19.58-0.80 19.26-0.97Q18.95-1.13 18.73-1.40L18.73-1.40Q18.52-1.67 18.40-2.02Q18.29-2.37 18.28-2.75L18.28-2.75L18.26-8.53L17.23-8.53L17.22-2.75Q17.22-2.16 17.43-1.63Q17.63-1.11 18.00-0.72L18.00-0.72Q18.36-0.33 18.87-0.11Q19.38 0.12 20 0.12L20 0.12Q20.61 0.12 21.12-0.11Q21.63-0.33 22.00-0.73L22.00-0.73Q22.37-1.11 22.58-1.63Q22.79-2.16 22.79-2.75L22.79-2.75ZM26.74-3.48L28.45-3.48L30.12 0L31.27 0L31.27-0.07L29.46-3.71Q29.81-3.87 30.11-4.08Q30.40-4.30 30.61-4.58L30.61-4.58Q30.82-4.86 30.94-5.21Q31.06-5.55 31.06-5.97L31.06-5.97Q31.06-6.62 30.83-7.09Q30.61-7.57 30.22-7.89L30.22-7.89Q29.82-8.20 29.29-8.36Q28.76-8.52 28.17-8.53L28.17-8.53L25.66-8.53L25.66 0L26.74 0L26.74-3.48ZM28.20-4.37L26.74-4.37L26.74-7.64L28.17-7.64Q28.56-7.63 28.89-7.53Q29.22-7.42 29.46-7.22L29.46-7.22Q29.70-7.01 29.84-6.70Q29.97-6.39 29.97-5.98L29.97-5.98Q29.97-5.60 29.83-5.30Q29.69-5.00 29.45-4.80L29.45-4.80Q29.20-4.59 28.88-4.49Q28.56-4.38 28.20-4.37L28.20-4.37ZM34.92-2.88L35.87-3.96L38.45 0L39.77 0L36.58-4.80L39.57-8.53L38.25-8.53L35.75-5.40L34.92-4.37L34.92-8.53L33.81-8.53L33.81 0L34.92 0L34.92-2.88ZM43.25-2.21L46.10-2.21L46.77 0L47.85 0L45.14-8.53L44.23-8.53L41.48 0L42.56 0L43.25-2.21ZM45.81-3.15L43.54-3.15L44.69-6.86L45.81-3.15ZM49.62-8.53L52.32 0L53.26 0L55.95-8.53L54.80-8.53L52.91-2.17L52.78-1.75L52.66-2.16L50.78-8.53L49.62-8.53ZM59.65-2.21L62.50-2.21L63.17 0L64.25 0L61.54-8.53L60.64-8.53L57.88 0L58.97 0L59.65-2.21ZM62.21-3.15L59.95-3.15L61.09-6.86L62.21-3.15ZM76.01 0L76.01-3.42L77.70-3.42Q78.27-3.43 78.78-3.60Q79.29-3.77 79.68-4.09L79.68-4.09Q80.07-4.41 80.29-4.88Q80.52-5.36 80.52-5.97L80.52-5.97Q80.52-6.59 80.29-7.06Q80.07-7.54 79.68-7.86L79.68-7.86Q79.29-8.18 78.78-8.35Q78.27-8.52 77.70-8.53L77.70-8.53L74.93-8.53L74.93 0L76.01 0ZM77.70-4.31L76.01-4.31L76.01-7.64L77.70-7.64Q78.07-7.63 78.39-7.52Q78.71-7.40 78.94-7.18L78.94-7.18Q79.17-6.97 79.30-6.66Q79.44-6.35 79.44-5.96L79.44-5.96Q79.44-5.57 79.30-5.27Q79.17-4.97 78.94-4.76L78.94-4.76Q78.70-4.55 78.39-4.43Q78.07-4.32 77.70-4.31L77.70-4.31ZM84.15-3.48L85.86-3.48L87.53 0L88.67 0L88.68-0.07L86.87-3.71Q87.22-3.87 87.51-4.08Q87.81-4.30 88.02-4.58L88.02-4.58Q88.23-4.86 88.35-5.21Q88.47-5.55 88.47-5.97L88.47-5.97Q88.47-6.62 88.24-7.09Q88.02-7.57 87.63-7.89L87.63-7.89Q87.23-8.20 86.70-8.36Q86.17-8.52 85.57-8.53L85.57-8.53L83.07-8.53L83.07 0L84.15 0L84.15-3.48ZM85.60-4.37L84.15-4.37L84.15-7.64L85.57-7.64Q85.97-7.63 86.30-7.53Q86.63-7.42 86.87-7.22L86.87-7.22Q87.11-7.01 87.24-6.70Q87.38-6.39 87.38-5.98L87.38-5.98Q87.38-5.60 87.24-5.30Q87.10-5.00 86.86-4.80L86.86-4.80Q86.61-4.59 86.29-4.49Q85.97-4.38 85.60-4.37L85.60-4.37ZM96.78-3.77L96.78-3.77L96.78-4.75Q96.78-5.20 96.70-5.67Q96.63-6.14 96.48-6.57L96.48-6.57Q96.32-7.01 96.08-7.39Q95.84-7.76 95.52-8.04L95.52-8.04Q95.19-8.33 94.76-8.49Q94.33-8.65 93.80-8.65L93.80-8.65Q93.28-8.65 92.85-8.49Q92.43-8.33 92.10-8.04L92.10-8.04Q91.77-7.76 91.53-7.38Q91.30-7.00 91.14-6.57L91.14-6.57Q90.99-6.13 90.91-5.67Q90.84-5.20 90.83-4.75L90.83-4.75L90.83-3.77Q90.84-3.32 90.92-2.85Q90.99-2.39 91.15-1.96L91.15-1.96Q91.30-1.52 91.54-1.15Q91.78-0.77 92.11-0.49L92.11-0.49Q92.44-0.21 92.86-0.04Q93.29 0.12 93.82 0.12L93.82 0.12Q94.34 0.12 94.77-0.04Q95.19-0.21 95.52-0.49L95.52-0.49Q95.85-0.77 96.09-1.14Q96.32-1.52 96.48-1.95L96.48-1.95Q96.63-2.38 96.70-2.85Q96.78-3.32 96.78-3.77ZM95.71-4.76L95.71-4.76L95.71-3.77Q95.70-3.47 95.67-3.13Q95.64-2.80 95.56-2.48L95.56-2.48Q95.47-2.15 95.33-1.85Q95.19-1.56 94.99-1.34L94.99-1.34Q94.78-1.11 94.49-0.97Q94.20-0.84 93.82-0.84L93.82-0.84Q93.44-0.84 93.15-0.97Q92.86-1.11 92.65-1.34L92.65-1.34Q92.44-1.56 92.30-1.86Q92.16-2.16 92.07-2.48L92.07-2.48Q91.98-2.81 91.94-3.14Q91.91-3.47 91.90-3.77L91.90-3.77L91.90-4.76Q91.91-5.06 91.94-5.39Q91.98-5.72 92.07-6.05L92.07-6.05Q92.15-6.37 92.29-6.67Q92.43-6.96 92.64-7.19L92.64-7.19Q92.86-7.41 93.14-7.55Q93.43-7.68 93.80-7.68L93.80-7.68Q94.19-7.68 94.47-7.55Q94.76-7.42 94.97-7.20L94.97-7.20Q95.18-6.97 95.32-6.67Q95.46-6.38 95.55-6.05L95.55-6.05Q95.63-5.72 95.67-5.39Q95.70-5.06 95.71-4.76ZM100.62 0L100.62-3.42L102.30-3.42Q102.87-3.43 103.39-3.60Q103.90-3.77 104.29-4.09L104.29-4.09Q104.67-4.41 104.90-4.88Q105.12-5.36 105.12-5.97L105.12-5.97Q105.12-6.59 104.90-7.06Q104.67-7.54 104.29-7.86L104.29-7.86Q103.90-8.18 103.39-8.35Q102.87-8.52 102.30-8.53L102.30-8.53L99.53-8.53L99.53 0L100.62 0ZM102.30-4.31L100.62-4.31L100.62-7.64L102.30-7.64Q102.67-7.63 102.99-7.52Q103.31-7.40 103.55-7.18L103.55-7.18Q103.78-6.97 103.91-6.66Q104.04-6.35 104.04-5.96L104.04-5.96Q104.04-5.57 103.91-5.27Q103.78-4.97 103.54-4.76L103.54-4.76Q103.31-4.55 102.99-4.43Q102.67-4.32 102.30-4.31L102.30-4.31ZM108.77-3.94L112.33-3.94L112.33-4.86L108.77-4.86L108.77-7.61L112.87-7.61L112.87-8.53L107.68-8.53L107.68 0L112.92 0L112.92-0.92L108.77-0.92L108.77-3.94ZM116.96-3.48L118.66-3.48L120.34 0L121.48 0L121.48-0.07L119.67-3.71Q120.03-3.87 120.32-4.08Q120.61-4.30 120.82-4.58L120.82-4.58Q121.03-4.86 121.15-5.21Q121.27-5.55 121.27-5.97L121.27-5.97Q121.27-6.62 121.05-7.09Q120.82-7.57 120.43-7.89L120.43-7.89Q120.03-8.20 119.50-8.36Q118.98-8.52 118.38-8.53L118.38-8.53L115.88-8.53L115.88 0L116.96 0L116.96-3.48ZM118.41-4.37L116.96-4.37L116.96-7.64L118.38-7.64Q118.77-7.63 119.10-7.53Q119.43-7.42 119.67-7.22L119.67-7.22Q119.91-7.01 120.05-6.70Q120.18-6.39 120.18-5.98L120.18-5.98Q120.18-5.60 120.04-5.30Q119.90-5.00 119.66-4.80L119.66-4.80Q119.42-4.59 119.09-4.49Q118.77-4.38 118.41-4.37L118.41-4.37ZM127.15-7.61L129.79-7.61L129.79-8.53L123.46-8.53L123.46-7.61L126.10-7.61L126.10 0L127.15 0L127.15-7.61ZM136.70-8.53L134.75-4.25L132.81-8.53L131.58-8.53L134.23-3.18L134.25 0L135.26 0L135.27-3.18L137.93-8.53L136.70-8.53Z" transform="translate(-0.4453125, 8.6484375)"/></g></g></g></g></g><defs v-gra="od"/>
  </svg>
</svg>


