<svg width="25" height="25" viewBox="0 0 25 25" fill="none" xmlns="http://www.w3.org/2000/svg">
<g clip-path="url(#clip0_176_3376)">
<path fill-rule="evenodd" clip-rule="evenodd" d="M5.62948 8.12291H1.93177C1.1866 8.12291 0.582031 7.51834 0.582031 6.78723V3.77845C0.582031 3.03328 1.1866 2.42871 1.93177 2.42871H5.62948C6.37465 2.42871 6.96516 3.03328 6.96516 3.77845V6.78723C6.97922 7.51834 6.37465 8.12291 5.62948 8.12291Z" fill="#B0AFAF"/>
<path fill-rule="evenodd" clip-rule="evenodd" d="M14.4308 8.12291H10.733C9.98787 8.12291 9.3833 7.51834 9.3833 6.78723V3.77845C9.3833 3.03328 9.98787 2.42871 10.733 2.42871H14.4308C15.1759 2.42871 15.7664 3.03328 15.7664 3.77845V6.78723C15.7664 7.51834 15.1759 8.12291 14.4308 8.12291Z" fill="#B0AFAF"/>
<path fill-rule="evenodd" clip-rule="evenodd" d="M23.2325 8.12291H19.5348C18.7896 8.12291 18.1851 7.51834 18.1851 6.78723V3.77845C18.1851 3.03328 18.7896 2.42871 19.5348 2.42871H23.2325C23.9777 2.42871 24.5682 3.03328 24.5682 3.77845V6.78723C24.5682 7.51834 23.9777 8.12291 23.2325 8.12291Z" fill="#B0AFAF"/>
<path fill-rule="evenodd" clip-rule="evenodd" d="M5.62948 15.392H1.93177C1.1866 15.392 0.582031 14.7874 0.582031 14.0422V11.0334C0.582031 10.3023 1.1866 9.69775 1.93177 9.69775H5.62948C6.37465 9.69775 6.96516 10.3023 6.96516 11.0334V14.0422C6.97922 14.7874 6.37465 15.392 5.62948 15.392Z" fill="#B0AFAF"/>
<path fill-rule="evenodd" clip-rule="evenodd" d="M14.4308 15.392H10.733C9.98787 15.392 9.3833 14.7874 9.3833 14.0422V11.0334C9.3833 10.3023 9.98787 9.69775 10.733 9.69775H14.4308C15.1759 9.69775 15.7664 10.3023 15.7664 11.0334V14.0422C15.7664 14.7874 15.1759 15.392 14.4308 15.392Z" fill="#B0AFAF"/>
<path fill-rule="evenodd" clip-rule="evenodd" d="M23.2325 15.392H19.5348C18.7896 15.392 18.1851 14.7874 18.1851 14.0422V11.0334C18.1851 10.3023 18.7896 9.69775 19.5348 9.69775H23.2325C23.9777 9.69775 24.5682 10.3023 24.5682 11.0334V14.0422C24.5682 14.7874 23.9777 15.392 23.2325 15.392Z" fill="#B0AFAF"/>
<path fill-rule="evenodd" clip-rule="evenodd" d="M5.62948 22.6609H1.93177C1.1866 22.6609 0.582031 22.0563 0.582031 21.3112V18.3024C0.582031 17.5572 1.1866 16.9526 1.93177 16.9526H5.62948C6.37465 16.9526 6.96516 17.5572 6.96516 18.3024V21.3112C6.97922 22.0563 6.37465 22.6609 5.62948 22.6609Z" fill="#B0AFAF"/>
<path fill-rule="evenodd" clip-rule="evenodd" d="M14.4308 22.6609H10.733C9.98787 22.6609 9.3833 22.0563 9.3833 21.3112V18.3024C9.3833 17.5572 9.98787 16.9526 10.733 16.9526H14.4308C15.1759 16.9526 15.7664 17.5572 15.7664 18.3024V21.3112C15.7664 22.0563 15.1759 22.6609 14.4308 22.6609Z" fill="#B0AFAF"/>
<path fill-rule="evenodd" clip-rule="evenodd" d="M23.2325 22.6609H19.5348C18.7896 22.6609 18.1851 22.0563 18.1851 21.3112V18.3024C18.1851 17.5572 18.7896 16.9526 19.5348 16.9526H23.2325C23.9777 16.9526 24.5682 17.5572 24.5682 18.3024V21.3112C24.5682 22.0563 23.9777 22.6609 23.2325 22.6609Z" fill="#B0AFAF"/>
</g>
<defs>
<clipPath id="clip0_176_3376">
<rect width="24" height="24" fill="white" transform="translate(0.582031 0.544922)"/>
</clipPath>
</defs>
</svg>
