<svg xmlns="http://www.w3.org/2000/svg" width="14" height="16" viewBox="0 0 14 16" fill="none">
  <path d="M9.12578 5.88251C8.92685 5.88251 8.76562 6.04373 8.76562 6.24266V13.0495C8.76562 13.2483 8.92685 13.4097 9.12578 13.4097C9.3247 13.4097 9.48593 13.2483 9.48593 13.0495V6.24266C9.48593 6.04373 9.3247 5.88251 9.12578 5.88251Z" fill="#333333"/>
  <path d="M4.87578 5.88251C4.67685 5.88251 4.51562 6.04373 4.51562 6.24266V13.0495C4.51562 13.2483 4.67685 13.4097 4.87578 13.4097C5.0747 13.4097 5.23593 13.2483 5.23593 13.0495V6.24266C5.23593 6.04373 5.0747 5.88251 4.87578 5.88251Z" fill="#333333"/>
  <path d="M1.77875 4.88911V13.7625C1.77875 14.2869 1.97106 14.7795 2.30701 15.1329C2.64142 15.4872 3.1068 15.6884 3.59385 15.6893H10.408C10.8952 15.6884 11.3606 15.4872 11.6948 15.1329C12.0308 14.7795 12.2231 14.2869 12.2231 13.7625V4.88911C12.8909 4.71185 13.3237 4.06667 13.2343 3.3814C13.1449 2.69627 12.5612 2.18376 11.8701 2.18362H10.0262V1.73343C10.0283 1.35485 9.87861 0.991326 9.61061 0.723886C9.34261 0.456587 8.97852 0.307743 8.59994 0.310838H5.40192C5.02333 0.307743 4.65925 0.456587 4.39124 0.723886C4.12324 0.991326 3.97355 1.35485 3.97566 1.73343V2.18362H2.13172C1.44068 2.18376 0.856985 2.69627 0.76751 3.3814C0.678176 4.06667 1.11092 4.71185 1.77875 4.88911ZM10.408 14.969H3.59385C2.97807 14.969 2.49905 14.44 2.49905 13.7625V4.92076H11.5028V13.7625C11.5028 14.44 11.0238 14.969 10.408 14.969ZM4.69596 1.73343C4.69357 1.5459 4.76729 1.3654 4.90038 1.23302C5.03332 1.10064 5.21424 1.0279 5.40192 1.03114H8.59994C8.78761 1.0279 8.96853 1.10064 9.10148 1.23302C9.23456 1.36526 9.30828 1.5459 9.30589 1.73343V2.18362H4.69596V1.73343ZM2.13172 2.90392H11.8701C12.2282 2.90392 12.5184 3.19415 12.5184 3.55219C12.5184 3.91023 12.2282 4.20046 11.8701 4.20046H2.13172C1.77368 4.20046 1.48345 3.91023 1.48345 3.55219C1.48345 3.19415 1.77368 2.90392 2.13172 2.90392Z" fill="#333333"/>
  <path d="M7.00078 5.88251C6.80185 5.88251 6.64062 6.04373 6.64062 6.24266V13.0495C6.64062 13.2483 6.80185 13.4097 7.00078 13.4097C7.1997 13.4097 7.36093 13.2483 7.36093 13.0495V6.24266C7.36093 6.04373 7.1997 5.88251 7.00078 5.88251Z" fill="#333333"/>
</svg>