<svg xmlns="http://www.w3.org/2000/svg" width="20" height="14" viewBox="0 0 20 14" fill="none">
  <path d="M12.7912 6.18835L8.78299 3.99523C8.55253 3.86913 8.28012 3.87383 8.05422 4.00769C7.82818 4.14168 7.69336 4.37837 7.69336 4.6411V8.98969C7.69336 9.25116 7.82735 9.48744 8.05186 9.62157C8.16911 9.69161 8.29908 9.72677 8.42933 9.72677C8.54865 9.72677 8.66824 9.69729 8.77829 9.63804L12.7866 7.48271C13.0246 7.35467 13.1731 7.10732 13.1742 6.83698C13.1752 6.56665 13.0284 6.31819 12.7912 6.18835ZM8.75656 8.44265V5.19256L11.7522 6.83172L8.75656 8.44265Z" fill="#EB5757"/>
  <path d="M18.9372 3.37246L18.9363 3.36416C18.921 3.21812 18.768 1.91919 18.1365 1.25852C17.4067 0.481428 16.5792 0.387026 16.1812 0.341763C16.1483 0.338026 16.1181 0.334565 16.0911 0.330966L16.0594 0.327644C13.6609 0.153235 10.0386 0.129427 10.0024 0.129289L9.99917 0.12915L9.99598 0.129289C9.95972 0.129427 6.33743 0.153235 3.91731 0.327644L3.88533 0.330966C3.85959 0.334427 3.83121 0.33761 3.80035 0.341209C3.40696 0.386611 2.58835 0.481152 1.85639 1.28634C1.25496 1.93996 1.0811 3.21106 1.06325 3.35391L1.06117 3.37246C1.05577 3.43323 0.927734 4.87985 0.927734 6.33215V7.68977C0.927734 9.14207 1.05577 10.5887 1.06117 10.6496L1.06214 10.6587C1.0775 10.8024 1.23032 12.0775 1.85888 12.7385C2.54516 13.4896 3.41291 13.5889 3.87966 13.6424C3.95344 13.6508 4.01697 13.658 4.0603 13.6656L4.10224 13.6714C5.48712 13.8032 9.82919 13.8681 10.0133 13.8708L10.0188 13.8709L10.0244 13.8708C10.0606 13.8706 13.6828 13.8468 16.0813 13.6724L16.113 13.6691C16.1433 13.6651 16.1774 13.6615 16.2147 13.6576C16.6059 13.6161 17.4201 13.5298 18.1419 12.7356C18.7434 12.0818 18.9174 10.8107 18.9351 10.668L18.9372 10.6495C18.9426 10.5886 19.0707 9.14207 19.0707 7.68977V6.33215C19.0706 4.87985 18.9426 3.43337 18.9372 3.37246ZM18.0074 7.68977C18.0074 9.03396 17.89 10.4183 17.879 10.5454C17.8338 10.8954 17.6504 11.6996 17.3574 12.0182C16.9056 12.5152 16.4415 12.5645 16.1026 12.6003C16.0616 12.6046 16.0237 12.6088 15.9894 12.6131C13.6695 12.7808 10.184 12.8066 10.0234 12.8076C9.84331 12.8049 5.56477 12.7395 4.22211 12.6147C4.15331 12.6035 4.07898 12.5949 4.00064 12.5861C3.60324 12.5405 3.05925 12.4783 2.64095 12.0182L2.63112 12.0076C2.34321 11.7077 2.16506 10.9556 2.1198 10.5495C2.11136 10.4535 1.99093 9.05279 1.99093 7.68977V6.33215C1.99093 4.98948 2.10803 3.60667 2.11938 3.47697C2.17323 3.06462 2.3601 2.30912 2.64095 2.00377C3.10659 1.49162 3.59756 1.43486 3.92229 1.39735C3.9533 1.39375 3.98223 1.39043 4.00894 1.38697C6.36262 1.21837 9.87321 1.19332 9.99917 1.19235C10.1251 1.19318 13.6345 1.21837 15.9672 1.38697C15.9959 1.39057 16.0272 1.39417 16.0608 1.39804C16.3948 1.43611 16.8996 1.49369 17.3629 1.98785L17.3672 1.99242C17.6551 2.29237 17.8333 3.05756 17.8785 3.47185C17.8866 3.56251 18.0074 4.96623 18.0074 6.33215V7.68977Z" fill="#EB5757"/>
</svg>