<svg width="33" height="32" viewBox="0 0 33 32" fill="none" xmlns="http://www.w3.org/2000/svg">
<path d="M16.0335 16.5397C20.0335 16.5397 23.3033 13.2699 23.3033 9.26985C23.3033 5.26983 20.0335 2 16.0335 2C12.0334 2 8.76367 5.26983 8.76367 9.26985C8.76367 13.2699 12.0335 16.5397 16.0335 16.5397Z" fill="white"/>
<path d="M28.5098 22.3493C28.3193 21.8731 28.0654 21.4286 27.7797 21.0159C26.3193 18.8572 24.0654 17.4286 21.5257 17.0794C21.2083 17.0477 20.8591 17.1111 20.6051 17.3016C19.2718 18.2858 17.6845 18.7937 16.0337 18.7937C14.3828 18.7937 12.7956 18.2858 11.4622 17.3016C11.2082 17.1111 10.859 17.0159 10.5416 17.0794C8.00189 17.4286 5.7162 18.8572 4.28764 21.0159C4.00193 21.4286 3.74793 21.9049 3.5575 22.3493C3.46228 22.5398 3.494 22.762 3.58922 22.9525C3.84321 23.3969 4.16064 23.8414 4.44635 24.2223C4.89078 24.8255 5.36699 25.3652 5.90669 25.8731C6.35112 26.3175 6.85904 26.7302 7.36703 27.1429C9.87494 29.016 12.8908 30.0001 16.0019 30.0001C19.1131 30.0001 22.129 29.0159 24.6369 27.1429C25.1448 26.762 25.6527 26.3175 26.0972 25.8731C26.6051 25.3652 27.113 24.8255 27.5575 24.2223C27.875 23.8096 28.1607 23.3969 28.4147 22.9525C28.5733 22.762 28.605 22.5397 28.5098 22.3493Z" fill="white"/>
</svg>
