<svg width="75" height="41" viewBox="0 0 75 41" fill="none" xmlns="http://www.w3.org/2000/svg">
<path d="M17.2227 11.3922C17.3615 11.3922 17.5352 11.3554 17.674 11.3554C17.8824 13.7449 18.1254 16.1345 18.3338 18.524C18.1949 18.524 18.0213 18.5608 17.8824 18.5608C17.674 16.1712 17.431 13.7817 17.2227 11.3922Z" fill="white"/>
<path d="M19.6533 12.3481C18.195 12.4951 16.7714 12.6422 15.313 12.7892C15.313 12.7157 15.313 12.6422 15.2783 12.5686C16.7367 12.3848 18.1603 12.2378 19.6186 12.1275C19.6533 12.201 19.6533 12.2746 19.6533 12.3481Z" fill="white"/>
<path d="M18.9588 13.7083C18.0907 13.7819 17.1879 13.8922 16.3199 14.0024C16.3199 13.8922 16.2852 13.8186 16.2852 13.7083C17.1532 13.5981 18.056 13.5245 18.924 13.4142C18.9588 13.5245 18.9588 13.6348 18.9588 13.7083Z" fill="white"/>
<path d="M24.1324 12.6054C23.9935 12.6054 23.8894 12.6054 23.7505 12.6422C23.8547 14.37 23.9588 16.0978 24.063 17.8256C24.1672 17.8256 24.306 17.8256 24.4102 17.7889C24.3408 16.0243 24.2366 14.2965 24.1324 12.6054Z" fill="white"/>
<path d="M24.1322 16.2449C23.3336 16.2817 22.6392 15.7303 22.5697 14.9583C22.5003 14.1863 23.1253 13.5245 23.9586 13.451C24.7919 13.4143 25.4864 13.9657 25.5211 14.7377C25.5558 15.5097 24.9656 16.1714 24.1322 16.2449ZM23.9933 13.6716C23.2989 13.7083 22.7781 14.2965 22.8128 14.9215C22.8475 15.5832 23.4378 16.0611 24.1322 16.0244C24.8267 15.9876 25.3475 15.3994 25.3128 14.7745C25.2781 14.1127 24.6878 13.5981 23.9933 13.6716Z" fill="white"/>
<path d="M25.9378 13.0098C24.6183 13.0834 23.3336 13.1569 22.0142 13.2672C22.0142 13.2304 22.0142 13.1569 22.0142 13.1201C23.3336 13.0098 24.6183 12.9363 25.9378 12.8628C25.9378 12.8996 25.9378 12.9363 25.9378 13.0098Z" fill="white"/>
<path d="M2.29199 20.2157C3.26421 25.6202 4.23644 31.0613 5.20866 36.4657C14.8614 34.5172 24.6184 33.5246 34.3753 33.451C34.3406 27.9363 34.3059 22.4216 34.2712 16.9069C23.542 16.9805 12.8475 18.0834 2.29199 20.2157ZM8.02116 34.076C7.43088 34.1863 6.87533 34.2966 6.28505 34.4069C6.14616 33.6716 6.04199 32.9731 5.9031 32.2378C6.49338 32.1275 7.08366 32.0172 7.67394 31.9069C7.7781 32.6055 7.91699 33.3407 8.02116 34.076ZM7.43088 30.4363C6.8406 30.5466 6.25033 30.6569 5.66005 30.7672C5.52116 30.0319 5.41699 29.3334 5.2781 28.5981C5.86838 28.4878 6.49338 28.3775 7.08366 28.2672C7.18783 29.0025 7.32671 29.7378 7.43088 30.4363ZM6.8406 26.8334C6.25033 26.9437 5.62533 27.054 5.03505 27.1643C4.89616 26.429 4.79199 25.7305 4.6531 24.9952C5.2781 24.8849 5.86838 24.7746 6.49338 24.6643C6.63227 25.3628 6.73644 26.0981 6.8406 26.8334ZM6.25033 23.1937C5.62533 23.304 5.00033 23.4143 4.41005 23.5246C4.27116 22.7893 4.16699 22.0907 4.0281 21.3555C4.6531 21.2452 5.2781 21.1349 5.9031 20.9878C6.04199 21.7599 6.14616 22.4584 6.25033 23.1937ZM11.1462 33.5246C10.5559 33.6349 9.9656 33.7084 9.41005 33.8187C9.30588 33.0834 9.20171 32.3849 9.06283 31.6496C9.6531 31.5393 10.2434 31.4657 10.8337 31.3555C10.9378 32.0907 11.042 32.826 11.1462 33.5246ZM10.66 29.8849C10.0698 29.9952 9.47949 30.0687 8.88921 30.179C8.78505 29.4437 8.68088 28.7452 8.54199 28.0099C9.13227 27.8996 9.75727 27.7893 10.3475 27.7157C10.4517 28.451 10.5559 29.1863 10.66 29.8849ZM10.1392 26.2819C9.54894 26.3922 8.92394 26.4657 8.33366 26.576C8.22949 25.8407 8.12533 25.1422 7.98644 24.4069C8.61144 24.2966 9.20171 24.1863 9.82671 24.1128C9.93088 24.8113 10.035 25.5466 10.1392 26.2819ZM9.61838 22.6422C8.99338 22.7525 8.36838 22.826 7.74338 22.9363C7.63921 22.201 7.53505 21.5025 7.39616 20.7672C8.02116 20.6569 8.64616 20.5466 9.27116 20.4731C9.41005 21.1716 9.51421 21.9069 9.61838 22.6422ZM14.3059 33.0834C13.7156 33.1569 13.1253 33.2305 12.5698 33.3407C12.4656 32.6055 12.3614 31.8702 12.292 31.1716C12.8823 31.0981 13.4725 30.9878 14.0628 30.9143C14.1323 31.6128 14.2364 32.3481 14.3059 33.0834ZM13.8545 29.4069C13.2642 29.4805 12.6739 29.5907 12.0837 29.6643C11.9795 28.929 11.8753 28.1937 11.8059 27.4952C12.3962 27.4216 13.0212 27.3113 13.6114 27.2378C13.6809 27.9731 13.785 28.7084 13.8545 29.4069ZM13.4031 25.7672C12.7781 25.8407 12.1878 25.951 11.5628 26.0246C11.4587 25.2893 11.3545 24.554 11.285 23.8555C11.91 23.7452 12.5003 23.6716 13.1253 23.5981C13.2295 24.3334 13.3337 25.0319 13.4031 25.7672ZM12.9517 22.1275C12.3267 22.201 11.7017 22.3113 11.0767 22.3849C10.9725 21.6496 10.8684 20.9143 10.7989 20.2157C11.4239 20.1055 12.0489 20.0319 12.6739 19.9584C12.7781 20.6569 12.8823 21.3922 12.9517 22.1275ZM17.4656 32.679C16.8753 32.7525 16.285 32.826 15.6948 32.8996C15.6253 32.1643 15.5212 31.429 15.4517 30.6937C16.042 30.6202 16.6323 30.5466 17.2225 30.4731C17.3267 31.2084 17.3962 31.9437 17.4656 32.679ZM17.0837 29.0025C16.4934 29.076 15.9031 29.1496 15.2781 29.2231C15.2087 28.4878 15.1045 27.7525 15.035 27.0172C15.6253 26.9437 16.2503 26.8702 16.8406 26.7966C16.9448 27.5319 17.0142 28.2672 17.0837 29.0025ZM16.7017 25.3628C16.0767 25.4363 15.4864 25.5099 14.8614 25.5834C14.792 24.8481 14.6878 24.1128 14.6184 23.3775C15.2434 23.304 15.8684 23.2305 16.4587 23.1569C16.5628 23.8922 16.6323 24.6275 16.7017 25.3628ZM16.3198 21.6863C15.6948 21.7599 15.0698 21.8334 14.4448 21.9069C14.3753 21.1716 14.2712 20.4363 14.2017 19.701C14.8267 19.6275 15.4517 19.554 16.0767 19.4805C16.1809 20.2525 16.2503 20.9878 16.3198 21.6863ZM20.6253 32.3113C20.035 32.3849 19.4448 32.4216 18.8545 32.4952C18.785 31.7599 18.7156 31.0246 18.6462 30.2893C19.2364 30.2157 19.8267 30.179 20.417 30.1055C20.4864 30.8775 20.5559 31.6128 20.6253 32.3113ZM20.3128 28.6716C19.7225 28.7452 19.1323 28.7819 18.5073 28.8555C18.4378 28.1202 18.3684 27.3849 18.2989 26.6496C18.8892 26.576 19.5142 26.5393 20.1045 26.4657C20.1739 27.201 20.2434 27.9363 20.3128 28.6716ZM20.0003 24.9952C19.3753 25.0687 18.785 25.1055 18.16 25.179C18.0906 24.4437 18.0212 23.7084 17.9517 22.9731C18.5767 22.8996 19.2017 22.826 19.792 22.7893C19.8614 23.5246 19.9309 24.2599 20.0003 24.9952ZM19.6878 21.3555C19.0628 21.429 18.4378 21.4657 17.8128 21.5393C17.7434 20.804 17.6739 20.0687 17.6045 19.3334C18.2295 19.2599 18.8545 19.1863 19.4795 19.1496C19.5489 19.8849 19.6184 20.6202 19.6878 21.3555ZM23.785 32.054C23.1948 32.0907 22.6045 32.1643 22.0142 32.201C21.9448 31.4657 21.91 30.7305 21.8406 29.9952C22.4309 29.9584 23.0212 29.8849 23.6114 29.8481C23.6809 30.5834 23.7503 31.3187 23.785 32.054ZM23.542 28.3775C22.9517 28.4143 22.3614 28.4878 21.7364 28.5246C21.667 27.7893 21.6323 27.054 21.5628 26.3187C22.1531 26.2819 22.7781 26.2084 23.3684 26.1716C23.4378 26.9069 23.5073 27.6422 23.542 28.3775ZM23.2989 24.7378C22.6739 24.7746 22.0837 24.8481 21.4587 24.8849C21.3892 24.1496 21.3545 23.4143 21.285 22.679C21.91 22.6422 22.535 22.5687 23.1253 22.5319C23.1948 23.2672 23.2295 24.0025 23.2989 24.7378ZM23.0559 21.0613C22.4309 21.0981 21.8059 21.1716 21.1809 21.2084C21.1114 20.4731 21.0767 19.7378 21.0073 19.0025C21.6323 18.9657 22.2573 18.8922 22.917 18.8555C22.9517 19.5907 22.9864 20.326 23.0559 21.0613ZM26.9448 31.8334C26.3545 31.8702 25.7642 31.9069 25.1739 31.9437C25.1392 31.2084 25.0698 30.4731 25.035 29.7378C25.6253 29.701 26.2156 29.6643 26.8059 29.6275C26.8753 30.3628 26.91 31.0981 26.9448 31.8334ZM26.7712 28.1937C26.1809 28.2305 25.5559 28.2672 24.9656 28.304C24.9309 27.5687 24.8614 26.8334 24.8267 26.0981C25.417 26.0613 26.042 26.0246 26.6323 25.9878C26.7017 26.7231 26.7364 27.4584 26.7712 28.1937ZM26.5975 24.5172C25.9725 24.554 25.3823 24.5907 24.7573 24.6275C24.7226 23.8922 24.6531 23.1569 24.6184 22.4216C25.2434 22.3849 25.8684 22.3481 26.4934 22.3113C26.5281 23.0466 26.5628 23.7819 26.5975 24.5172ZM26.4239 20.8407C25.7989 20.8775 25.1739 20.9143 24.5489 20.951C24.5142 20.2157 24.4448 19.4805 24.41 18.7452C25.035 18.7084 25.6601 18.6716 26.3198 18.6349C26.3545 19.3702 26.3892 20.1055 26.4239 20.8407ZM30.1392 31.7231C29.5489 31.7599 28.9587 31.7599 28.3684 31.7966C28.3337 31.0613 28.2989 30.326 28.2642 29.5907C28.8545 29.554 29.4448 29.554 30.035 29.5172C30.0698 30.2525 30.1045 30.9878 30.1392 31.7231ZM30.0003 28.0466C29.41 28.0834 28.785 28.0834 28.1948 28.1202C28.16 27.3849 28.1253 26.6496 28.0906 25.9143C28.6809 25.8775 29.3059 25.8775 29.8962 25.8407C29.9656 26.576 30.0003 27.3113 30.0003 28.0466ZM29.8962 24.3702C29.2712 24.4069 28.6809 24.4069 28.0559 24.4437C28.0212 23.7084 27.9864 22.9731 27.9517 22.2378C28.5767 22.201 29.2017 22.201 29.8267 22.1643C29.8614 22.8996 29.8962 23.6349 29.8962 24.3702ZM29.792 20.6937C29.167 20.7305 28.542 20.7305 27.917 20.7672C27.8823 20.0319 27.8475 19.2966 27.8128 18.5613C28.4378 18.5246 29.0628 18.5246 29.7225 18.4878C29.7573 19.2231 29.7573 19.9584 29.792 20.6937ZM33.2989 31.6128C32.7087 31.6128 32.1184 31.6496 31.5281 31.6496C31.5281 30.9143 31.4934 30.179 31.4934 29.4437C32.0837 29.4437 32.6739 29.4069 33.2642 29.4069C33.2989 30.1422 33.2989 30.8775 33.2989 31.6128ZM33.2642 27.9363C32.6739 27.9363 32.0489 27.9731 31.4587 27.9731C31.4587 27.2378 31.4239 26.5025 31.4239 25.7672C32.0142 25.7672 32.6392 25.7305 33.2295 25.7305C33.2295 26.4657 33.2642 27.201 33.2642 27.9363ZM33.1948 24.2599C32.5698 24.2599 31.9795 24.2966 31.3545 24.2966C31.3545 23.5613 31.3198 22.826 31.3198 22.0907C31.9448 22.0907 32.5698 22.054 33.1948 22.054C33.1948 22.7893 33.1948 23.5246 33.1948 24.2599ZM33.16 20.5834C32.535 20.5834 31.91 20.6202 31.285 20.6202C31.285 19.8849 31.2503 19.1496 31.2503 18.4143C31.8753 18.4143 32.5003 18.3775 33.16 18.3775C33.16 19.1128 33.16 19.8481 33.16 20.5834Z" fill="white"/>
<path d="M46.9099 3.30377C46.3197 13.3405 45.7641 23.3773 45.1738 33.3773C52.0488 33.8185 58.8891 34.7376 65.6599 36.0979C67.4308 26.245 69.2016 16.3552 71.0072 6.5023C63.0558 4.88465 55.0002 3.81848 46.9099 3.30377ZM49.028 29.2597C48.2988 29.1861 47.6044 29.1494 46.8752 29.0758C46.9099 28.4508 46.9447 27.8626 46.9794 27.2376C47.7085 27.2744 48.4377 27.3479 49.1322 27.4214C49.1322 28.0464 49.0627 28.6714 49.028 29.2597ZM49.3058 25.62C48.5766 25.5464 47.8474 25.5097 47.1183 25.4361C47.153 24.8111 47.1877 24.2229 47.2224 23.5979C47.9516 23.6347 48.7155 23.7082 49.4447 23.7817C49.4099 24.37 49.3752 24.995 49.3058 25.62ZM49.5835 21.9435C48.8544 21.8699 48.0905 21.8332 47.3613 21.7597C47.396 21.1347 47.4308 20.5464 47.4655 19.9214C48.2294 19.995 48.9585 20.0317 49.7224 20.1052C49.6877 20.7302 49.653 21.3185 49.5835 21.9435ZM49.896 18.267C49.1322 18.1935 48.3683 18.1567 47.6044 18.0832C47.6391 17.4582 47.6738 16.8699 47.7085 16.2449C48.4724 16.3185 49.2363 16.3552 50.0002 16.4288C49.9655 17.0538 49.9308 17.6788 49.896 18.267ZM50.1738 14.6273C49.4099 14.5538 48.6113 14.4802 47.8474 14.4435C47.8822 13.8185 47.9169 13.2302 47.9516 12.6052C48.7502 12.6788 49.5141 12.7155 50.3127 12.7891C50.278 13.3773 50.2085 14.0023 50.1738 14.6273ZM50.4516 10.9508C49.653 10.8773 48.8544 10.8038 48.0905 10.767C48.1252 10.142 48.1599 9.55377 48.1947 8.92877C48.9933 9.0023 49.7919 9.03907 50.5905 9.1126C50.5558 9.7376 50.4863 10.3258 50.4516 10.9508ZM50.7294 7.27436C49.9308 7.20083 49.1322 7.1273 48.2988 7.09054C48.3336 6.46554 48.3683 5.8773 48.403 5.2523C49.2016 5.32583 50.0349 5.3626 50.8335 5.43613C50.8335 6.06113 50.7988 6.68612 50.7294 7.27436ZM52.9516 29.6641C52.2224 29.5905 51.528 29.517 50.7988 29.4435C50.8683 28.8185 50.903 28.2302 50.9724 27.6052C51.7016 27.6788 52.4308 27.7523 53.1252 27.8258C53.0905 28.4508 53.021 29.0391 52.9516 29.6641ZM53.3336 25.9876C52.6044 25.9141 51.8752 25.8405 51.146 25.767C51.2155 25.142 51.2502 24.5538 51.3197 23.9288C52.0488 24.0023 52.778 24.0758 53.5419 24.1494C53.4377 24.7744 53.403 25.3994 53.3336 25.9876ZM53.6808 22.3479C52.9516 22.2744 52.1877 22.2008 51.4585 22.1273C51.528 21.5023 51.5627 20.9141 51.6322 20.2891C52.396 20.3626 53.1252 20.4361 53.8891 20.5097C53.8197 21.1347 53.7502 21.7229 53.6808 22.3479ZM54.0627 18.7082C53.2988 18.6347 52.5349 18.5244 51.7711 18.4508C51.8405 17.8258 51.8752 17.2376 51.9447 16.6126C52.7086 16.6861 53.4724 16.7597 54.2363 16.87C54.2016 17.4582 54.1322 18.0832 54.0627 18.7082ZM54.4447 15.0317C53.6808 14.9582 52.8822 14.8479 52.1183 14.7744C52.1877 14.1494 52.2224 13.5611 52.2919 12.9361C53.0905 13.0097 53.8544 13.0832 54.653 13.1935C54.5488 13.8185 54.4794 14.4435 54.4447 15.0317ZM54.7919 11.392C53.9933 11.3185 53.2294 11.2082 52.4308 11.1347C52.5002 10.5097 52.5349 9.92142 52.6044 9.29642C53.403 9.36995 54.2016 9.44348 55.0002 9.55377C54.9308 10.1788 54.8613 10.767 54.7919 11.392ZM55.1738 7.71554C54.3752 7.64201 53.5766 7.53171 52.778 7.45818C52.8474 6.83318 52.8822 6.24495 52.9516 5.61995C53.7502 5.69348 54.5835 5.80377 55.3822 5.8773C55.278 6.5023 55.2433 7.1273 55.1738 7.71554ZM56.8752 30.142C56.146 30.0317 55.4516 29.9582 54.7224 29.8479C54.7919 29.2229 54.8613 28.6347 54.9308 28.0097C55.6599 28.0832 56.3891 28.1935 57.0835 28.3038C57.0488 28.9288 56.9447 29.5538 56.8752 30.142ZM57.3266 26.5023C56.5974 26.392 55.8683 26.3185 55.1391 26.2082C55.2085 25.5832 55.278 24.995 55.3474 24.37C56.0766 24.4435 56.8058 24.5538 57.5697 24.6641C57.5002 25.2891 57.3961 25.9141 57.3266 26.5023ZM57.778 22.8626C57.0488 22.7523 56.2849 22.6788 55.5558 22.5685C55.6252 21.9435 55.6947 21.3552 55.7641 20.7302C56.528 20.8405 57.2572 20.9141 58.0211 21.0244C57.9169 21.6494 57.8474 22.2376 57.778 22.8626ZM58.2294 19.2229C57.4655 19.1126 56.7016 19.0023 55.9724 18.9288C56.0419 18.3038 56.1113 17.7155 56.1808 17.0905C56.9447 17.2008 57.7085 17.2744 58.4724 17.3847C58.3683 18.0097 58.2988 18.5979 58.2294 19.2229ZM58.6808 15.5832C57.9169 15.4729 57.153 15.3626 56.3544 15.2891C56.4238 14.6641 56.4933 14.0758 56.5627 13.4508C57.3266 13.5611 58.1252 13.6347 58.8891 13.7449C58.8197 14.3699 58.7502 14.9582 58.6808 15.5832ZM59.1322 11.9067C58.3336 11.7964 57.5697 11.6861 56.771 11.6126C56.8405 10.9876 56.9099 10.3994 56.9794 9.77436C57.778 9.88465 58.5766 9.99495 59.3752 10.1052C59.271 10.6935 59.2016 11.3185 59.1322 11.9067ZM59.5836 8.26701C58.7849 8.15671 57.9863 8.04642 57.1877 7.93613C57.2572 7.31113 57.3266 6.72289 57.396 6.09789C58.1947 6.20818 59.028 6.31848 59.8266 6.42877C59.7224 7.05377 59.653 7.67877 59.5836 8.26701ZM60.7988 30.7302C60.1044 30.6199 59.3752 30.5097 58.6808 30.3994C58.7502 29.7744 58.8544 29.1861 58.9238 28.5611C59.653 28.6714 60.3474 28.7817 61.0766 28.892C60.9724 29.517 60.903 30.142 60.7988 30.7302ZM61.3197 27.1273C60.5905 27.017 59.8613 26.9067 59.1322 26.7964C59.2016 26.2082 59.3058 25.5832 59.3752 24.9582C60.1044 25.0685 60.8336 25.1788 61.5627 25.2891C61.4933 25.9141 61.4238 26.5023 61.3197 27.1273ZM61.8752 23.4876C61.146 23.3773 60.3822 23.267 59.653 23.1567C59.7224 22.5317 59.8266 21.9435 59.896 21.3185C60.6599 21.4288 61.3891 21.5391 62.153 21.6861C62.0488 22.2744 61.9447 22.8626 61.8752 23.4876ZM62.396 19.8479C61.6322 19.7376 60.8683 19.5905 60.1391 19.4802C60.2085 18.8552 60.3127 18.267 60.3822 17.642C61.146 17.7523 61.9099 17.8626 62.6738 18.0097C62.5697 18.6347 62.4655 19.2229 62.396 19.8479ZM62.9169 16.2082C62.153 16.0979 61.3891 15.9508 60.5905 15.8405C60.6599 15.2155 60.7641 14.6273 60.8335 14.0023C61.5974 14.1126 62.396 14.2597 63.1599 14.3699C63.0905 14.9949 63.021 15.62 62.9169 16.2082ZM63.4724 12.5685C62.6738 12.4582 61.9099 12.3111 61.1113 12.2008C61.1808 11.6126 61.2849 10.9876 61.3544 10.3626C62.153 10.4729 62.9516 10.6199 63.7502 10.7302C63.6461 11.3552 63.5419 11.9802 63.4724 12.5685ZM63.9933 8.92877C63.1947 8.78171 62.396 8.67142 61.5974 8.56112C61.6669 7.93612 61.7711 7.34789 61.8405 6.72289C62.6391 6.83318 63.4724 6.98024 64.2711 7.09054C64.1669 7.71554 64.0627 8.34054 63.9933 8.92877ZM64.6877 31.4288C63.9933 31.2817 63.2641 31.1714 62.5697 31.0244C62.6738 30.4361 62.7433 29.8111 62.8474 29.2229C63.5766 29.3332 64.271 29.4802 65.0002 29.6273C64.896 30.2155 64.7919 30.8405 64.6877 31.4288ZM65.3127 27.8258C64.5836 27.6788 63.8544 27.5685 63.1252 27.4214C63.2294 26.8332 63.2988 26.2082 63.403 25.62C64.1322 25.7302 64.8613 25.8773 65.5905 26.0244C65.521 26.6126 65.4169 27.2008 65.3127 27.8258ZM65.9377 24.1861C65.2085 24.0391 64.4447 23.892 63.7155 23.7817C63.8197 23.1935 63.8891 22.5685 63.9933 21.9802C64.7572 22.1273 65.4863 22.2376 66.2155 22.3847C66.146 22.9729 66.0419 23.5979 65.9377 24.1861ZM66.528 20.5832C65.7641 20.4361 65.0349 20.2891 64.2711 20.1788C64.3752 19.5905 64.4447 18.9655 64.5488 18.3773C65.3127 18.5244 66.0766 18.6347 66.8405 18.7817C66.7363 19.37 66.6322 19.9582 66.528 20.5832ZM67.153 16.9435C66.3891 16.7964 65.6252 16.6494 64.8613 16.5391C64.9655 15.9508 65.0349 15.3258 65.1391 14.7376C65.903 14.8847 66.7016 15.0317 67.4655 15.1788C67.3613 15.767 67.2572 16.3552 67.153 16.9435ZM67.778 13.3405C66.9794 13.1935 66.2155 13.0464 65.4169 12.8994C65.521 12.3111 65.5905 11.6861 65.6947 11.0979C66.4933 11.2449 67.2919 11.392 68.0558 11.5391C67.9863 12.1273 67.8822 12.7523 67.778 13.3405ZM68.3683 9.7376C67.5697 9.59054 66.771 9.44348 65.9724 9.29642C66.0766 8.70818 66.1461 8.08318 66.2502 7.49495C67.0488 7.64201 67.8474 7.78907 68.6808 7.93613C68.5766 8.52436 68.4724 9.1126 68.3683 9.7376Z" fill="white"/>
<path d="M39.5837 27.0906C36.4587 27.0171 33.7503 26.4289 33.542 26.3922C33.5767 26.2819 33.5767 26.1348 33.6114 26.0245C33.7156 25.9878 41.5628 27.7891 46.1809 25.6569C46.2503 25.7672 46.285 25.8775 46.3545 25.9878C44.3753 26.9436 41.8753 27.1274 39.5837 27.0906Z" fill="white"/>
<path d="M35.2434 26.4657C35.2087 27.2009 35.1392 27.9362 35.1045 28.7082C35.1045 28.7082 35.8684 29.039 37.0837 29.0023C38.2989 28.9655 38.5073 29.0023 38.5073 29.0023C38.542 28.267 38.5767 27.5686 38.6114 26.8333C37.4656 26.6863 36.3545 26.576 35.2434 26.4657Z" fill="white"/>
<path d="M39.5142 26.9069C39.41 27.6789 39.3058 28.4877 39.2017 29.2597C39.4447 29.2597 39.6878 29.2597 39.9308 29.2597C40.035 28.8921 40.1392 28.5245 40.2433 28.1568C40.3822 28.5245 40.5211 28.8921 40.6947 29.2597C40.903 29.2597 41.1114 29.2229 41.3197 29.2229C41.2503 28.4509 41.1808 27.6789 41.1114 26.9437C40.5558 26.9437 40.035 26.9437 39.5142 26.9069Z" fill="white"/>
<path d="M41.7017 27.0539C41.7364 27.4951 41.7364 27.8995 41.7711 28.3406C41.7711 28.3406 42.1878 28.6715 42.1878 28.8553C42.1878 29.0391 42.2572 29.1861 42.2572 29.1861C42.3267 29.1861 42.4308 29.1861 42.5003 29.1861C42.5003 29.1861 42.4308 28.598 42.8128 28.5612C43.16 28.5244 43.2989 29.1861 43.2989 29.1861C43.3683 29.1494 43.4725 29.1494 43.5419 29.1126C43.5419 29.1126 43.4725 28.598 43.5419 28.3774C43.6114 28.1568 43.7156 28.0465 43.7156 28.0465C43.6461 27.6054 43.5767 27.1642 43.4725 26.7231C42.8822 26.8334 42.2919 26.9437 41.7017 27.0539Z" fill="white"/>
<path d="M54.5492 4.51694C53.0214 4.36989 51.4936 4.22284 49.9658 4.07579C50.0005 3.37731 50.07 2.67883 50.1047 1.98035C51.6672 2.09063 53.195 2.23768 54.7575 2.42149C54.688 3.11997 54.6186 3.81845 54.5492 4.51694Z" fill="white"/>
<path d="M66.7713 6.24475C65.2435 5.98741 63.7158 5.73008 62.188 5.50951C62.2922 4.81102 62.3616 4.11254 62.4658 3.41406C63.9935 3.63464 65.556 3.89197 67.0838 4.18607C66.9797 4.84779 66.8755 5.54627 66.7713 6.24475Z" fill="white"/>
<path d="M7.36138 18.4878C6.63222 18.5981 5.86833 18.7451 5.13916 18.8922C5.2086 19.2966 5.27805 19.7009 5.34749 20.0686C6.07666 19.9215 6.84055 19.8112 7.56972 19.6642C7.50027 19.2598 7.43083 18.8554 7.36138 18.4878Z" fill="white"/>
<path d="M14.9308 17.3481C14.1669 17.4584 13.4377 17.5319 12.6738 17.6422C12.7086 18.0466 12.778 18.4509 12.8127 18.8553C13.5419 18.745 14.3058 18.6715 15.0349 18.5612C15.0349 18.1569 15.0002 17.7525 14.9308 17.3481Z" fill="white"/>
<path d="M22.5699 16.6128C21.806 16.6863 21.0769 16.7231 20.313 16.7966C20.3477 17.201 20.3824 17.6054 20.4172 18.0098C21.1463 17.9362 21.9102 17.8627 22.6394 17.8259C22.6047 17.4216 22.5699 17.0172 22.5699 16.6128Z" fill="white"/>
<path d="M30.1739 16.2084C29.41 16.2451 28.6809 16.2451 27.917 16.2819C27.917 16.6863 27.9517 17.0907 27.9517 17.495C28.7156 17.4583 29.4448 17.4215 30.2087 17.4215C30.2087 17.0171 30.2087 16.6128 30.1739 16.2084Z" fill="white"/>
<path d="M0 38.1564C0 38.1564 0.277778 38.0462 0.763889 37.8256C1.25 37.605 1.97917 37.2742 2.91667 36.9065C3.81944 36.5021 5 36.1345 6.35417 35.6566C7.01389 35.436 7.74306 35.1787 8.50694 34.9581C9.27083 34.7376 10.0694 34.5538 10.9028 34.2964C11.3194 34.1861 11.7361 34.0758 12.1875 33.9656C12.6389 33.8553 13.0556 33.7817 13.5417 33.6715C14.4444 33.4877 15.3819 33.2671 16.3542 33.0833C17.3264 32.8995 18.3333 32.7524 19.3403 32.5686C20.3819 32.3848 21.4236 32.2377 22.5 32.1275C23.5764 32.0172 24.6528 31.8701 25.7639 31.7598C26.875 31.6495 27.9861 31.576 29.1319 31.5025C29.6875 31.4657 30.2778 31.429 30.8333 31.3922C31.3889 31.3554 31.9792 31.3554 32.5347 31.3554C33.6806 31.3187 34.8264 31.3187 35.9722 31.2819C37.1181 31.3187 38.2639 31.3187 39.4097 31.3554C39.9653 31.3554 40.5556 31.3554 41.1111 31.3922C41.6667 31.429 42.2569 31.4657 42.8125 31.5025C43.9583 31.576 45.0694 31.6495 46.1806 31.7598C47.2917 31.8701 48.3681 32.0172 49.4444 32.1275C50.5208 32.2377 51.5625 32.3848 52.6042 32.5686C53.6111 32.7524 54.6181 32.8995 55.5903 33.0833C56.5625 33.2671 57.5 33.4877 58.4028 33.6715C58.8542 33.7817 59.3056 33.8553 59.757 33.9656C60.2083 34.0758 60.625 34.1861 61.0417 34.2964C61.875 34.517 62.6736 34.7376 63.4375 34.9581C64.2014 35.1419 64.8958 35.436 65.5556 35.6566C66.875 36.0978 68.0556 36.4654 68.9931 36.9065C69.9306 37.2742 70.6597 37.605 71.1458 37.8256C71.6319 38.0462 71.9097 38.1564 71.9097 38.1564C71.9097 38.1564 71.632 38.0829 71.1111 37.9359C70.5903 37.7888 69.8264 37.605 68.8542 37.3109C68.6111 37.2374 68.3681 37.1639 68.0903 37.0903C67.8125 37.0168 67.5347 36.9801 67.257 36.9065C66.6667 36.7595 66.0417 36.6124 65.3472 36.4654C63.9931 36.1345 62.4653 35.8772 60.7639 35.5463C60.3472 35.4728 59.9306 35.3993 59.4792 35.3258C59.0278 35.2522 58.5764 35.2155 58.125 35.1419C57.2222 34.9949 56.2847 34.8846 55.3125 34.7376C54.3403 34.5905 53.3333 34.517 52.3264 34.4067C51.3194 34.2964 50.2778 34.1494 49.2014 34.1126C48.1597 34.0391 47.0833 33.9656 45.9722 33.8553C45.4167 33.8185 44.8611 33.8185 44.3403 33.7817C43.7847 33.745 43.2292 33.745 42.6736 33.7082C42.1181 33.6715 41.5625 33.6715 41.0069 33.6347C40.4514 33.5979 39.8958 33.6347 39.3056 33.5979C38.1944 33.5979 37.0486 33.5612 35.9028 33.5612C34.7569 33.5612 33.6458 33.5979 32.5 33.5979C31.9444 33.5979 31.3889 33.5979 30.7986 33.6347C30.2431 33.6715 29.6875 33.7082 29.1319 33.7082C28.5764 33.745 28.0208 33.745 27.4653 33.7817C26.9097 33.8185 26.3542 33.8185 25.8333 33.8553C24.7569 33.9288 23.6806 34.0391 22.6042 34.1126C21.5278 34.1861 20.5208 34.3332 19.4792 34.4067C18.4722 34.517 17.4653 34.5905 16.4931 34.7376C15.5208 34.8846 14.5833 35.0317 13.6806 35.1419C13.2292 35.2155 12.7778 35.2522 12.3264 35.3258C11.875 35.3993 11.4583 35.4728 11.0417 35.5463C9.375 35.8772 7.8125 36.0978 6.49306 36.4654C5.83333 36.6124 5.17361 36.7595 4.58333 36.9065C4.30556 36.9801 3.99306 37.0168 3.75 37.0903C3.47222 37.1639 3.22917 37.2374 2.98611 37.3109C2.01389 37.605 1.25 37.7888 0.729167 37.9359C0.277778 38.0829 0 38.1564 0 38.1564Z" fill="white"/>
</svg>
