<svg width="24" height="24" viewBox="0 0 24 24" fill="none" xmlns="http://www.w3.org/2000/svg">
<rect width="24" height="24" rx="12" transform="matrix(-1 0 0 1 24 0)" fill="white" fill-opacity="0.5"/>
<path d="M14.1637 7.00019C14.3267 6.9966 14.4868 7.04386 14.6217 7.13547C14.7566 7.22707 14.8596 7.35849 14.9164 7.51134C14.9732 7.66419 14.981 7.83091 14.9386 7.98838C14.8962 8.14584 14.8059 8.28613 14.6801 8.38986L9.87964 12.5023L14.6801 16.6133C14.7671 16.6773 14.84 16.7585 14.8942 16.8519C14.9483 16.9454 14.9826 17.049 14.9949 17.1563C15.0072 17.2636 14.9972 17.3723 14.9655 17.4756C14.9338 17.5788 14.8812 17.6745 14.8108 17.7564C14.7405 17.8384 14.654 17.9049 14.5568 17.9519C14.4595 17.9989 14.3536 18.0252 14.2457 18.0294C14.1377 18.0336 14.0301 18.0155 13.9295 17.9761C13.829 17.9368 13.7376 17.8771 13.6611 17.8008L8.1651 13.0983C8.07879 13.0247 8.00948 12.9333 7.96196 12.8302C7.91443 12.7272 7.88982 12.6151 7.88982 12.5016C7.88982 12.3881 7.91443 12.276 7.96196 12.1729C8.00948 12.0699 8.07879 11.9784 8.1651 11.9048L13.6611 7.19781C13.8 7.07449 13.9781 7.00456 14.1637 7.00019Z" fill="#03001e"/>
</svg>
