<svg xmlns="http://www.w3.org/2000/svg" width="16" height="16" viewBox="0 0 16 16" fill="none">
  <path d="M13.3247 6.84225H9.38832C9.26045 6.84225 9.15677 6.73857 9.15677 6.6107V2.67435C9.15677 2.03499 8.63839 1.5166 7.99902 1.5166C7.35966 1.5166 6.84127 2.03499 6.84127 2.67435V6.6107C6.84127 6.73857 6.7376 6.84225 6.60972 6.84225H2.67337C2.03401 6.84225 1.51562 7.36064 1.51562 8C1.51562 8.63936 2.03401 9.15775 2.67337 9.15775H6.60972C6.7376 9.15775 6.84127 9.26143 6.84127 9.3893V13.3256C6.84127 13.965 7.35966 14.4834 7.99902 14.4834C8.63839 14.4834 9.15677 13.965 9.15677 13.3256V9.3893C9.15677 9.26143 9.26045 9.15775 9.38832 9.15775H13.3247C13.964 9.15775 14.4824 8.63936 14.4824 8C14.4824 7.36064 13.964 6.84225 13.3247 6.84225Z" fill="white"/>
</svg>