<svg width="33" height="32" viewBox="0 0 33 32" fill="none" xmlns="http://www.w3.org/2000/svg">
<path fill-rule="evenodd" clip-rule="evenodd" d="M1.5 26.9979C1.5 26.4456 1.94772 25.9979 2.5 25.9979H30.5C31.0523 25.9979 31.5 26.4456 31.5 26.9979C31.5 27.5502 31.0523 27.9979 30.5 27.9979H2.5C1.94772 27.9979 1.5 27.5502 1.5 26.9979Z" fill="white"/>
<path fill-rule="evenodd" clip-rule="evenodd" d="M4.08481 3.58371C4.45988 3.20864 4.96859 2.99792 5.49902 2.99792H17.499C18.0295 2.99792 18.5382 3.20864 18.9132 3.58371C19.2883 3.95879 19.499 4.46749 19.499 4.99792V26.9979C19.499 27.5502 19.0513 27.9979 18.499 27.9979C17.9467 27.9979 17.499 27.5502 17.499 26.9979V4.99792H5.49902L5.49902 26.9979C5.49902 27.5502 5.05131 27.9979 4.49902 27.9979C3.94674 27.9979 3.49902 27.5502 3.49902 26.9979V4.99792C3.49902 4.46749 3.70974 3.95878 4.08481 3.58371Z" fill="white"/>
<path fill-rule="evenodd" clip-rule="evenodd" d="M17.499 11.9979C17.499 11.4456 17.9467 10.9979 18.499 10.9979H27.499C28.0295 10.9979 28.5382 11.2086 28.9132 11.5837C29.2883 11.9588 29.499 12.4675 29.499 12.9979V26.9979C29.499 27.5502 29.0513 27.9979 28.499 27.9979C27.9467 27.9979 27.499 27.5502 27.499 26.9979L27.499 12.9979L18.499 12.9979C17.9467 12.9979 17.499 12.5502 17.499 11.9979Z" fill="white"/>
<path fill-rule="evenodd" clip-rule="evenodd" d="M7.49902 8.99792C7.49902 8.44564 7.94674 7.99792 8.49902 7.99792H12.499C13.0513 7.99792 13.499 8.44564 13.499 8.99792C13.499 9.55021 13.0513 9.99792 12.499 9.99792H8.49902C7.94674 9.99792 7.49902 9.55021 7.49902 8.99792Z" fill="white"/>
<path fill-rule="evenodd" clip-rule="evenodd" d="M9.49902 16.9979C9.49902 16.4456 9.94674 15.9979 10.499 15.9979H14.499C15.0513 15.9979 15.499 16.4456 15.499 16.9979C15.499 17.5502 15.0513 17.9979 14.499 17.9979H10.499C9.94674 17.9979 9.49902 17.5502 9.49902 16.9979Z" fill="white"/>
<path fill-rule="evenodd" clip-rule="evenodd" d="M7.49902 21.9979C7.49902 21.4456 7.94674 20.9979 8.49902 20.9979H12.499C13.0513 20.9979 13.499 21.4456 13.499 21.9979C13.499 22.5502 13.0513 22.9979 12.499 22.9979H8.49902C7.94674 22.9979 7.49902 22.5502 7.49902 21.9979Z" fill="white"/>
<path fill-rule="evenodd" clip-rule="evenodd" d="M21.499 21.9979C21.499 21.4456 21.9467 20.9979 22.499 20.9979H24.499C25.0513 20.9979 25.499 21.4456 25.499 21.9979C25.499 22.5502 25.0513 22.9979 24.499 22.9979H22.499C21.9467 22.9979 21.499 22.5502 21.499 21.9979Z" fill="white"/>
<path fill-rule="evenodd" clip-rule="evenodd" d="M21.499 16.9979C21.499 16.4456 21.9467 15.9979 22.499 15.9979H24.499C25.0513 15.9979 25.499 16.4456 25.499 16.9979C25.499 17.5502 25.0513 17.9979 24.499 17.9979H22.499C21.9467 17.9979 21.499 17.5502 21.499 16.9979Z" fill="white"/>
</svg>
