<svg xmlns="http://www.w3.org/2000/svg" width="33" height="32" viewBox="0 0 33 32" fill="none">
  <path fill-rule="evenodd" clip-rule="evenodd" d="M1.2666 26.998C1.2666 26.4458 1.71432 25.998 2.2666 25.998H30.2666C30.8189 25.998 31.2666 26.4458 31.2666 26.998C31.2666 27.5503 30.8189 27.998 30.2666 27.998H2.2666C1.71432 27.998 1.2666 27.5503 1.2666 26.998Z" fill="#03001e"/>
  <path fill-rule="evenodd" clip-rule="evenodd" d="M3.85141 3.58383C4.22648 3.20876 4.73519 2.99805 5.26562 2.99805H17.2656C17.7961 2.99805 18.3048 3.20876 18.6798 3.58383C19.0549 3.95891 19.2656 4.46762 19.2656 4.99805V26.998C19.2656 27.5503 18.8179 27.998 18.2656 27.998C17.7133 27.998 17.2656 27.5503 17.2656 26.998V4.99805H5.26562L5.26562 26.998C5.26562 27.5503 4.81791 27.998 4.26562 27.998C3.71334 27.998 3.26562 27.5503 3.26562 26.998V4.99805C3.26562 4.46761 3.47634 3.95891 3.85141 3.58383Z" fill="#03001e"/>
  <path fill-rule="evenodd" clip-rule="evenodd" d="M17.2656 11.998C17.2656 11.4458 17.7133 10.998 18.2656 10.998H27.2656C27.7961 10.998 28.3048 11.2088 28.6798 11.5838C29.0549 11.9589 29.2656 12.4676 29.2656 12.998V26.998C29.2656 27.5503 28.8179 27.998 28.2656 27.998C27.7133 27.998 27.2656 27.5503 27.2656 26.998L27.2656 12.998L18.2656 12.998C17.7133 12.998 17.2656 12.5503 17.2656 11.998Z" fill="#03001e"/>
  <path fill-rule="evenodd" clip-rule="evenodd" d="M7.26562 8.99805C7.26562 8.44576 7.71334 7.99805 8.26562 7.99805H12.2656C12.8179 7.99805 13.2656 8.44576 13.2656 8.99805C13.2656 9.55033 12.8179 9.99805 12.2656 9.99805H8.26562C7.71334 9.99805 7.26562 9.55033 7.26562 8.99805Z" fill="#03001e"/>
  <path fill-rule="evenodd" clip-rule="evenodd" d="M9.26562 16.998C9.26562 16.4458 9.71334 15.998 10.2656 15.998H14.2656C14.8179 15.998 15.2656 16.4458 15.2656 16.998C15.2656 17.5503 14.8179 17.998 14.2656 17.998H10.2656C9.71334 17.998 9.26562 17.5503 9.26562 16.998Z" fill="#03001e"/>
  <path fill-rule="evenodd" clip-rule="evenodd" d="M7.26562 21.998C7.26562 21.4458 7.71334 20.998 8.26562 20.998H12.2656C12.8179 20.998 13.2656 21.4458 13.2656 21.998C13.2656 22.5503 12.8179 22.998 12.2656 22.998H8.26562C7.71334 22.998 7.26562 22.5503 7.26562 21.998Z" fill="#03001e"/>
  <path fill-rule="evenodd" clip-rule="evenodd" d="M21.2656 21.998C21.2656 21.4458 21.7133 20.998 22.2656 20.998H24.2656C24.8179 20.998 25.2656 21.4458 25.2656 21.998C25.2656 22.5503 24.8179 22.998 24.2656 22.998H22.2656C21.7133 22.998 21.2656 22.5503 21.2656 21.998Z" fill="#03001e"/>
  <path fill-rule="evenodd" clip-rule="evenodd" d="M21.2656 16.998C21.2656 16.4458 21.7133 15.998 22.2656 15.998H24.2656C24.8179 15.998 25.2656 16.4458 25.2656 16.998C25.2656 17.5503 24.8179 17.998 24.2656 17.998H22.2656C21.7133 17.998 21.2656 17.5503 21.2656 16.998Z" fill="#03001e"/>
</svg>