<svg xmlns="http://www.w3.org/2000/svg" width="20" height="21" viewBox="0 0 20 21" fill="none">
  <path d="M17 0.377441H3C2.20435 0.377441 1.44129 0.693512 0.87868 1.25612C0.316071 1.81873 0 2.58179 0 3.37744V17.3774C0 18.1731 0.316071 18.9362 0.87868 19.4988C1.44129 20.0614 2.20435 20.3774 3 20.3774H17C17.7956 20.3774 18.5587 20.0614 19.1213 19.4988C19.6839 18.9362 20 18.1731 20 17.3774V3.37744C20 2.58179 19.6839 1.81873 19.1213 1.25612C18.5587 0.693512 17.7956 0.377441 17 0.377441ZM15.71 7.06744L8.25 15.0074C8.15589 15.1062 8.04259 15.1846 7.91705 15.2379C7.79151 15.2912 7.65639 15.3183 7.52 15.3174C7.38361 15.3183 7.24849 15.2912 7.12295 15.2379C6.99741 15.1846 6.88411 15.1062 6.79 15.0074L4.31 12.3774C4.20874 12.2846 4.12768 12.1719 4.0719 12.0464C4.01611 11.9209 3.98678 11.7852 3.98574 11.6478C3.98471 11.5105 4.01198 11.3744 4.06587 11.248C4.11975 11.1216 4.19909 11.0077 4.29894 10.9134C4.39879 10.8191 4.51701 10.7463 4.64622 10.6997C4.77543 10.653 4.91286 10.6335 5.04994 10.6423C5.18703 10.6512 5.32083 10.6881 5.44299 10.751C5.56516 10.8138 5.67307 10.9011 5.76 11.0074L7.52 12.8774L14.25 5.71744C14.343 5.62371 14.4536 5.54932 14.5754 5.49855C14.6973 5.44778 14.828 5.42164 14.96 5.42164C15.092 5.42164 15.2227 5.44778 15.3446 5.49855C15.4664 5.54932 15.577 5.62371 15.67 5.71744C15.8442 5.89674 15.9449 6.13479 15.9523 6.38467C15.9597 6.63455 15.8733 6.87814 15.71 7.06744Z" fill="#03001e"/>
</svg>