<svg width="33" height="32" viewBox="0 0 33 32" fill="none" xmlns="http://www.w3.org/2000/svg">
<path fill-rule="evenodd" clip-rule="evenodd" d="M16.5 5C10.4249 5 5.5 9.92487 5.5 16C5.5 22.0751 10.4249 27 16.5 27C22.5751 27 27.5 22.0751 27.5 16C27.5 9.92487 22.5751 5 16.5 5ZM3.5 16C3.5 8.8203 9.3203 3 16.5 3C23.6797 3 29.5 8.8203 29.5 16C29.5 23.1797 23.6797 29 16.5 29C9.3203 29 3.5 23.1797 3.5 16Z" fill="white"/>
<path fill-rule="evenodd" clip-rule="evenodd" d="M16.5 8C17.0523 8 17.5 8.44772 17.5 9V15H23.5C24.0523 15 24.5 15.4477 24.5 16C24.5 16.5523 24.0523 17 23.5 17H16.5C15.9477 17 15.5 16.5523 15.5 16V9C15.5 8.44772 15.9477 8 16.5 8Z" fill="white"/>
</svg>
