<svg width="75" height="41" viewBox="0 0 75 41" fill="none" xmlns="http://www.w3.org/2000/svg">
<g clip-path="url(#clip0_601_15055)">
<path fill-rule="evenodd" clip-rule="evenodd" d="M19.2349 10.3813C19.7893 10.7206 20.1448 11.3076 20.1885 11.9561L21.7305 34.8606C21.8049 35.9649 20.9699 36.9204 19.8656 36.9947C18.7613 37.0691 17.8058 36.2341 17.7314 35.1298L16.3794 15.0481L11.4103 17.1806L17.3253 35.2921C17.6689 36.3443 17.0945 37.4757 16.0424 37.8193C14.9903 38.163 13.8588 37.5886 13.5152 36.5365L7.03153 16.6835C6.70952 15.6975 7.19307 14.6288 8.14625 14.2197L17.3986 10.2491C17.9959 9.99279 18.6804 10.0421 19.2349 10.3813Z" fill="white"/>
<path d="M24.1471 22.1272L5.57233 28.046L6.86906 24.5536L4.03027 22.7154L22.605 16.8334L25.4789 18.8186L24.1471 22.1272Z" stroke="white" stroke-width="4.00813" stroke-miterlimit="10" stroke-linecap="round" stroke-linejoin="round"/>
<path fill-rule="evenodd" clip-rule="evenodd" d="M20.9559 15.6944C21.585 14.7837 22.8332 14.5555 23.7439 15.1845L26.6177 17.1697C27.3886 17.7022 27.6876 18.6978 27.3378 19.5669L26.006 22.8756C25.5927 23.9023 24.4253 24.3996 23.3986 23.9864C22.3718 23.5731 21.8745 22.4057 22.2878 21.3789L23.0212 19.5568L21.4658 18.4823C20.5551 17.8533 20.3269 16.6051 20.9559 15.6944Z" fill="white"/>
<path d="M24.1471 22.1272L5.57233 28.046L6.86906 24.5536L4.03027 22.7154L22.605 16.8334L25.4789 18.8186L24.1471 22.1272Z" fill="white"/>
<path d="M22.605 16.8334L25.4788 18.8186L24.147 22.1272" fill="white"/>
<path d="M52.2689 15.0049L51.1948 19.27L66.2728 23.4484L67.3468 19.1833L52.2689 15.0049Z" fill="white"/>
<path d="M71.6997 14.9114L66.1211 37.0554L67.7136 37.4969L73.2922 15.3529L71.6997 14.9114Z" fill="white"/>
<path d="M50.9659 11.4424L50.5898 12.9352L71.7668 18.8057L72.1429 17.3129L50.9659 11.4424Z" fill="white"/>
<path d="M53.3937 13.3044L52.8735 15.3656L53.6189 15.5726L54.1391 13.5113L53.3937 13.3044Z" fill="white"/>
<path d="M65.7343 16.7331L65.2158 18.7947L65.9613 19.0011L66.4798 16.9394L65.7343 16.7331Z" fill="white"/>
<path fill-rule="evenodd" clip-rule="evenodd" d="M33.6733 0.877448C33.6733 -0.229367 34.5706 -1.12662 35.6774 -1.12662H42.7919C43.8987 -1.12662 44.796 -0.229367 44.796 0.877448V32.6054C44.796 33.7122 43.8987 34.6095 42.7919 34.6095H35.6774C34.5706 34.6095 33.6733 33.7122 33.6733 32.6054V0.877448ZM37.6815 2.88151V30.6013H40.7878V2.88151H37.6815Z" fill="white"/>
<path d="M42.5465 21.3922H35.7124V32.6415H42.5465V21.3922Z" fill="white" stroke="white" stroke-width="1.00203" stroke-miterlimit="10" stroke-linejoin="round"/>
<path d="M4.55615 39.2594C4.55615 39.2594 4.80148 39.1492 5.25709 38.9286C5.71269 38.708 6.41363 38.4139 7.2898 38.0095C8.16596 37.6051 9.25241 37.2375 10.5141 36.7964C10.8295 36.6861 11.1449 36.5758 11.4954 36.4655C11.6706 36.392 11.8459 36.3552 12.0211 36.2817C12.1963 36.2449 12.3716 36.1714 12.5468 36.1346C13.2828 35.9141 14.0188 35.7302 14.8248 35.4729C15.2104 35.3626 15.6309 35.2523 16.0515 35.142C16.472 35.0318 16.8926 34.9582 17.3132 34.8479C18.1893 34.6641 19.0655 34.4436 20.0118 34.2597C20.923 34.0759 21.9043 33.9289 22.8505 33.7451C23.8319 33.5613 24.8132 33.4142 25.8295 33.3039C26.8459 33.1936 27.8973 33.0466 28.9487 32.9363C30.0001 32.826 31.0515 32.7525 32.1379 32.6789C32.6636 32.6422 33.2244 32.6054 33.7501 32.5687C34.2758 32.5319 34.8365 32.5319 35.3973 32.5319C36.4837 32.4951 37.5702 32.4951 38.6917 32.4584C39.7781 32.4951 40.8996 32.4951 41.9861 32.5319C42.5468 32.5319 43.0725 32.5319 43.6333 32.5687C44.159 32.6054 44.7197 32.6422 45.2454 32.6789C46.3319 32.7525 47.3833 32.826 48.4347 32.9363C49.4861 33.0466 50.5375 33.1936 51.5538 33.3039C52.5702 33.4142 53.5865 33.5613 54.5328 33.7451C55.5141 33.9289 56.4604 34.0759 57.3716 34.2597C58.2828 34.4803 59.194 34.6641 60.0702 34.8479C60.4907 34.9582 60.9113 35.0318 61.3318 35.142C61.7524 35.2523 62.1379 35.3626 62.5585 35.4729C63.3646 35.6935 64.1005 35.9141 64.8365 36.1346C65.0118 36.1714 65.187 36.2449 65.3622 36.2817C65.5375 36.3552 65.7127 36.392 65.8879 36.4655C66.2384 36.5758 66.5538 36.6861 66.8692 36.7964C68.1309 37.2375 69.2524 37.6051 70.1286 38.0095C71.0047 38.3771 71.7057 38.708 72.1613 38.9286C72.6169 39.1492 72.8622 39.2594 72.8622 39.2594C72.8622 39.2594 72.5818 39.1859 72.0912 39.0389C71.6005 38.8918 70.8646 38.708 69.9533 38.4139C69.4977 38.2669 69.0071 38.1198 68.4463 38.0095C67.8856 37.8992 67.2898 37.7154 66.659 37.5684C65.3973 37.2375 63.9253 36.9802 62.3132 36.6493C61.9276 36.5758 61.5071 36.5023 61.0865 36.4287C60.666 36.3552 60.2454 36.3184 59.8248 36.2449C58.9487 36.0979 58.0725 35.9876 57.1613 35.8405C56.2501 35.6935 55.3038 35.62 54.3225 35.5097C53.3412 35.3994 52.3599 35.2523 51.3786 35.2156C50.3622 35.142 49.3459 35.0685 48.2945 34.9582C47.7688 34.9215 47.2431 34.9215 46.7174 34.8847C46.1917 34.8479 45.666 34.8479 45.1403 34.8112C44.6146 34.7744 44.0889 34.7744 43.5281 34.7377C43.0024 34.7009 42.4417 34.7377 41.916 34.7009C40.8295 34.7009 39.7781 34.6641 38.6917 34.6641C37.6052 34.6641 36.5538 34.7009 35.4674 34.7009C34.9417 34.7009 34.3809 34.7009 33.8552 34.7377C33.3295 34.7744 32.8038 34.8112 32.2431 34.8112C31.7174 34.8479 31.1917 34.8479 30.666 34.8847C30.1403 34.9215 29.6146 34.9215 29.0889 34.9582C28.0375 35.0318 27.0211 35.142 26.0047 35.2156C24.9884 35.2891 24.0071 35.4361 23.0258 35.5097C22.0445 35.62 21.0982 35.6935 20.187 35.8405C19.2758 35.9876 18.3646 36.1346 17.5234 36.2449C17.1029 36.3184 16.6823 36.3552 16.2618 36.4287C15.8412 36.5023 15.4557 36.5758 15.0351 36.6493C13.458 36.9802 11.9861 37.2007 10.6893 37.5684C9.42765 37.8992 8.27111 38.083 7.35989 38.4139C6.44868 38.6712 5.71269 38.8918 5.22204 39.0389C4.83653 39.1859 4.55615 39.2594 4.55615 39.2594Z" fill="white"/>
</g>
<defs>
<clipPath id="clip0_601_15055">
<rect width="75" height="40" fill="white" transform="translate(0 0.877502)"/>
</clipPath>
</defs>
</svg>
