<svg xmlns="http://www.w3.org/2000/svg" width="24" height="24" viewBox="0 0 24 24" fill="none">
  <path d="M19.3125 11.9854V20.2354C19.3125 20.7824 19.0952 21.307 18.7084 21.6938C18.3216 22.0806 17.797 22.2979 17.25 22.2979H3.75C3.20299 22.2979 2.67839 22.0806 2.29159 21.6938C1.9048 21.307 1.6875 20.7824 1.6875 20.2354V6.73536C1.6875 6.18835 1.9048 5.66375 2.29159 5.27696C2.67839 4.89016 3.20299 4.67286 3.75 4.67286H12C12.1492 4.67286 12.2923 4.73213 12.3977 4.83762C12.5032 4.9431 12.5625 5.08618 12.5625 5.23536C12.5625 5.38455 12.5032 5.52762 12.3977 5.63311C12.2923 5.7386 12.1492 5.79786 12 5.79786H3.75C3.50136 5.79786 3.2629 5.89664 3.08709 6.07245C2.91127 6.24827 2.8125 6.48672 2.8125 6.73536V20.2354C2.8125 20.484 2.91127 20.7225 3.08709 20.8983C3.2629 21.0741 3.50136 21.1729 3.75 21.1729H17.25C17.4986 21.1729 17.7371 21.0741 17.9129 20.8983C18.0887 20.7225 18.1875 20.484 18.1875 20.2354V11.9854C18.1875 11.8362 18.2468 11.6931 18.3523 11.5876C18.4577 11.4821 18.6008 11.4229 18.75 11.4229C18.8992 11.4229 19.0423 11.4821 19.1477 11.5876C19.2532 11.6931 19.3125 11.8362 19.3125 11.9854ZM22.3125 4.48536C22.3134 4.85477 22.2409 5.22067 22.0993 5.56185C21.9577 5.90303 21.7497 6.21269 21.4875 6.47286L13.1625 14.7979C12.94 15.0212 12.6444 15.157 12.33 15.1804L9.18 15.4054H9.1425C9.06537 15.4055 8.98902 15.3898 8.91821 15.3593C8.8474 15.3287 8.78364 15.2839 8.73088 15.2276C8.67813 15.1713 8.63751 15.1048 8.61155 15.0322C8.5856 14.9595 8.57486 14.8823 8.58 14.8054L8.805 11.6554C8.82836 11.3409 8.96414 11.0454 9.1875 10.8229L17.5125 2.49786C18.0481 1.98709 18.7599 1.70215 19.5 1.70215C20.2401 1.70215 20.9519 1.98709 21.4875 2.49786C21.7497 2.75803 21.9577 3.06769 22.0993 3.40887C22.2409 3.75005 22.3134 4.11596 22.3125 4.48536ZM18.3075 3.29286L18.1725 3.42786L20.5575 5.81286L20.6925 5.67786C21.0085 5.36146 21.186 4.93255 21.186 4.48536C21.186 4.03817 21.0085 3.60927 20.6925 3.29286C20.3715 2.98572 19.9443 2.81429 19.5 2.81429C19.0557 2.81429 18.6285 2.98572 18.3075 3.29286ZM19.7625 6.60786L17.3775 4.22286L9.9825 11.6179C9.95114 11.6503 9.9325 11.6929 9.93 11.7379L9.75 14.2354L12.255 14.0554C12.3 14.0529 12.3426 14.0342 12.375 14.0029L19.7625 6.60786Z" fill="#B0AFAF"/>
</svg>