<svg width="20" height="20" viewBox="0 0 20 20" fill="none" xmlns="http://www.w3.org/2000/svg">
<g clip-path="url(#clip0_176_3304)">
<path d="M10 20C15.5228 20 20 15.5228 20 10C20 4.47715 15.5228 0 10 0C4.47715 0 0 4.47715 0 10C0 15.5228 4.47715 20 10 20Z" fill="#F0F0F0"/>
<path d="M2.06693 3.91187C1.28143 4.93386 0.689121 6.11179 0.344238 7.39144H5.5465L2.06693 3.91187Z" fill="#0052B4"/>
<path d="M19.6548 7.3914C19.3099 6.11179 18.7176 4.93386 17.9321 3.91187L14.4526 7.3914H19.6548Z" fill="#0052B4"/>
<path d="M0.344238 12.6086C0.68916 13.8883 1.28146 15.0662 2.06693 16.0881L5.54639 12.6086H0.344238Z" fill="#0052B4"/>
<path d="M16.0879 2.06722C15.0659 1.28171 13.888 0.689404 12.6084 0.344482V5.54671L16.0879 2.06722Z" fill="#0052B4"/>
<path d="M3.91162 17.9328C4.93361 18.7183 6.11154 19.3106 7.39115 19.6556V14.4534L3.91162 17.9328Z" fill="#0052B4"/>
<path d="M7.39111 0.344482C6.1115 0.689404 4.93357 1.28171 3.91162 2.06718L7.39111 5.54667V0.344482Z" fill="#0052B4"/>
<path d="M12.6084 19.6556C13.888 19.3106 15.0659 18.7183 16.0879 17.9329L12.6084 14.4534V19.6556Z" fill="#0052B4"/>
<path d="M14.4526 12.6086L17.9321 16.0882C18.7176 15.0662 19.3099 13.8883 19.6548 12.6086H14.4526Z" fill="#0052B4"/>
<path d="M19.9154 8.69566H11.3044H11.3044V0.0846484C10.8774 0.0290625 10.4421 0 10 0C9.55785 0 9.12262 0.0290625 8.69566 0.0846484V8.69559V8.69563H0.0846484C0.0290625 9.12262 0 9.55793 0 10C0 10.4421 0.0290625 10.8774 0.0846484 11.3043H8.69559H8.69563V19.9154C9.12262 19.9709 9.55785 20 10 20C10.4421 20 10.8774 19.971 11.3043 19.9154V11.3044V11.3044H19.9154C19.9709 10.8774 20 10.4421 20 10C20 9.55793 19.9709 9.12262 19.9154 8.69566Z" fill="#D80027"/>
<path d="M12.6089 12.6087L17.0712 17.071C17.2765 16.8659 17.4722 16.6514 17.659 16.429L13.8387 12.6086H12.6089V12.6087Z" fill="#D80027"/>
<path d="M7.39158 12.6089H7.3915L2.9292 17.0712C3.13436 17.2764 3.34885 17.4722 3.57119 17.659L7.39158 13.8385V12.6089Z" fill="#D80027"/>
<path d="M7.39098 7.39142V7.39134L2.92863 2.92896C2.7234 3.13411 2.52762 3.3486 2.34082 3.57095L6.16125 7.39138H7.39098V7.39142Z" fill="#D80027"/>
<path d="M12.6089 7.39126L17.0713 2.92884C16.8661 2.7236 16.6516 2.52782 16.4293 2.34106L12.6089 6.16149V7.39126Z" fill="#D80027"/>
</g>
<defs>
<clipPath id="clip0_176_3304">
<rect width="20" height="20" fill="white"/>
</clipPath>
</defs>
</svg>
