<svg width="33" height="32" viewBox="0 0 33 32" fill="none" xmlns="http://www.w3.org/2000/svg">
<g clip-path="url(#clip0_43_713)">
<path d="M16.2378 0C7.41543 0 0.237793 7.17764 0.237793 16C0.237793 24.8217 7.41543 32 16.2378 32C25.0595 32 32.2378 24.8217 32.2378 16C32.2378 7.17764 25.0608 0 16.2378 0ZM20.2168 16.5633H17.6138V25.8413H13.7565C13.7565 25.8413 13.7565 20.7718 13.7565 16.5633H11.923V13.2841H13.7565V11.1631C13.7565 9.64408 14.4783 7.27044 17.6492 7.27044L20.5075 7.2814V10.4645C20.5075 10.4645 18.7706 10.4645 18.4329 10.4645C18.0952 10.4645 17.6151 10.6334 17.6151 11.3578V13.2848H20.5539L20.2168 16.5633Z" fill="white"/>
</g>
<defs>
<clipPath id="clip0_43_713">
<rect width="32" height="32" fill="white" transform="translate(0.237793)"/>
</clipPath>
</defs>
</svg>
