<svg xmlns="http://www.w3.org/2000/svg" width="18" height="18" viewBox="0 0 18 18" fill="none">
  <path d="M9 17.4375C13.6599 17.4375 17.4375 13.6599 17.4375 9C17.4375 4.3401 13.6599 0.5625 9 0.5625C4.3401 0.5625 0.5625 4.3401 0.5625 9C0.5625 13.6599 4.3401 17.4375 9 17.4375Z" fill="#00BA00"/>
  <path fill-rule="evenodd" clip-rule="evenodd" d="M7.08467 11.6237L4.76042 9.13604C4.44222 8.79547 4.46048 8.25664 4.80105 7.93844C5.14163 7.62023 5.68045 7.63855 5.99866 7.97907L7.79149 9.8979L10.6293 7.24643C10.6548 7.22257 10.6815 7.2007 10.7091 7.18058L12.0436 5.93374C12.3841 5.61553 12.923 5.63385 13.2412 5.97442C13.5594 6.31494 13.5411 6.85382 13.2006 7.17202L9.1246 10.9803L9.12025 10.9757L7.71032 12.293L7.08467 11.6237Z" fill="white"/>
</svg>