<svg xmlns="http://www.w3.org/2000/svg" width="33" height="32" viewBox="0 0 33 32" fill="none">
  <path fill-rule="evenodd" clip-rule="evenodd" d="M1.6001 26.9979C1.6001 26.4456 2.04781 25.9979 2.6001 25.9979H30.6001C31.1524 25.9979 31.6001 26.4456 31.6001 26.9979C31.6001 27.5502 31.1524 27.9979 30.6001 27.9979H2.6001C2.04781 27.9979 1.6001 27.5502 1.6001 26.9979Z" fill="white"/>
  <path fill-rule="evenodd" clip-rule="evenodd" d="M4.1854 3.58368C4.56047 3.20861 5.06918 2.99789 5.59961 2.99789H17.5996C18.13 2.99789 18.6388 3.20861 19.0138 3.58368C19.3889 3.95875 19.5996 4.46746 19.5996 4.99789V26.9979C19.5996 27.5502 19.1519 27.9979 18.5996 27.9979C18.0473 27.9979 17.5996 27.5502 17.5996 26.9979V4.99789H5.59961L5.59961 26.9979C5.59961 27.5502 5.15189 27.9979 4.59961 27.9979C4.04732 27.9979 3.59961 27.5502 3.59961 26.9979V4.99789C3.59961 4.46746 3.81032 3.95875 4.1854 3.58368Z" fill="white"/>
  <path fill-rule="evenodd" clip-rule="evenodd" d="M17.5996 11.9979C17.5996 11.4456 18.0473 10.9979 18.5996 10.9979H27.5996C28.13 10.9979 28.6388 11.2086 29.0138 11.5837C29.3889 11.9588 29.5996 12.4675 29.5996 12.9979V26.9979C29.5996 27.5502 29.1519 27.9979 28.5996 27.9979C28.0473 27.9979 27.5996 27.5502 27.5996 26.9979L27.5996 12.9979L18.5996 12.9979C18.0473 12.9979 17.5996 12.5502 17.5996 11.9979Z" fill="white"/>
  <path fill-rule="evenodd" clip-rule="evenodd" d="M7.59961 8.99789C7.59961 8.44561 8.04732 7.99789 8.59961 7.99789H12.5996C13.1519 7.99789 13.5996 8.44561 13.5996 8.99789C13.5996 9.55018 13.1519 9.99789 12.5996 9.99789H8.59961C8.04732 9.99789 7.59961 9.55018 7.59961 8.99789Z" fill="white"/>
  <path fill-rule="evenodd" clip-rule="evenodd" d="M9.59961 16.9979C9.59961 16.4456 10.0473 15.9979 10.5996 15.9979H14.5996C15.1519 15.9979 15.5996 16.4456 15.5996 16.9979C15.5996 17.5502 15.1519 17.9979 14.5996 17.9979H10.5996C10.0473 17.9979 9.59961 17.5502 9.59961 16.9979Z" fill="white"/>
  <path fill-rule="evenodd" clip-rule="evenodd" d="M7.59961 21.9979C7.59961 21.4456 8.04732 20.9979 8.59961 20.9979H12.5996C13.1519 20.9979 13.5996 21.4456 13.5996 21.9979C13.5996 22.5502 13.1519 22.9979 12.5996 22.9979H8.59961C8.04732 22.9979 7.59961 22.5502 7.59961 21.9979Z" fill="white"/>
  <path fill-rule="evenodd" clip-rule="evenodd" d="M21.5996 21.9979C21.5996 21.4456 22.0473 20.9979 22.5996 20.9979H24.5996C25.1519 20.9979 25.5996 21.4456 25.5996 21.9979C25.5996 22.5502 25.1519 22.9979 24.5996 22.9979H22.5996C22.0473 22.9979 21.5996 22.5502 21.5996 21.9979Z" fill="white"/>
  <path fill-rule="evenodd" clip-rule="evenodd" d="M21.5996 16.9979C21.5996 16.4456 22.0473 15.9979 22.5996 15.9979H24.5996C25.1519 15.9979 25.5996 16.4456 25.5996 16.9979C25.5996 17.5502 25.1519 17.9979 24.5996 17.9979H22.5996C22.0473 17.9979 21.5996 17.5502 21.5996 16.9979Z" fill="white"/>
</svg>