<svg width="33" height="32" viewBox="0 0 33 32" fill="none" xmlns="http://www.w3.org/2000/svg">
<g clip-path="url(#clip0_43_709)">
<path d="M16.2378 19.2812C18.05 19.2812 19.519 17.8122 19.519 16C19.519 14.1878 18.05 12.7188 16.2378 12.7188C14.4256 12.7188 12.9565 14.1878 12.9565 16C12.9565 17.8122 14.4256 19.2812 16.2378 19.2812Z" fill="white"/>
<path d="M16.2378 0.375C7.60836 0.375 0.612793 7.37056 0.612793 16C0.612793 24.6294 7.60836 31.625 16.2378 31.625C24.8672 31.625 31.8628 24.6294 31.8628 16C31.8628 7.37056 24.8672 0.375 16.2378 0.375ZM25.8914 19.9712C25.8164 21.4567 25.399 22.9216 24.3164 23.9927C23.2234 25.0739 21.7515 25.4768 20.2517 25.5511H12.2239C10.7239 25.4768 9.25229 25.0742 8.15923 23.9927C7.0766 22.9216 6.65923 21.4567 6.58423 19.9712V12.0287C6.65923 10.5433 7.07667 9.07837 8.15923 8.00725C9.25229 6.926 10.7241 6.52312 12.2239 6.44894H20.2517C21.7517 6.52312 23.2233 6.92581 24.3164 8.00725C25.399 9.07837 25.8164 10.5433 25.8914 12.0287L25.8914 19.9712Z" fill="white"/>
<path d="M20.1504 8.25866C18.1951 8.20504 14.2813 8.20504 12.326 8.25866C11.3084 8.2866 10.1548 8.53991 9.42983 9.31429C8.67645 10.1192 8.39176 11.0917 8.36289 12.1797C8.31214 14.0892 8.36289 19.8204 8.36289 19.8204C8.39595 20.9082 8.67645 21.8808 9.42983 22.6858C10.1548 23.4604 11.3084 23.7135 12.326 23.7414C14.2813 23.795 18.1951 23.795 20.1504 23.7414C21.168 23.7135 22.3216 23.4602 23.0466 22.6858C23.7999 21.8808 24.0846 20.9083 24.1135 19.8204V12.1797C24.0846 11.0917 23.7999 10.1192 23.0466 9.31429C22.3213 8.53966 21.1678 8.2866 20.1504 8.25866ZM16.2379 21.086C15.232 21.086 14.2487 20.7877 13.4124 20.2288C12.576 19.67 11.9241 18.8757 11.5392 17.9463C11.1542 17.017 11.0535 15.9944 11.2497 15.0078C11.446 14.0212 11.9304 13.115 12.6416 12.4037C13.3529 11.6925 14.2592 11.2081 15.2457 11.0118C16.2323 10.8156 17.2549 10.9163 18.1843 11.3012C19.1136 11.6862 19.9079 12.3381 20.4668 13.1744C21.0256 14.0108 21.3239 14.9941 21.3239 16C21.3239 17.3489 20.788 18.6425 19.8342 19.5963C18.8805 20.5501 17.5868 21.086 16.2379 21.086ZM21.3455 11.9639C21.1443 11.9639 20.9477 11.9042 20.7805 11.7924C20.6132 11.6806 20.4829 11.5217 20.4059 11.3358C20.329 11.1499 20.3089 10.9454 20.3482 10.7481C20.3874 10.5508 20.4843 10.3696 20.6266 10.2274C20.7689 10.0851 20.9501 9.98829 21.1474 9.94907C21.3447 9.90984 21.5492 9.92999 21.7351 10.007C21.9209 10.084 22.0798 10.2144 22.1915 10.3816C22.3033 10.5489 22.3629 10.7456 22.3629 10.9467C22.3629 11.0803 22.3366 11.2126 22.2855 11.336C22.2344 11.4595 22.1594 11.5716 22.0649 11.6661C21.9705 11.7605 21.8583 11.8355 21.7348 11.8866C21.6114 11.9377 21.4791 11.9639 21.3455 11.9639Z" fill="white"/>
</g>
<defs>
<clipPath id="clip0_43_709">
<rect width="32" height="32" fill="white" transform="translate(0.237793)"/>
</clipPath>
</defs>
</svg>
