<svg width="75" height="41" viewBox="0 0 75 41" fill="none" xmlns="http://www.w3.org/2000/svg">
<g clip-path="url(#clip0_601_8866)">
<path d="M22.9102 31.8123C22.7269 30.3308 22.5436 28.8493 22.3603 27.3325C22.0671 26.6624 21.8105 26.0274 21.5172 25.3572C21.3706 24.3343 21.224 23.3467 21.0774 22.3237C18.3281 22.6412 15.5788 23.0292 12.8662 23.4878C12.9029 24.3696 12.9395 25.2161 12.9762 26.098C13.1961 27.0504 13.3794 28.0027 13.5993 28.9551C13.4527 30.225 13.3428 31.5301 13.2328 32.7999C13.5627 34.105 13.8926 35.4102 14.2225 36.7153C17.485 36.1156 20.7474 35.6571 24.0099 35.3396C23.6433 34.1756 23.2768 32.9763 22.9102 31.8123ZM15.7621 36.0098C15.6155 36.0451 15.4689 36.0451 15.3589 36.0803C15.0656 34.5636 14.809 33.0116 14.5158 31.4948C14.6624 31.4595 14.809 31.4595 14.9557 31.4243C15.2123 32.941 15.4689 34.4578 15.7621 36.0098ZM14.5891 28.7082C14.4425 30.1544 14.2958 31.5654 14.1859 33.0116C14.4425 34.0345 14.6624 35.0221 14.919 36.0451C14.7724 36.0803 14.6624 36.1156 14.5158 36.1509C14.2592 35.128 14.0026 34.105 13.746 33.0821V33.0468C13.8559 31.6359 14.0026 30.1897 14.1492 28.7788C13.9293 27.8969 13.6727 27.0504 13.4527 26.1685C13.4894 25.4631 13.4894 24.7223 13.526 24.0169C13.6727 24.0169 13.8193 24.0169 14.0026 24.0169C13.9659 24.7223 13.9293 25.4278 13.9293 26.1333C14.1492 26.9445 14.3691 27.8264 14.5891 28.7082ZM15.6888 30.9657C15.5422 31.001 15.3955 31.001 15.2489 31.0363C14.919 29.1315 14.5524 27.2267 14.2225 25.322C14.3691 25.2867 14.5158 25.2867 14.6624 25.2514C15.029 27.1562 15.3589 29.0609 15.6888 30.9657ZM20.8574 34.9869C20.7108 34.9869 20.5642 35.0221 20.4542 35.0574C20.1976 33.1879 19.941 31.2832 19.6477 29.4137C19.7944 29.3784 19.941 29.3784 20.0876 29.3431C20.3442 31.2126 20.6008 33.1174 20.8574 34.9869ZM21.8105 34.8811C21.6639 34.8811 21.5172 34.9163 21.4073 34.9163C21.1507 33.0116 20.8941 31.1421 20.6741 29.2373C20.8208 29.202 20.9674 29.202 21.114 29.202C21.334 31.1068 21.5539 32.9763 21.8105 34.8811ZM21.9938 31.6006C21.8105 30.2602 21.6639 28.9198 21.5172 27.5795C21.2606 26.9093 20.9674 26.2743 20.7108 25.6394C20.6008 24.7929 20.4908 23.911 20.3809 23.0645C20.5275 23.0292 20.6741 23.0292 20.8574 22.9939C20.9674 23.8405 21.0774 24.687 21.1873 25.5336C21.4439 26.2038 21.7372 26.8387 21.9938 27.5089C22.1404 28.8493 22.3237 30.225 22.4703 31.5654C22.8002 32.6588 23.1301 33.7523 23.4234 34.8458C23.2768 34.8811 23.1668 34.9163 23.0202 34.9516C22.6536 33.8228 22.3237 32.6941 21.9938 31.6006Z" fill="white"/>
<path d="M27.7126 13.329C27.6393 11.9533 27.5293 10.5424 27.456 9.16674C27.2727 9.16674 27.0528 9.20202 26.8695 9.20202C26.8328 8.53182 26.7595 7.8969 26.7229 7.22671C26.5762 7.22671 26.4296 7.26198 26.283 7.26198C26.2463 6.73288 26.2097 6.20378 26.173 5.67468C26.063 4.1932 25.9531 2.67644 25.8431 1.19496C25.6965 1.08914 25.5132 0.983323 25.3666 0.877502C25.2199 0.983323 25.0733 1.12442 24.9267 1.23024C25.0366 2.74699 25.1466 4.26375 25.2932 5.7805C25.3299 6.34487 25.3666 6.87397 25.4399 7.43835C25.2566 7.43835 25.11 7.47362 24.9267 7.47362C25 8.24964 25.0366 9.02565 25.11 9.80166C24.8167 10.7188 24.5234 11.6712 24.2669 12.5883C24.3035 12.9057 24.3402 13.1879 24.3402 13.5054C24.2302 13.7876 24.1202 14.0697 24.0103 14.3167C24.6334 21.2302 25.2932 28.1085 25.9164 35.0221C27.456 34.9163 28.9589 34.8458 30.4985 34.8105C30.132 27.8969 29.7654 20.9833 29.3988 14.0697C28.849 13.8581 28.2991 13.5759 27.7126 13.329ZM26.6495 34.493C26.5029 34.493 26.3563 34.5283 26.2097 34.5283C25.6232 28.038 25.0366 21.5477 24.4501 15.0927C24.6334 15.0927 24.78 15.0574 24.9633 15.0574C25.5498 21.5124 26.0997 28.0027 26.6495 34.493ZM27.4927 34.4225C27.346 34.4225 27.1994 34.4577 27.0528 34.4577C26.5029 27.9674 25.9897 21.4771 25.4399 14.9868C25.6232 14.9868 25.7698 14.9516 25.9531 14.9516C26.4663 21.4419 26.9795 27.9322 27.4927 34.4225ZM28.3358 34.3872C28.1891 34.3872 28.0425 34.4225 27.8959 34.4225C27.4193 27.9322 26.9061 21.4419 26.4296 14.9516C26.6129 14.9516 26.7595 14.9163 26.9428 14.9163C27.3827 21.4066 27.8592 27.8969 28.3358 34.3872ZM29.1789 34.3167C29.0322 34.3167 28.8856 34.3167 28.739 34.3519C28.2991 27.8616 27.8592 21.3713 27.4193 14.881C27.6026 14.881 27.7493 14.8458 27.9325 14.8458C28.3358 21.3361 28.739 27.8264 29.1789 34.3167ZM29.9853 34.2814C29.8387 34.2814 29.6921 34.2814 29.5454 34.3167C29.1422 27.8264 28.739 21.3361 28.3724 14.8458C28.5557 14.8458 28.7023 14.8105 28.8856 14.8105C29.2522 21.2655 29.6188 27.7911 29.9853 34.2814Z" fill="white"/>
<path d="M32.7344 22.5353C32.8443 26.627 32.991 30.6835 33.1009 34.7752C38.8927 34.5988 44.7212 34.8457 50.513 35.4807C50.9895 31.4242 51.466 27.3678 51.9792 23.3113C45.5643 22.6059 39.1493 22.359 32.7344 22.5353ZM34.4572 33.7523C34.2373 33.7523 34.0174 33.7523 33.7608 33.7523C33.7608 33.4701 33.7608 33.2232 33.7241 32.941C33.9441 32.941 34.2006 32.941 34.4206 32.941C34.4572 33.2232 34.4572 33.5053 34.4572 33.7523ZM34.4206 32.165C34.2006 32.165 33.9441 32.165 33.7241 32.165C33.7241 31.8828 33.7241 31.6359 33.6875 31.3537C33.9074 31.3537 34.164 31.3537 34.3839 31.3537C34.4206 31.6006 34.4206 31.8828 34.4206 32.165ZM34.4206 30.5424C34.2006 30.5424 33.9441 30.5424 33.7241 30.5424C33.7241 30.2602 33.7241 30.0133 33.6875 29.7311C33.9074 29.7311 34.164 29.7311 34.3839 29.7311C34.3839 29.978 34.3839 30.2602 34.4206 30.5424ZM34.3839 28.9198C34.164 28.9198 33.9074 28.9198 33.6875 28.9198C33.6875 28.6376 33.6875 28.3907 33.6508 28.1085C33.9074 28.1085 34.1273 28.1085 34.3839 28.1085C34.3839 28.3907 34.3839 28.6376 34.3839 28.9198ZM34.3473 27.2972C34.0907 27.2972 33.8707 27.2972 33.6141 27.2972C33.6141 27.015 33.6141 26.7681 33.5775 26.4859C33.8341 26.4859 34.054 26.4859 34.3106 26.4859C34.3473 26.7681 34.3473 27.0503 34.3473 27.2972ZM34.3106 25.7099C34.054 25.7099 33.8341 25.7099 33.5775 25.7099C33.5775 25.4277 33.5775 25.1808 33.5408 24.8986C33.7974 24.8986 34.0174 24.8986 34.274 24.8986C34.3106 25.1456 34.3106 25.4277 34.3106 25.7099ZM34.274 24.0874C34.0174 24.0874 33.7974 24.0874 33.5408 24.0874C33.5408 23.8052 33.5408 23.5583 33.5042 23.2761C33.7608 23.2761 34.0174 23.2761 34.2373 23.2761C34.274 23.523 34.274 23.8052 34.274 24.0874ZM35.8502 33.7523C35.6303 33.7523 35.4103 33.7523 35.1537 33.7523C35.1537 33.4701 35.1537 33.2232 35.1537 32.941C35.3737 32.941 35.6303 32.941 35.8502 32.941C35.8502 33.1879 35.8502 33.4701 35.8502 33.7523ZM35.8502 32.1297C35.6303 32.1297 35.3737 32.1297 35.1537 32.1297C35.1537 31.8475 35.1537 31.6006 35.1537 31.3184C35.3737 31.3184 35.6303 31.3184 35.8502 31.3184C35.8502 31.6006 35.8502 31.8475 35.8502 32.1297ZM35.8502 30.5071C35.6303 30.5071 35.3737 30.5071 35.1537 30.5071C35.1537 30.2249 35.1537 29.978 35.1537 29.6958C35.3737 29.6958 35.6303 29.6958 35.8502 29.6958C35.8502 29.978 35.8502 30.2602 35.8502 30.5071ZM35.8136 28.9198C35.5936 28.9198 35.337 28.9198 35.1171 28.9198C35.1171 28.6376 35.1171 28.3907 35.1171 28.1085C35.3737 28.1085 35.5936 28.1085 35.8502 28.1085C35.8136 28.3554 35.8136 28.6376 35.8136 28.9198ZM35.8136 27.2972C35.557 27.2972 35.337 27.2972 35.0804 27.2972C35.0804 27.015 35.0804 26.7681 35.0804 26.4859C35.337 26.4859 35.557 26.4859 35.8136 26.4859C35.8136 26.7329 35.8136 27.015 35.8136 27.2972ZM35.8136 25.6747C35.557 25.6747 35.337 25.6747 35.0804 25.6747C35.0804 25.3925 35.0804 25.1456 35.0804 24.8634C35.337 24.8634 35.557 24.8634 35.8136 24.8634C35.8136 25.1456 35.8136 25.3925 35.8136 25.6747ZM35.7769 24.0521C35.5203 24.0521 35.3004 24.0521 35.0438 24.0521C35.0438 23.7699 35.0438 23.523 35.0438 23.2408C35.3004 23.2408 35.557 23.2408 35.7769 23.2408C35.7769 23.523 35.7769 23.8052 35.7769 24.0521ZM37.2432 33.7523C37.0232 33.7523 36.8033 33.7523 36.5467 33.7523C36.5467 33.4701 36.5467 33.2232 36.5467 32.941C36.7666 32.941 37.0232 32.941 37.2432 32.941C37.2432 33.1879 37.2432 33.4701 37.2432 33.7523ZM37.2798 32.1297C37.0599 32.1297 36.8033 32.1297 36.5833 32.1297C36.5833 31.8475 36.5833 31.6006 36.5833 31.3184C36.8033 31.3184 37.0599 31.3184 37.2798 31.3184C37.2798 31.6006 37.2798 31.8475 37.2798 32.1297ZM37.2798 30.5071C37.0599 30.5071 36.8033 30.5071 36.5833 30.5071C36.5833 30.2249 36.5833 29.978 36.5833 29.6958C36.8033 29.6958 37.0599 29.6958 37.2798 29.6958C37.2798 29.978 37.2798 30.2602 37.2798 30.5071ZM37.2798 28.9198C37.0599 28.9198 36.8033 28.9198 36.5833 28.9198C36.5833 28.6376 36.5833 28.3907 36.5833 28.1085C36.8399 28.1085 37.0599 28.1085 37.3165 28.1085C37.2798 28.3554 37.2798 28.6376 37.2798 28.9198ZM37.2798 27.2972C37.0232 27.2972 36.8033 27.2972 36.5467 27.2972C36.5467 27.015 36.5467 26.7681 36.5467 26.4859C36.8033 26.4859 37.0232 26.4859 37.2798 26.4859C37.2798 26.7329 37.2798 27.015 37.2798 27.2972ZM37.2798 25.6747C37.0232 25.6747 36.8033 25.6747 36.5467 25.6747C36.5467 25.3925 36.5467 25.1456 36.5467 24.8634C36.8033 24.8634 37.0232 24.8634 37.2798 24.8634C37.2798 25.1456 37.2798 25.3925 37.2798 25.6747ZM37.3165 24.0521C37.0599 24.0521 36.8399 24.0521 36.5833 24.0521C36.5833 23.7699 36.5833 23.523 36.5833 23.2408C36.8399 23.2408 37.0965 23.2408 37.3165 23.2408C37.3165 23.523 37.3165 23.8052 37.3165 24.0521ZM38.6361 33.7523C38.4162 33.7523 38.1963 33.7523 37.9397 33.7523C37.9397 33.4701 37.9397 33.2232 37.9397 32.941C38.1596 32.941 38.4162 32.941 38.6361 32.941C38.6728 33.2232 38.6361 33.5053 38.6361 33.7523ZM38.6728 32.165C38.4528 32.165 38.1962 32.165 37.9763 32.165C37.9763 31.8828 37.9763 31.6359 37.9763 31.3537C38.1962 31.3537 38.4528 31.3537 38.6728 31.3537C38.6728 31.6006 38.6728 31.8828 38.6728 32.165ZM38.7094 30.5424C38.4895 30.5424 38.2329 30.5424 38.013 30.5424C38.013 30.2602 38.013 30.0133 38.013 29.7311C38.2329 29.7311 38.4895 29.7311 38.7094 29.7311C38.7094 29.978 38.7094 30.2602 38.7094 30.5424ZM38.7461 28.9198C38.5262 28.9198 38.2696 28.9198 38.0496 28.9198C38.0496 28.6376 38.0496 28.3907 38.0496 28.1085C38.3062 28.1085 38.5262 28.1085 38.7828 28.1085C38.7461 28.3907 38.7461 28.6376 38.7461 28.9198ZM38.7461 27.2972C38.4895 27.2972 38.2696 27.2972 38.013 27.2972C38.013 27.015 38.013 26.7681 38.013 26.4859C38.2696 26.4859 38.4895 26.4859 38.7461 26.4859C38.7461 26.7681 38.7461 27.015 38.7461 27.2972ZM38.7828 25.6747C38.5262 25.6747 38.3062 25.6747 38.0496 25.6747C38.0496 25.3925 38.0496 25.1456 38.0496 24.8634C38.3062 24.8634 38.5262 24.8634 38.7828 24.8634C38.7828 25.1456 38.7828 25.4277 38.7828 25.6747ZM38.8194 24.0874C38.5628 24.0874 38.3429 24.0874 38.0863 24.0874C38.0863 23.8052 38.0863 23.5583 38.0863 23.2761C38.3429 23.2761 38.5995 23.2761 38.8194 23.2761C38.8194 23.523 38.8194 23.8052 38.8194 24.0874ZM40.0291 33.7875C39.8092 33.7875 39.5892 33.7875 39.3326 33.7875C39.3326 33.5053 39.3326 33.2584 39.3693 32.9762C39.5892 32.9762 39.8458 32.9762 40.0658 32.9762C40.0658 33.2584 40.0658 33.5053 40.0291 33.7875ZM40.1024 32.165C39.8825 32.165 39.6259 32.165 39.4059 32.165C39.4059 31.8828 39.4059 31.6359 39.4059 31.3537C39.6259 31.3537 39.8825 31.3537 40.1024 31.3537C40.1024 31.6359 40.1024 31.918 40.1024 32.165ZM40.1391 30.5777C39.9191 30.5777 39.6625 30.5777 39.4426 30.5777C39.4426 30.2955 39.4426 30.0486 39.4792 29.7664C39.6992 29.7664 39.9558 29.7664 40.1757 29.7664C40.1391 30.0133 40.1391 30.2955 40.1391 30.5777ZM40.1757 28.9551C39.9558 28.9551 39.6992 28.9551 39.4792 28.9551C39.4792 28.6729 39.4792 28.426 39.5159 28.1438C39.7725 28.1438 39.9924 28.1438 40.249 28.1438C40.2124 28.3907 40.1757 28.6729 40.1757 28.9551ZM40.2124 27.3325C39.9558 27.3325 39.7358 27.3325 39.4792 27.3325C39.4792 27.0503 39.4792 26.8034 39.4792 26.5212C39.7358 26.5212 39.9558 26.5212 40.2124 26.5212C40.249 26.8034 40.249 27.0503 40.2124 27.3325ZM40.2857 25.7099C40.0291 25.7099 39.8092 25.7099 39.5526 25.7099C39.5526 25.4277 39.5526 25.1808 39.5892 24.8986C39.8458 24.8986 40.0658 24.8986 40.3224 24.8986C40.2857 25.1808 40.2857 25.463 40.2857 25.7099ZM40.3224 24.1226C40.0658 24.1226 39.8458 24.1226 39.5892 24.1226C39.5892 23.8404 39.5892 23.5935 39.5892 23.3113C39.8458 23.3113 40.1024 23.3113 40.3224 23.3113C40.3224 23.5583 40.3224 23.8404 40.3224 24.1226ZM41.4221 33.8228C41.2021 33.8228 40.9822 33.8228 40.7256 33.7875C40.7256 33.5053 40.7622 33.2584 40.7622 32.9762C40.9822 32.9762 41.2388 32.9762 41.4587 33.0115C41.4587 33.2937 41.4587 33.5759 41.4221 33.8228ZM41.4954 32.2355C41.2754 32.2355 41.0188 32.2355 40.7989 32.2002C40.7989 31.918 40.8355 31.6711 40.8355 31.3889C41.0555 31.3889 41.3121 31.3889 41.532 31.4242C41.532 31.6711 41.4954 31.9533 41.4954 32.2355ZM41.5687 30.6129C41.3487 30.6129 41.0921 30.6129 40.8722 30.5777C40.8722 30.2955 40.9089 30.0486 40.9089 29.7664C41.1288 29.7664 41.3854 29.7664 41.6053 29.8016C41.5687 30.0486 41.5687 30.3307 41.5687 30.6129ZM41.642 28.9904C41.4221 28.9904 41.1655 28.9904 40.9455 28.9551C40.9455 28.6729 40.9822 28.426 40.9822 28.1438C41.2388 28.1438 41.4587 28.1438 41.7153 28.1791C41.642 28.4613 41.642 28.7082 41.642 28.9904ZM41.6787 27.3678C41.4221 27.3678 41.2021 27.3678 40.9455 27.3325C40.9455 27.0503 40.9822 26.8034 40.9822 26.5212C41.2388 26.5212 41.4587 26.5212 41.7153 26.5565C41.7153 26.8387 41.7153 27.1209 41.6787 27.3678ZM41.752 25.7805C41.4954 25.7805 41.2754 25.7805 41.0188 25.7452C41.0188 25.463 41.0555 25.2161 41.0555 24.9339C41.3121 24.9339 41.532 24.9339 41.7886 24.9692C41.7886 25.2161 41.752 25.4983 41.752 25.7805ZM41.8253 24.1579C41.5687 24.1579 41.3487 24.1226 41.0921 24.1226C41.0921 23.8404 41.1288 23.5935 41.1288 23.3113C41.3854 23.3113 41.642 23.3113 41.8619 23.3466C41.8619 23.5935 41.8253 23.8757 41.8253 24.1579ZM42.815 33.8934C42.5951 33.8934 42.3751 33.8581 42.1185 33.8581C42.1185 33.5759 42.1552 33.329 42.1552 33.0468C42.3751 33.0468 42.6317 33.0821 42.8517 33.0821C42.8517 33.3643 42.8517 33.6112 42.815 33.8934ZM42.925 32.2708C42.705 32.2708 42.4484 32.2355 42.2285 32.2355C42.2285 31.9533 42.2652 31.7064 42.2652 31.4242C42.4851 31.4242 42.7417 31.4595 42.9616 31.4595C42.925 31.7417 42.925 32.0239 42.925 32.2708ZM42.9983 30.6835C42.7784 30.6835 42.5218 30.6482 42.3018 30.6482C42.3018 30.366 42.3385 30.1191 42.3385 29.8369C42.5584 29.8369 42.815 29.8722 43.035 29.8722C43.035 30.1191 42.9983 30.4013 42.9983 30.6835ZM43.0716 29.0609C42.8517 29.0609 42.5951 29.0256 42.3751 29.0256C42.3751 28.7434 42.4118 28.4965 42.4118 28.2143C42.6684 28.2143 42.8883 28.2496 43.1449 28.2496C43.1083 28.4965 43.1083 28.7787 43.0716 29.0609ZM43.1449 27.4383C42.8883 27.4383 42.6684 27.4031 42.4118 27.4031C42.4118 27.1209 42.4485 26.874 42.4485 26.5918C42.705 26.5918 42.925 26.627 43.1816 26.627C43.1816 26.9092 43.1816 27.1561 43.1449 27.4383ZM43.2549 25.8158C42.9983 25.8158 42.7784 25.7805 42.5218 25.7805C42.5218 25.4983 42.5584 25.2514 42.5584 24.9692C42.815 24.9692 43.035 25.0045 43.2916 25.0045C43.2916 25.2867 43.2549 25.5688 43.2549 25.8158ZM43.3282 24.2284C43.0716 24.2284 42.8517 24.1932 42.5951 24.1932C42.5951 23.911 42.6317 23.6641 42.6317 23.3819C42.8883 23.3819 43.1449 23.4172 43.3649 23.4172C43.3649 23.6641 43.3282 23.9463 43.3282 24.2284ZM44.208 33.9639C43.988 33.9639 43.7681 33.9286 43.5115 33.9286C43.5115 33.6464 43.5482 33.3995 43.5482 33.1173C43.7681 33.1173 44.0247 33.1526 44.2446 33.1526C44.2446 33.4348 44.2446 33.6817 44.208 33.9639ZM44.318 32.3413C44.098 32.3413 43.8414 32.3061 43.6215 32.3061C43.6215 32.0239 43.6581 31.777 43.6581 31.4948C43.8781 31.4948 44.1347 31.53 44.3546 31.53C44.3546 31.8122 44.3546 32.0944 44.318 32.3413ZM44.4279 30.754C44.208 30.754 43.9514 30.7188 43.7314 30.7188C43.7314 30.4366 43.7681 30.1897 43.7681 29.9075C43.988 29.9075 44.2446 29.9427 44.4646 29.9427C44.4646 30.1897 44.4279 30.4718 44.4279 30.754ZM44.5379 29.1314C44.318 29.1314 44.0614 29.0962 43.8414 29.0962C43.8414 28.814 43.8781 28.5671 43.8781 28.2849C44.1347 28.2849 44.3546 28.3202 44.6112 28.3202C44.5745 28.6024 44.5379 28.8493 44.5379 29.1314ZM44.6479 27.5089C44.3913 27.5089 44.1713 27.4736 43.9147 27.4736C43.9147 27.1914 43.9514 26.9445 43.9514 26.6623C44.208 26.6623 44.4279 26.6976 44.6845 26.6976C44.6845 26.9798 44.6479 27.262 44.6479 27.5089ZM44.7212 25.9216C44.4646 25.9216 44.2446 25.8863 43.988 25.8863C43.988 25.6041 44.0247 25.3572 44.0247 25.075C44.2813 25.075 44.5012 25.1103 44.7578 25.1103C44.7578 25.3572 44.7578 25.6394 44.7212 25.9216ZM44.8311 24.299C44.5746 24.299 44.3546 24.2637 44.098 24.2637C44.098 23.9815 44.1347 23.7346 44.1347 23.4524C44.3913 23.4524 44.6479 23.4877 44.8678 23.4877C44.8678 23.7699 44.8678 24.0168 44.8311 24.299ZM45.6009 34.0697C45.381 34.0697 45.1611 34.0344 44.9045 34.0344C44.9411 33.7523 44.9411 33.5053 44.9778 33.2232C45.1977 33.2232 45.4543 33.2584 45.6743 33.2584C45.6376 33.5053 45.6376 33.7875 45.6009 34.0697ZM45.7476 32.4471C45.5276 32.4471 45.271 32.4119 45.0511 32.4119C45.0877 32.1297 45.0877 31.8828 45.1244 31.6006C45.3443 31.6006 45.6009 31.6359 45.8209 31.6359C45.7842 31.918 45.7476 32.165 45.7476 32.4471ZM45.8575 30.8246C45.6376 30.8246 45.381 30.7893 45.1611 30.7893C45.1977 30.5071 45.1977 30.2602 45.2344 29.978C45.4543 29.978 45.7109 30.0133 45.9309 30.0133C45.8942 30.2955 45.8575 30.5777 45.8575 30.8246ZM45.9675 29.2373C45.7476 29.2373 45.491 29.202 45.271 29.202C45.3077 28.9198 45.3077 28.6729 45.3443 28.3907C45.6009 28.3907 45.8209 28.426 46.0775 28.426C46.0042 28.6729 46.0042 28.9551 45.9675 29.2373ZM46.1141 27.6147C45.8575 27.6147 45.6376 27.5794 45.381 27.5794C45.4177 27.2972 45.4177 27.0503 45.4543 26.7681C45.7109 26.7681 45.9309 26.8034 46.1875 26.8034C46.1508 27.0856 46.1141 27.3325 46.1141 27.6147ZM46.2241 25.9921C45.9675 25.9921 45.7476 25.9568 45.491 25.9568C45.5276 25.6747 45.5276 25.4277 45.5643 25.1456C45.8209 25.1456 46.0408 25.1808 46.2974 25.1808C46.2608 25.463 46.2241 25.7452 46.2241 25.9921ZM46.3341 24.4048C46.0775 24.4048 45.8575 24.3695 45.6009 24.3695C45.6376 24.0874 45.6376 23.8404 45.6743 23.5583C45.9309 23.5583 46.1875 23.5935 46.4074 23.5935C46.3707 23.8404 46.3707 24.1226 46.3341 24.4048ZM46.9939 34.1755C46.774 34.1403 46.554 34.1403 46.2974 34.105C46.3341 33.8228 46.3341 33.5759 46.3707 33.2937C46.5907 33.2937 46.8106 33.329 47.0672 33.3643C47.0306 33.6112 47.0306 33.8934 46.9939 34.1755ZM47.1405 32.553C46.9206 32.5177 46.664 32.5177 46.444 32.4824C46.4807 32.2002 46.4807 31.9533 46.5174 31.6711C46.7373 31.7064 46.9939 31.7064 47.2138 31.7417C47.1772 32.0239 47.1772 32.2708 47.1405 32.553ZM47.2872 30.9304C47.0672 30.8951 46.8106 30.8951 46.5907 30.8598C46.6273 30.5777 46.6273 30.3307 46.664 30.0486C46.8839 30.0838 47.1405 30.0838 47.3605 30.1191C47.3238 30.4013 47.3238 30.6835 47.2872 30.9304ZM47.4338 29.3431C47.2138 29.3078 46.9572 29.3078 46.7373 29.2725C46.774 28.9904 46.774 28.7434 46.8106 28.4613C47.0672 28.4965 47.2872 28.4965 47.5438 28.5318C47.4704 28.7787 47.4338 29.0609 47.4338 29.3431ZM47.5804 27.7205C47.3238 27.6852 47.1039 27.6852 46.8473 27.65C46.8839 27.3678 46.8839 27.1209 46.9206 26.8387C47.1772 26.874 47.3971 26.874 47.6537 26.9092C47.6171 27.1914 47.5804 27.4736 47.5804 27.7205ZM47.6904 26.1332C47.4338 26.0979 47.2138 26.0979 46.9572 26.0627C46.9939 25.7805 46.9939 25.5336 47.0306 25.2514C47.2872 25.2867 47.5071 25.2867 47.7637 25.3219C47.7637 25.5688 47.727 25.851 47.6904 26.1332ZM47.837 24.5106C47.5804 24.4754 47.3605 24.4754 47.1039 24.4401C47.1405 24.1579 47.1405 23.911 47.1772 23.6288C47.4338 23.6641 47.6904 23.6641 47.9103 23.6993C47.9103 23.9815 47.8737 24.2285 47.837 24.5106ZM48.3869 34.2814C48.1669 34.2461 47.947 34.2461 47.6904 34.2108C47.727 33.9286 47.727 33.6817 47.7637 33.3995C47.9836 33.4348 48.2036 33.4348 48.4602 33.4701C48.4602 33.7523 48.4235 33.9992 48.3869 34.2814ZM48.5335 32.6941C48.3135 32.6588 48.057 32.6588 47.837 32.6235C47.8737 32.3413 47.8737 32.0944 47.9103 31.8122C48.1303 31.8475 48.3869 31.8475 48.6068 31.8828C48.6068 32.1297 48.5701 32.4119 48.5335 32.6941ZM48.7168 31.0715C48.4968 31.0362 48.2402 31.0362 48.0203 31.0009C48.057 30.7188 48.057 30.4718 48.0936 30.1897C48.3136 30.2249 48.5702 30.2249 48.7901 30.2602C48.7534 30.5424 48.7534 30.7893 48.7168 31.0715ZM48.8634 29.4489C48.6435 29.4136 48.3869 29.4136 48.1669 29.3784C48.2036 29.0962 48.2036 28.8493 48.2402 28.5671C48.4968 28.6023 48.7168 28.6023 48.9367 28.6376C48.9367 28.9198 48.9001 29.202 48.8634 29.4489ZM49.0467 27.8616C48.7901 27.8263 48.5702 27.8263 48.3136 27.7911C48.3502 27.5089 48.3502 27.262 48.3869 26.9798C48.6435 27.015 48.8634 27.015 49.12 27.0503C49.0833 27.2972 49.0467 27.5794 49.0467 27.8616ZM49.1933 26.239C48.9367 26.2038 48.7168 26.2038 48.4602 26.1685C48.4968 25.8863 48.4968 25.6394 48.5335 25.3572C48.7901 25.3925 49.01 25.3925 49.2666 25.4277C49.23 25.7099 49.23 25.9921 49.1933 26.239ZM49.3399 24.6517C49.0833 24.6165 48.8634 24.6165 48.6068 24.5812C48.6435 24.299 48.6435 24.0521 48.6801 23.7699C48.9367 23.8052 49.1933 23.8052 49.4133 23.8404C49.4133 24.0874 49.3766 24.3695 49.3399 24.6517ZM49.7798 34.4225C49.5599 34.3872 49.3399 34.3872 49.0833 34.3519C49.12 34.0697 49.1567 33.8228 49.1567 33.5406C49.3766 33.5759 49.5965 33.5759 49.8531 33.6112C49.8531 33.8934 49.8165 34.1403 49.7798 34.4225ZM49.9631 32.7999C49.7432 32.7646 49.4866 32.7646 49.2666 32.7293C49.3033 32.4471 49.3399 32.2002 49.3399 31.918C49.5599 31.9533 49.8165 31.9533 50.0364 31.9886C49.9998 32.2708 49.9998 32.553 49.9631 32.7999ZM50.1464 31.2126C49.9265 31.1773 49.6699 31.1773 49.4499 31.142C49.4866 30.8598 49.5232 30.6129 49.5232 30.3307C49.7432 30.366 49.9998 30.366 50.2197 30.4013C50.1831 30.6835 50.1831 30.9304 50.1464 31.2126ZM50.3297 29.59C50.1097 29.5547 49.8531 29.5547 49.6332 29.5195C49.6699 29.2373 49.7065 28.9904 49.7065 28.7082C49.9265 28.7434 50.1831 28.7434 50.403 28.7787C50.3663 29.0609 50.3297 29.3431 50.3297 29.59ZM50.513 28.0027C50.2564 27.9674 50.0364 27.9674 49.7798 27.9322C49.8165 27.65 49.8531 27.4031 49.8531 27.1209C50.1097 27.1561 50.3297 27.1561 50.5863 27.1914C50.5496 27.4736 50.513 27.7205 50.513 28.0027ZM50.6596 26.3801C50.403 26.3449 50.1831 26.3449 49.9265 26.3096C49.9631 26.0274 49.9998 25.7805 49.9998 25.4983C50.2564 25.5336 50.4763 25.5336 50.7329 25.5688C50.7329 25.851 50.6962 26.1332 50.6596 26.3801ZM50.8429 24.7928C50.5863 24.7576 50.3663 24.7576 50.1097 24.7223C50.1464 24.4401 50.1831 24.1932 50.1831 23.911C50.4396 23.9463 50.6596 23.9463 50.9162 23.9815C50.9162 24.2637 50.8795 24.5106 50.8429 24.7928Z" fill="white"/>
<path d="M58.1744 37.2444C56.0116 36.8564 53.8122 36.5389 51.6128 36.292C52.5292 29.3079 53.409 22.359 54.3254 15.4102C56.928 15.7276 59.494 16.1156 62.06 16.5389C60.777 23.4172 59.494 30.3308 58.1744 37.2444ZM52.5659 35.5865C54.2154 35.7982 55.865 36.0451 57.5145 36.3273C58.6876 29.9428 59.8239 23.523 60.997 17.1386C59.0908 16.8211 57.148 16.5389 55.2418 16.292C54.3254 22.7117 53.4456 29.1668 52.5659 35.5865Z" fill="white"/>
<path d="M58.0277 37.068C57.3679 36.9622 56.7447 36.8563 56.0849 36.7505C56.2315 35.9745 55.645 35.4454 54.6553 34.6694C53.6289 33.8581 52.3092 32.8704 52.5292 31.2126C52.7491 29.59 54.3253 28.8846 55.6083 28.3554C57.0013 27.7911 57.8811 27.3678 58.0277 26.486C58.1377 25.851 57.5145 25.3219 56.4514 24.5107C55.2051 23.5583 53.4822 22.3237 53.7388 20.2073C54.0321 17.9851 56.1582 17.2796 57.5878 16.8211C58.5409 16.5389 59.1274 16.3272 59.2007 16.045C59.9705 16.1509 60.7403 16.292 61.5101 16.4331C61.2535 17.8087 59.7139 18.2673 58.5042 18.62C57.038 19.0786 56.1582 19.4313 55.9749 20.4895C55.8283 21.5124 56.5981 22.1473 57.8811 23.0997C59.0541 23.9816 60.4837 25.1103 60.1538 26.8034C59.7872 28.7435 57.9544 29.4489 56.5248 30.0486C55.3517 30.5424 54.6553 30.8599 54.5819 31.4595C54.5086 32.0239 54.9485 32.4119 55.9383 33.1879C57.0013 34.0697 58.3943 35.2338 58.0277 37.068Z" fill="white"/>
<path d="M53.8486 36.433C53.1887 36.3272 52.5289 36.2567 51.9058 36.1861C52.1624 34.3166 53.8486 33.6112 55.0949 33.1526C56.2679 32.6941 56.8544 32.4472 56.9278 31.8828C57.0377 31.3184 56.4512 30.7893 55.4981 29.978C54.3251 28.9904 52.7855 27.7911 53.0421 25.851C53.2621 24.1579 54.9483 23.4524 56.3779 22.9586C57.8808 22.3942 58.8339 22.0415 59.0172 21.0186C59.2005 19.9251 58.4673 19.3607 57.1844 18.5142C56.158 17.8087 54.8017 16.9621 54.9849 15.5512C55.7547 15.657 56.5245 15.7628 57.2943 15.8687C57.2577 16.1861 57.7709 16.5389 58.5773 17.068C59.8236 17.9145 61.6565 19.2196 61.2166 21.4066C60.8134 23.4877 58.7606 24.1579 57.2943 24.7223C56.048 25.1808 55.2782 25.4983 55.2049 26.1332C55.0583 27.0151 55.7914 27.65 56.9278 28.6024C57.9908 29.4842 59.2738 30.6129 58.9805 32.2002C58.6506 33.8581 57.111 34.3872 55.9014 34.881C54.6917 35.3396 53.9585 35.657 53.8486 36.433Z" fill="white"/>
<path d="M57.8442 18.1615C55.0583 17.7382 52.9688 15.6218 53.2254 13.2937C53.482 10.9657 56.158 9.34312 59.1638 9.7664C62.1697 10.1897 64.2225 12.5177 63.746 14.8105C63.3061 17.1385 60.6301 18.5495 57.8442 18.1615ZM59.0539 10.5777C56.6345 10.225 54.4718 11.5301 54.2518 13.3996C54.0319 15.269 55.7181 17.0327 57.9908 17.3855C60.2636 17.7029 62.4263 16.5389 62.7929 14.6694C63.1594 12.7999 61.4732 10.9304 59.0539 10.5777Z" fill="white"/>
<path d="M62.3531 12.4821C59.9704 12.0942 57.6244 11.7415 55.2417 11.4241C55.2784 11.1773 55.315 10.8951 55.3517 10.6483C57.7344 10.9304 60.1537 11.2831 62.5364 11.7063C62.4265 11.9531 62.3898 12.2353 62.3531 12.4821Z" fill="white"/>
<path d="M63.1594 14.2104C60.0803 13.6462 57.0011 13.223 53.8853 12.835C53.9219 12.5881 53.9586 12.306 53.9952 12.0591C57.1111 12.4118 60.2269 12.8703 63.3061 13.4346C63.2694 13.6814 63.1961 13.9636 63.1594 14.2104Z" fill="white"/>
<path d="M62.8664 15.833C59.8238 15.304 56.7813 14.8455 53.7021 14.4929C53.7388 14.246 53.7755 13.9638 53.8121 13.717C56.8913 14.0696 59.9705 14.5281 63.013 15.0571C62.9397 15.3393 62.903 15.5861 62.8664 15.833Z" fill="white"/>
<path d="M55.4618 36.1861C55.1685 36.1509 54.9119 36.1156 54.6187 36.0803C55.5717 29.8369 56.5615 23.6288 57.5145 17.3854C57.8445 17.4207 58.1377 17.4913 58.4676 17.5265C57.4779 23.7346 56.4515 29.978 55.4618 36.1861Z" fill="white"/>
<path d="M-0.843262 41.0892C-0.843262 41.0892 -0.550007 40.9833 -0.0368102 40.7717C0.476386 40.5601 1.24618 40.2779 2.23592 39.8899C3.189 39.5019 4.43533 39.1491 5.86495 38.6906C6.56143 38.4789 7.33122 38.232 8.13768 38.0204C8.94413 37.8087 9.78724 37.6324 10.667 37.3855C11.1069 37.2796 11.5468 37.1738 12.0233 37.068C12.4998 36.9622 12.9397 36.8916 13.4529 36.7858C14.406 36.6094 15.3957 36.3978 16.4221 36.2214C17.4485 36.0451 18.5116 35.904 19.5746 35.7276C20.6743 35.5512 21.774 35.4101 22.9104 35.3043C24.0468 35.1985 25.1831 35.0574 26.3562 34.9516C27.5292 34.8458 28.7022 34.7752 29.9119 34.7047C30.4984 34.6694 31.1215 34.6341 31.7081 34.5989C32.2946 34.5636 32.9177 34.5636 33.5042 34.5636C34.7139 34.5283 35.9236 34.5283 37.1333 34.493C38.343 34.5283 39.5526 34.5283 40.7623 34.5636C41.3488 34.5636 41.972 34.5636 42.5585 34.5989C43.145 34.6341 43.7682 34.6694 44.3547 34.7047C45.5644 34.7752 46.7374 34.8458 47.9104 34.9516C49.0834 35.0574 50.2198 35.1985 51.3562 35.3043C52.4925 35.4101 53.5922 35.5512 54.6919 35.7276C55.755 35.904 56.818 36.0451 57.8444 36.2214C58.8708 36.3978 59.8605 36.6094 60.8136 36.7858C61.2902 36.8916 61.7667 36.9622 62.2432 37.068C62.7198 37.1738 63.1597 37.2796 63.5995 37.3855C64.4793 37.5971 65.3224 37.8087 66.1289 38.0204C66.9353 38.1967 67.6685 38.4789 68.3649 38.6906C69.7579 39.1139 71.0042 39.4666 71.994 39.8899C72.9837 40.2426 73.7535 40.5601 74.2667 40.7717C74.7799 40.9833 75.0732 41.0892 75.0732 41.0892C75.0732 41.0892 74.7799 41.0186 74.23 40.8775C73.6802 40.7364 72.8737 40.5601 71.8474 40.2779C71.5908 40.2073 71.3342 40.1368 71.0409 40.0662C70.7476 39.9957 70.4544 39.9604 70.1611 39.8899C69.538 39.7488 68.8781 39.6077 68.145 39.4666C66.7154 39.1491 65.1025 38.9022 63.3063 38.5848C62.8664 38.5142 62.4265 38.4437 61.95 38.3731C61.4734 38.3026 60.9969 38.2673 60.5204 38.1967C59.5673 38.0557 58.5776 37.9498 57.5512 37.8087C56.5248 37.6676 55.4617 37.5971 54.3987 37.4913C53.3356 37.3855 52.2359 37.2444 51.0995 37.2091C49.9998 37.1385 48.8635 37.068 47.6905 36.9622C47.104 36.9269 46.5174 36.9269 45.9676 36.8916C45.3811 36.8564 44.7946 36.8564 44.2081 36.8211C43.6215 36.7858 43.035 36.7858 42.4485 36.7505C41.862 36.7153 41.2755 36.7505 40.6523 36.7153C39.4793 36.7153 38.2696 36.68 37.06 36.68C35.8503 36.68 34.6773 36.7153 33.4676 36.7153C32.8811 36.7153 32.2946 36.7153 31.6714 36.7505C31.0849 36.7858 30.4984 36.8211 29.9119 36.8211C29.3254 36.8564 28.7388 36.8564 28.1523 36.8916C27.5658 36.9269 26.9793 36.9269 26.4295 36.9622C25.2931 37.0327 24.1567 37.1385 23.0204 37.2091C21.884 37.2796 20.821 37.4207 19.7213 37.4913C18.6582 37.5971 17.5952 37.6676 16.5688 37.8087C15.5424 37.9498 14.5526 38.0909 13.5996 38.1967C13.123 38.2673 12.6465 38.3026 12.1699 38.3731C11.6934 38.4437 11.2535 38.5142 10.8136 38.5848C9.0541 38.9022 7.40454 39.1139 6.01158 39.4666C5.3151 39.6077 4.61861 39.7488 3.99545 39.8899C3.70219 39.9604 3.37228 39.9957 3.11568 40.0662C2.82243 40.1368 2.56583 40.2073 2.30923 40.2779C1.28284 40.5601 0.476386 40.7364 -0.0734671 40.8775C-0.550007 41.0186 -0.843262 41.0892 -0.843262 41.0892Z" fill="white"/>
<path d="M12.1334 19.3255C11.7302 19.396 11.3636 19.4313 10.997 19.4313C10.6305 19.4313 10.3372 19.396 10.0806 19.3608L9.86066 18.1967C10.0439 18.232 10.1906 18.232 10.3372 18.2673C10.4838 18.2673 10.6671 18.3026 10.8137 18.3026C10.9604 18.3026 11.1436 18.3026 11.3269 18.3026C11.5102 18.3026 11.6935 18.2673 11.9134 18.232L11.6568 16.9269C11.4002 16.9269 11.1436 16.9269 10.8504 16.9269C10.5938 16.9269 10.3372 16.8563 10.1173 16.7858C9.89731 16.7153 9.71403 16.5742 9.53074 16.3978C9.38412 16.2214 9.27415 15.9745 9.20083 15.6571C9.16418 15.4101 9.16418 15.1632 9.20083 14.9516C9.27415 14.7399 9.38412 14.5283 9.53074 14.3519C9.67737 14.1756 9.89731 13.9992 10.1173 13.8934C10.3739 13.7523 10.6305 13.6465 10.9604 13.5407L10.9237 12.8705L11.8768 12.6941L11.9868 13.2937C12.28 13.2585 12.6099 13.2232 12.9032 13.2232C13.2331 13.2232 13.5263 13.2232 13.7829 13.2937L14.0029 14.4578C13.3431 14.3872 12.7199 14.3519 12.17 14.4225L12.4266 15.7276C12.6832 15.7276 12.9398 15.7276 13.2331 15.7629C13.4897 15.7981 13.7463 15.8334 13.9662 15.9392C14.1862 16.0451 14.3695 16.1509 14.5527 16.3272C14.6994 16.5036 14.8093 16.7505 14.8826 17.068C14.9926 17.5618 14.8827 17.9851 14.5527 18.3378C14.2595 18.6906 13.7463 18.9375 13.0865 19.1491L13.1964 19.7488L12.2434 19.9251L12.1334 19.3255ZM10.5571 15.3043C10.5938 15.4807 10.6671 15.5865 10.8137 15.6571C10.9604 15.7276 11.1803 15.7629 11.4369 15.7629L11.217 14.6341C10.9237 14.7047 10.7404 14.8105 10.6305 14.9163C10.5938 15.0221 10.5571 15.1632 10.5571 15.3043ZM13.5263 17.3149C13.4897 17.1385 13.4164 17.0327 13.2697 16.9622C13.1231 16.8916 12.9398 16.8563 12.6466 16.8563L12.8665 17.9498C13.3797 17.844 13.5997 17.5971 13.5263 17.3149Z" fill="white"/>
<path d="M41.3487 15.2691C40.8355 15.2338 40.3223 15.1632 39.8825 15.0574C39.4059 14.9516 39.0393 14.8458 38.7461 14.7047L38.8194 13.1879C39.0394 13.2585 39.2226 13.329 39.4059 13.3996C39.5892 13.4701 39.8091 13.5054 40.0291 13.5759C40.249 13.6112 40.469 13.6818 40.6889 13.6818C40.9089 13.717 41.1654 13.7523 41.4587 13.7523L41.532 12.0592C41.2021 11.9886 40.8722 11.9181 40.5423 11.8123C40.2124 11.7064 39.9191 11.6006 39.6625 11.4243C39.4059 11.2479 39.186 11.0363 39.0393 10.7541C38.8927 10.4719 38.8194 10.1544 38.8561 9.73114C38.8561 9.37841 38.966 9.09622 39.076 8.81403C39.2226 8.56712 39.4059 8.32021 39.6625 8.14384C39.9191 7.96747 40.2124 7.82638 40.5789 7.72056C40.9455 7.61474 41.3121 7.54419 41.752 7.50892L41.7886 6.69763L43.0716 6.76818L43.035 7.54419C43.4382 7.57947 43.8047 7.65001 44.208 7.72056C44.6112 7.79111 44.9778 7.89693 45.3077 8.03802L45.2344 9.55477C44.4279 9.27259 43.6581 9.09622 42.9616 9.02567L42.8883 10.7541C43.2182 10.8246 43.5481 10.8952 43.8781 11.001C44.208 11.1068 44.5012 11.2479 44.7578 11.4243C45.0144 11.6006 45.1977 11.8123 45.381 12.0945C45.5276 12.3766 45.6009 12.6941 45.5643 13.1174C45.5276 13.7876 45.271 14.2814 44.7578 14.6341C44.2446 14.9869 43.5848 15.1985 42.6684 15.2338L42.6317 16.0451L41.3487 15.9745V15.2691ZM40.5789 9.76642C40.5789 9.97806 40.6523 10.1544 40.7989 10.2602C40.9822 10.3661 41.2388 10.4719 41.5687 10.5424L41.642 9.06095C41.2388 9.09622 40.9822 9.16677 40.7989 9.27259C40.6523 9.41368 40.5789 9.55477 40.5789 9.76642ZM43.7314 13.1174C43.7314 12.9057 43.6581 12.7294 43.5115 12.6236C43.3649 12.5177 43.1083 12.4119 42.7784 12.3414L42.705 13.7876C43.3649 13.717 43.6948 13.5054 43.7314 13.1174Z" fill="white"/>
<path d="M67.1553 23.2056C66.8254 23.135 66.5322 23.0292 66.2389 22.9234C65.9457 22.8175 65.7257 22.7117 65.5791 22.5706L65.799 21.6183C65.909 21.6888 66.0556 21.7593 66.1656 21.8299C66.2756 21.9004 66.3856 21.9357 66.5322 22.0063C66.6422 22.0415 66.7888 22.1121 66.9354 22.1474C67.082 22.1826 67.2287 22.2179 67.4119 22.2884L67.6319 21.2302C67.4119 21.1597 67.2287 21.0892 67.0454 20.9833C66.8621 20.8775 66.6788 20.7717 66.5322 20.6306C66.3856 20.4895 66.2756 20.3484 66.2023 20.1368C66.129 19.9604 66.129 19.7135 66.2023 19.4666C66.2389 19.2549 66.3489 19.0786 66.4589 18.9375C66.5688 18.7964 66.7155 18.6553 66.8988 18.5847C67.082 18.4789 67.2653 18.4437 67.5219 18.4084C67.7419 18.3731 67.9985 18.3731 68.2917 18.4084L68.4017 17.9146L69.2081 18.0909L69.0982 18.5847C69.3548 18.6553 69.5747 18.7258 69.8313 18.8317C70.0879 18.9375 70.3078 19.0433 70.4911 19.1491L70.2712 20.1015C69.7946 19.8193 69.3181 19.6429 68.8782 19.5371L68.6216 20.5953C68.8416 20.6659 69.0249 20.7717 69.2081 20.8422C69.3914 20.9481 69.5747 21.0539 69.7213 21.195C69.868 21.3361 69.9779 21.4772 70.0146 21.6888C70.0879 21.8652 70.0879 22.1121 70.0146 22.359C69.9046 22.7823 69.6847 23.0645 69.3548 23.2408C68.9882 23.4172 68.5483 23.4877 67.9985 23.4172L67.8885 23.911L67.082 23.7347L67.1553 23.2056ZM67.2653 19.6429C67.2287 19.784 67.2653 19.8899 67.3386 19.9957C67.4486 20.1015 67.5952 20.172 67.7785 20.2779L67.9985 19.3608C67.7419 19.3255 67.5586 19.3608 67.4486 19.396C67.3753 19.4313 67.302 19.5371 67.2653 19.6429ZM68.8782 22.0768C68.9149 21.9357 68.8782 21.8299 68.8049 21.7241C68.7316 21.6183 68.585 21.5477 68.365 21.4772L68.1817 22.3943C68.585 22.4295 68.8416 22.3237 68.8782 22.0768Z" fill="white"/>
</g>
<defs>
<clipPath id="clip0_601_8866">
<rect width="75" height="40" fill="white" transform="translate(0 0.877502)"/>
</clipPath>
</defs>
</svg>
