<svg width="75" height="41" viewBox="0 0 75 41" fill="none" xmlns="http://www.w3.org/2000/svg">
<g clip-path="url(#clip0_601_9246)">
<path d="M19.6082 33.5613C19.6082 33.5613 19.1835 32.2378 19.3605 31.6863C19.5374 31.1349 19.4666 30.6937 19.4666 30.6937C19.4666 30.6937 18.2279 29.1496 18.3694 28.3775C18.511 27.6054 18.6526 26.576 20.4577 26.2452C22.2628 25.9143 24.2448 26.3187 24.9527 25.7672C25.6606 25.2157 27.0056 24.9216 27.2533 24.6643C27.5011 24.3702 28.3859 24.1128 28.5983 24.4437C28.8107 24.7746 29.377 25.2157 29.5893 25.4363C29.8017 25.6569 30.368 25.4731 30.4034 25.8407C30.4388 26.2084 30.2618 26.7966 29.9787 26.7231C29.6955 26.6496 28.9876 27.054 28.9876 27.054C28.9876 27.054 28.2798 27.7893 28.0674 27.8996C27.8904 28.0099 27.7135 29.3334 27.7135 29.3334C27.7135 29.3334 27.855 30.2893 27.8904 30.5099C27.9258 30.7672 27.9258 32.7157 27.9258 32.7157L27.3241 32.826L27.1472 30.9143L26.4747 30.5466L26.1915 31.6863L26.3685 32.9363H25.5898L25.1651 31.7231L25.0235 30.4731C25.0235 30.4731 23.4662 30.6937 23.183 30.6569C22.8999 30.6202 22.2628 30.804 22.2628 30.804C22.2628 30.804 22.0504 31.2084 21.7319 31.3187C21.4133 31.429 20.9886 31.7231 20.9886 31.7231L21.4841 33.304L20.5993 33.2672L20.1745 32.5319L19.6082 33.5613Z" fill="white"/>
<path d="M27.6073 24.7375C26.5809 23.745 28.1028 22.7158 28.1028 22.7158C28.1028 22.7158 27.4304 24.1126 28.209 24.6272" fill="white"/>
<path d="M54.2237 32.9353L54.6131 31.3915L54.5069 30.9504C54.5069 30.9504 54.6838 30.4358 54.8962 30.3255C55.0732 30.1784 55.3563 29.9947 55.3563 29.6271C55.3917 29.2595 55.4625 28.9287 54.9316 28.6346C54.4007 28.3405 51.2152 28.5611 51.2152 28.5611L50.6135 29.186L50.8259 30.399L51.0029 31.2812L50.9321 32.2001L51.1798 32.2369L51.3214 31.318L51.4276 30.6563L51.5338 31.465L51.4276 32.4942L51.7815 32.3472L51.8523 31.465L52.0293 30.9504L53.3743 30.9871L53.4804 31.6488L53.2681 32.6412H53.5158L53.8698 31.6855L53.9052 31.2812L54.1175 31.759L53.8698 32.9353H54.2237Z" fill="white"/>
<path d="M51.7815 28.6346C51.7815 28.6346 51.5338 28.6346 51.3922 28.4141C51.2506 28.1935 50.6489 27.5686 50.4719 27.6054C50.295 27.6054 49.8348 27.7157 49.6933 27.973C49.5517 28.2303 49.2332 28.5243 49.2332 28.5978C49.2332 28.6714 49.3393 28.8184 49.4809 28.8184C49.5871 28.8184 49.8349 28.5978 50.0118 28.6714C50.1888 28.7816 50.3304 28.8919 50.4366 29.1492C50.5427 29.4065 50.8259 30.0682 51.109 30.252C51.4276 30.4358 51.8877 29.0757 51.8877 29.0757L51.7815 28.6346Z" fill="white"/>
<path d="M50.1887 28.1568C50.1887 28.1568 49.8348 28.0465 49.8702 27.7892C49.9056 27.4951 50.4011 26.9805 50.8966 27.2746C51.3921 27.5686 51.3567 28.12 51.3567 28.12C51.3567 28.12 51.2151 28.1568 51.2151 28.0833C51.1797 28.0097 51.0382 27.6422 50.8258 27.5686C50.578 27.4951 50.3657 27.6054 50.4011 27.8259C50.4719 28.0465 50.6842 28.3038 50.6842 28.3038L50.1887 28.1568Z" fill="white"/>
<path d="M57.6198 33.9228C56.5728 33.7869 56.4419 33.1751 56.4419 33.1751C56.4419 33.1751 59.1248 19.3095 58.9285 18.9697C58.7322 18.6299 58.6667 18.29 58.3396 18.0861C58.0124 17.9502 56.8346 17.8822 56.4419 17.4064C56.0493 16.9306 55.6567 16.3869 55.6567 16.3869C55.6567 16.3869 55.3296 15.6392 55.0024 15.4353C54.6752 15.2314 53.89 14.4158 53.89 14.4158C53.89 14.4158 53.3011 14.008 52.9739 13.6002C52.6467 13.1924 52.0578 13.1924 51.8615 13.1924C51.6652 13.1924 51.2726 12.5807 51.5998 12.7166C51.927 12.8525 52.5813 13.0564 52.843 13.1924C53.1048 13.3283 53.89 14.076 54.2172 14.3478C54.6098 14.6197 55.1987 15.2314 55.3296 15.4353C55.4604 15.6392 56.1802 16.7267 56.7037 16.9306C57.1617 17.2025 57.8161 17.2705 58.0778 17.2705C58.3396 17.2705 58.4704 16.4549 57.9469 16.047C57.4235 15.6392 56.9654 15.7072 56.7691 15.7072C56.6383 15.7072 55.9839 15.5713 55.9839 15.5713C55.9839 15.5713 56.8346 15.3674 57.2926 15.2994C57.7506 15.2314 58.0778 15.5033 58.1433 15.0275C58.2087 14.6197 58.6013 14.4158 58.6013 14.4158C58.6013 14.4158 58.2741 15.1635 58.4704 15.5033C58.6013 15.8431 58.7976 16.6588 58.9285 16.9986C59.0593 17.3385 59.3865 17.6783 59.3865 17.6783C59.3865 17.6783 59.5174 15.3674 59.4519 15.0955C59.3865 14.8916 58.7322 13.7361 58.5359 13.6002C58.405 13.4642 57.6198 12.7846 57.0963 12.9885C56.5728 13.1924 56.0493 13.6681 55.6567 13.4642C55.6567 13.4642 55.4604 13.1244 55.7876 13.0564C56.1148 12.9885 57.0309 12.6486 57.4235 12.6486C57.8161 12.6486 58.5359 12.7846 58.5359 12.7846C58.5359 12.7846 58.7976 11.1533 58.7976 10.6775C58.7322 10.2697 58.863 9.72597 58.2741 9.38613C57.6852 9.04628 57.0963 9.04628 57.0963 9.04628L57.4889 8.70644C57.4889 8.70644 57.2272 8.09472 57.0963 7.68691C57.0309 7.21113 57.1617 6.73535 57.1617 6.73535C57.1617 6.73535 57.7506 8.63847 58.0124 8.84238C58.2741 9.04629 58.6667 9.59003 58.7976 9.86191C58.9285 10.0658 58.9939 10.6775 58.9939 11.5611C58.9939 12.4447 58.9939 13.0564 59.2556 13.5322C59.5174 14.076 59.6482 14.8236 59.91 14.8236C60.1717 14.8916 60.6952 14.2119 61.1532 13.5322C61.4804 12.9885 61.6113 12.7166 61.8076 12.3767C61.873 12.3088 61.9385 12.1728 62.0039 12.0369C62.3965 11.4932 62.3965 11.0853 62.92 11.0174C63.4435 10.9494 63.9015 10.7455 64.0978 10.6096C64.2941 10.4736 64.6213 10.5416 64.6213 10.5416C64.6213 10.5416 63.5089 11.2213 63.1817 11.4252C62.8545 11.5611 62.6582 11.6291 62.3311 12.2408C62.0039 12.8525 61.415 14.076 61.2841 14.2119C61.1532 14.3478 60.8261 14.6877 60.8261 14.8236C60.8261 14.9596 60.368 16.3189 60.368 16.5228C60.368 16.6588 60.5643 16.7267 61.0878 16.251C61.6113 15.7752 62.0693 16.0471 62.3311 16.115C62.5928 16.183 63.1163 16.4549 63.378 16.047C63.6398 15.6392 64.1632 15.2314 64.5558 14.9596C64.9485 14.6877 65.4065 14.4158 65.4719 14.1439C65.5374 13.8041 65.8645 13.7361 65.93 13.4642C65.9954 13.1244 65.7991 13.5322 65.8645 13.8041C65.8645 14.076 65.4065 14.8236 65.0793 15.0955C64.7522 15.3674 64.425 15.5033 64.2287 15.7752C63.9669 16.0471 63.6398 16.5908 63.6398 16.5908L64.425 16.7267L65.0139 16.7947C65.0139 16.7947 65.4065 17.2705 64.9484 17.1345C64.4904 17.0666 63.9669 17.0666 63.6398 17.0666C63.3126 16.9986 62.92 16.7947 62.5928 16.7267C62.2656 16.6588 61.9385 16.6588 61.7422 16.7267C61.5459 16.7947 61.7422 17.5424 61.6767 17.6783C61.6767 17.8142 61.3496 18.29 61.2841 18.426C61.2187 18.5619 61.2187 18.7658 61.2187 18.7658C61.2187 18.7658 62.2656 18.6299 63.0508 18.222C63.8361 17.8822 64.7521 17.5424 65.0139 17.4744C65.2102 17.4064 65.8645 17.0666 65.9954 16.8627C66.1263 16.6588 67.0424 16.3189 67.1732 16.183C67.3695 16.047 67.7621 15.5713 68.0239 15.4353C68.2202 15.2994 67.7621 16.3189 67.3695 16.5908C66.9769 16.8627 65.93 17.3385 65.93 17.3385C65.93 17.3385 66.1263 17.5424 66.388 17.5424C66.6498 17.5424 67.2387 17.6103 67.2387 17.6103C67.2387 17.6103 67.5658 17.8142 67.2387 17.8822C66.9115 17.9502 65.9954 17.9502 65.6682 18.0181C65.3411 18.0861 64.6213 18.0861 64.3595 18.222C64.1632 18.358 63.4435 18.426 63.1163 18.6299C62.8545 18.8338 61.415 19.3095 61.415 19.3095L60.8261 19.7853L58.7976 33.7189C58.7976 33.7189 58.7976 34.1267 57.6198 33.9228Z" fill="white"/>
<path d="M57.3793 17.8159C57.4543 17.2963 57.1095 16.8119 56.6092 16.7339C56.1089 16.656 55.6425 17.014 55.5675 17.5337C55.4925 18.0533 55.8372 18.5377 56.3375 18.6156C56.8379 18.6935 57.3043 18.3355 57.3793 17.8159Z" fill="white"/>
<path d="M55.9639 18.11C56.0389 17.5903 55.6942 17.1059 55.1939 17.0279C54.6936 16.9499 54.2271 17.3079 54.152 17.8275C54.077 18.3471 54.4217 18.8316 54.922 18.9096C55.4223 18.9876 55.8888 18.6296 55.9639 18.11Z" fill="white"/>
<path d="M54.9217 18.0172C54.9966 17.4975 54.6516 17.0132 54.1512 16.9354C53.6509 16.8576 53.1845 17.2159 53.1097 17.7355C53.0348 18.2552 53.3798 18.7395 53.8801 18.8173C54.3805 18.8951 54.8468 18.5368 54.9217 18.0172Z" fill="white"/>
<path d="M53.8694 17.6482C53.9443 17.1286 53.5994 16.6442 53.099 16.5665C52.5986 16.4887 52.1323 16.8469 52.0574 17.3666C51.9826 17.8862 52.3275 18.3705 52.8279 18.4483C53.3283 18.5261 53.7946 18.1679 53.8694 17.6482Z" fill="white"/>
<path d="M52.8062 17.7542C52.8811 17.2346 52.5361 16.7503 52.0358 16.6725C51.5354 16.5947 51.0691 16.9529 50.9942 17.4726C50.9193 17.9922 51.2643 18.4766 51.7646 18.5543C52.265 18.6321 52.7313 18.2739 52.8062 17.7542Z" fill="white"/>
<path d="M51.7753 17.2568C51.8503 16.7372 51.5055 16.2528 51.0052 16.1748C50.5049 16.0969 50.0385 16.455 49.9635 16.9746C49.8885 17.4942 50.2332 17.9786 50.7336 18.0565C51.2339 18.1345 51.7003 17.7764 51.7753 17.2568Z" fill="white"/>
<path d="M50.908 16.8198C50.983 16.3002 50.6383 15.8157 50.138 15.7378C49.6376 15.6598 49.1712 16.0178 49.0961 16.5374C49.0211 17.057 49.3658 17.5414 49.8661 17.6194C50.3664 17.6974 50.8329 17.3394 50.908 16.8198Z" fill="white"/>
<path d="M50.1894 15.9876C50.2644 15.468 49.9196 14.9836 49.4193 14.9056C48.919 14.8277 48.4525 15.1857 48.3775 15.7053C48.3025 16.225 48.6473 16.7094 49.1476 16.7873C49.6479 16.8652 50.1143 16.5072 50.1894 15.9876Z" fill="white"/>
<path d="M49.1183 15.4887C49.1933 14.9691 48.8486 14.4847 48.3482 14.4067C47.8479 14.3288 47.3815 14.6868 47.3065 15.2064C47.2315 15.726 47.5762 16.2105 48.0766 16.2884C48.5769 16.3663 49.0433 16.0083 49.1183 15.4887Z" fill="white"/>
<path d="M48.1078 14.6424C48.1828 14.1228 47.8381 13.6384 47.3377 13.5605C46.8374 13.4825 46.371 13.8406 46.296 14.3602C46.221 14.8798 46.5657 15.3642 47.0661 15.4421C47.5664 15.5201 48.0328 15.162 48.1078 14.6424Z" fill="white"/>
<path d="M47.9479 13.2017C48.0229 12.6821 47.6781 12.1977 47.1778 12.1197C46.6775 12.0418 46.2111 12.3999 46.1361 12.9195C46.0611 13.4391 46.4058 13.9235 46.9062 14.0014C47.4065 14.0793 47.8729 13.7213 47.9479 13.2017Z" fill="white"/>
<path d="M48.7897 11.8965C48.8647 11.3768 48.5199 10.8924 48.0196 10.8145C47.5193 10.7366 47.0529 11.0946 46.9779 11.6142C46.9029 12.1338 47.2476 12.6182 47.748 12.6962C48.2483 12.7741 48.7147 12.4161 48.7897 11.8965Z" fill="white"/>
<path d="M49.5149 10.7801C49.5898 10.2605 49.2449 9.77614 48.7445 9.69836C48.2441 9.62058 47.7778 9.9788 47.7029 10.4985C47.6281 11.0181 47.973 11.5024 48.4734 11.5802C48.9738 11.658 49.4401 11.2998 49.5149 10.7801Z" fill="white"/>
<path d="M49.6639 9.48104C49.7387 8.96138 49.3938 8.47707 48.8934 8.39929C48.3931 8.32151 47.9267 8.67972 47.8519 9.19938C47.777 9.71904 48.1219 10.2034 48.6223 10.2812C49.1227 10.3589 49.589 10.0007 49.6639 9.48104Z" fill="white"/>
<path d="M50.1099 8.41317C50.1848 7.89351 49.8398 7.4092 49.3395 7.33142C48.8391 7.25364 48.3728 7.61185 48.2979 8.13151C48.223 8.65117 48.568 9.1355 49.0684 9.21328C49.5687 9.29106 50.0351 8.93283 50.1099 8.41317Z" fill="white"/>
<path d="M51.2754 7.98891C51.3502 7.46925 51.0052 6.98498 50.5048 6.90725C50.0044 6.82952 49.5382 7.18778 49.4633 7.70744C49.3885 8.2271 49.7335 8.71139 50.2339 8.78911C50.7343 8.86684 51.2005 8.50857 51.2754 7.98891Z" fill="white"/>
<path d="M52.4001 8.249C52.4752 7.72939 52.1305 7.24494 51.6302 7.16695C51.1298 7.08896 50.6634 7.44697 50.5883 7.96658C50.5132 8.48619 50.858 8.97063 51.3583 9.04862C51.8586 9.12661 52.3251 8.76861 52.4001 8.249Z" fill="white"/>
<path d="M53.4551 9.62455C53.5301 9.10494 53.1854 8.62049 52.6851 8.5425C52.1848 8.46451 51.7183 8.82252 51.6432 9.34213C51.5682 9.86174 51.9129 10.3462 52.4132 10.4242C52.9136 10.5022 53.38 10.1442 53.4551 9.62455Z" fill="white"/>
<path d="M54.6081 9.27731C54.6829 8.75765 54.338 8.27337 53.8376 8.19564C53.3372 8.11791 52.8709 8.47618 52.7961 8.99584C52.7213 9.5155 53.0663 9.99978 53.5666 10.0775C54.067 10.1552 54.5333 9.79697 54.6081 9.27731Z" fill="white"/>
<path d="M55.1797 7.63577C55.2548 7.11616 54.91 6.63172 54.4097 6.55373C53.9094 6.47574 53.4429 6.83374 53.3679 7.35335C53.2928 7.87296 53.6375 8.35741 54.1378 8.4354C54.6382 8.51339 55.1046 8.15538 55.1797 7.63577Z" fill="white"/>
<path d="M55.1303 6.30791C55.2053 5.7883 54.8606 5.30391 54.3602 5.22599C53.8599 5.14807 53.3935 5.50612 53.3185 6.02573C53.2434 6.54533 53.5882 7.02972 54.0885 7.10764C54.5889 7.18557 55.0553 6.82752 55.1303 6.30791Z" fill="white"/>
<path d="M54.7514 5.26177C54.8264 4.74216 54.4817 4.25776 53.9813 4.17984C53.481 4.10191 53.0146 4.45998 52.9396 4.97958C52.8645 5.49919 53.2093 5.98358 53.7096 6.0615C54.21 6.13942 54.6764 5.78137 54.7514 5.26177Z" fill="white"/>
<path d="M56.075 5.44811C56.1499 4.92845 55.805 4.44415 55.3046 4.36638C54.8042 4.28862 54.3379 4.64684 54.263 5.1665C54.1881 5.68616 54.5331 6.17046 55.0335 6.24823C55.5338 6.32599 56.0002 5.96777 56.075 5.44811Z" fill="white"/>
<path d="M57.0517 4.71733C57.1267 4.19772 56.782 3.71334 56.2816 3.63541C55.7813 3.55749 55.3149 3.91554 55.2399 4.43515C55.1648 4.95476 55.5096 5.43915 56.0099 5.51707C56.5102 5.59499 56.9767 5.23694 57.0517 4.71733Z" fill="white"/>
<path d="M58.3863 4.74322C58.4612 4.22356 58.1163 3.73925 57.6159 3.66149C57.1155 3.58372 56.6492 3.94194 56.5743 4.4616C56.4994 4.98126 56.8444 5.46557 57.3447 5.54333C57.8451 5.6211 58.3114 5.26288 58.3863 4.74322Z" fill="white"/>
<path d="M61.9891 5.24212C62.064 4.72246 61.719 4.23815 61.2187 4.16039C60.7183 4.08262 60.252 4.44085 60.1771 4.96051C60.1022 5.48017 60.4471 5.96447 60.9475 6.04223C61.4479 6.12 61.9142 5.76178 61.9891 5.24212Z" fill="white"/>
<path d="M63.0874 6.05926C63.1625 5.53965 62.8178 5.05521 62.3175 4.97723C61.8171 4.89926 61.3507 5.25728 61.2756 5.77688C61.2005 6.29649 61.5452 6.78092 62.0456 6.8589C62.5459 6.93687 63.0123 6.57886 63.0874 6.05926Z" fill="white"/>
<path d="M64.3864 5.99547C64.4614 5.47586 64.1167 4.99146 63.6163 4.91354C63.116 4.83562 62.6496 5.19368 62.5746 5.71329C62.4995 6.23289 62.8443 6.71728 63.3446 6.79521C63.845 6.87313 64.3114 6.51508 64.3864 5.99547Z" fill="white"/>
<path d="M65.2148 5.50682C65.2898 4.98721 64.945 4.50281 64.4447 4.42489C63.9444 4.34697 63.478 4.70503 63.4029 5.22464C63.3279 5.74425 63.6727 6.22863 64.173 6.30656C64.6733 6.38448 65.1397 6.02643 65.2148 5.50682Z" fill="white"/>
<path d="M65.6984 7.20225C65.7735 6.68264 65.4287 6.19825 64.9284 6.12033C64.428 6.0424 63.9616 6.40046 63.8866 6.92006C63.8116 7.43967 64.1563 7.92407 64.6566 8.00199C65.157 8.07991 65.6234 7.72185 65.6984 7.20225Z" fill="white"/>
<path d="M66.0517 8.63107C66.1267 8.11146 65.7819 7.62705 65.2816 7.54912C64.7813 7.47118 64.3149 7.82923 64.2398 8.34884C64.1648 8.86845 64.5096 9.35285 65.0099 9.43079C65.5102 9.50872 65.9766 9.15068 66.0517 8.63107Z" fill="white"/>
<path d="M66.6969 9.991C66.7719 9.47139 66.4272 8.98698 65.9268 8.90904C65.4265 8.83111 64.9601 9.18916 64.8851 9.70877C64.8101 10.2284 65.1549 10.7128 65.6552 10.7907C66.1555 10.8686 66.6219 10.5106 66.6969 9.991Z" fill="white"/>
<path d="M67.5124 10.5497C67.5874 10.03 67.2426 9.54563 66.7423 9.4677C66.242 9.38976 65.7755 9.74781 65.7005 10.2674C65.6255 10.787 65.9703 11.2714 66.4706 11.3494C66.9709 11.4273 67.4373 11.0693 67.5124 10.5497Z" fill="white"/>
<path d="M68.6727 9.79258C68.7475 9.27292 68.4026 8.78859 67.9022 8.71081C67.4018 8.63303 66.9355 8.99126 66.8607 9.51092C66.7858 10.0306 67.1307 10.5149 67.6311 10.5927C68.1315 10.6705 68.5978 10.3122 68.6727 9.79258Z" fill="white"/>
<path d="M70.2152 9.49648C70.2903 8.97687 69.9455 8.49247 69.4452 8.41453C68.9448 8.3366 68.4784 8.69464 68.4034 9.21425C68.3284 9.73386 68.6732 10.2183 69.1735 10.2962C69.6738 10.3741 70.1402 10.0161 70.2152 9.49648Z" fill="white"/>
<path d="M71.1448 9.1561C71.2197 8.63644 70.8748 8.15213 70.3744 8.07435C69.874 7.99657 69.4077 8.35478 69.3328 8.87444C69.258 9.3941 69.6029 9.87842 70.1033 9.9562C70.6036 10.034 71.07 9.67577 71.1448 9.1561Z" fill="white"/>
<path d="M71.5042 10.4814C71.5791 9.96175 71.2341 9.47743 70.7338 9.39965C70.2334 9.32188 69.7671 9.68009 69.6922 10.1997C69.6173 10.7194 69.9623 11.2037 70.4626 11.2815C70.963 11.3593 71.4293 11.0011 71.5042 10.4814Z" fill="white"/>
<path d="M72.3581 11.3227C72.4331 10.803 72.0883 10.3186 71.588 10.2407C71.0877 10.1628 70.6213 10.5208 70.5462 11.0404C70.4712 11.56 70.816 12.0444 71.3163 12.1224C71.8166 12.2003 72.283 11.8423 72.3581 11.3227Z" fill="white"/>
<path d="M72.3777 12.8962C72.4527 12.3766 72.108 11.8922 71.6077 11.8142C71.1074 11.7362 70.6409 12.0942 70.5659 12.6138C70.4908 13.1334 70.8355 13.6178 71.3358 13.6958C71.8362 13.7738 72.3026 13.4158 72.3777 12.8962Z" fill="white"/>
<path d="M73.0595 14.2271C73.1345 13.7075 72.7897 13.2231 72.2894 13.1451C71.7891 13.0672 71.3227 13.4252 71.2476 13.9449C71.1726 14.4645 71.5174 14.9489 72.0177 15.0268C72.5181 15.1047 72.9845 14.7467 73.0595 14.2271Z" fill="white"/>
<path d="M73.171 15.6176C73.2461 15.098 72.9013 14.6136 72.401 14.5356C71.9006 14.4577 71.4342 14.8157 71.3592 15.3353C71.2842 15.855 71.629 16.3394 72.1293 16.4173C72.6296 16.4952 73.096 16.1372 73.171 15.6176Z" fill="white"/>
<path d="M73.1915 16.8305C73.2663 16.3108 72.9214 15.8265 72.421 15.7487C71.9206 15.6709 71.4543 16.0291 71.3795 16.5488C71.3046 17.0685 71.6495 17.5528 72.1499 17.6306C72.6503 17.7084 73.1166 17.3501 73.1915 16.8305Z" fill="white"/>
<path d="M72.9744 17.9897C73.0493 17.47 72.7043 16.9857 72.204 16.9079C71.7036 16.8301 71.2373 17.1883 71.1624 17.708C71.0875 18.2277 71.4325 18.712 71.9329 18.7898C72.4332 18.8675 72.8996 18.5093 72.9744 17.9897Z" fill="white"/>
<path d="M72.6066 18.8073C72.6816 18.2877 72.3368 17.8033 71.8365 17.7253C71.3362 17.6474 70.8698 18.0054 70.7948 18.5251C70.7197 19.0447 71.0645 19.5291 71.5648 19.607C72.0652 19.6849 72.5316 19.3269 72.6066 18.8073Z" fill="white"/>
<path d="M72.027 20.1801C72.102 19.6605 71.7572 19.1761 71.2569 19.0981C70.7566 19.0202 70.2902 19.3782 70.2152 19.8978C70.1402 20.4175 70.4849 20.9019 70.9853 20.9798C71.4856 21.0577 71.952 20.6997 72.027 20.1801Z" fill="white"/>
<path d="M71.2387 21.3512C71.3137 20.8315 70.9689 20.3471 70.4686 20.2692C69.9683 20.1913 69.5019 20.5493 69.4268 21.0689C69.3518 21.5885 69.6966 22.0729 70.1969 22.1509C70.6973 22.2288 71.1637 21.8708 71.2387 21.3512Z" fill="white"/>
<path d="M69.9533 21.092C70.0283 20.5723 69.6835 20.0879 69.1832 20.01C68.6829 19.9321 68.2165 20.2901 68.1414 20.8097C68.0664 21.3293 68.4112 21.8137 68.9115 21.8917C69.4119 21.9696 69.8783 21.6116 69.9533 21.092Z" fill="white"/>
<path d="M68.7552 21.4418C68.8301 20.9221 68.4851 20.4378 67.9847 20.36C67.4844 20.2823 67.018 20.6405 66.9432 21.1601C66.8683 21.6798 67.2132 22.1641 67.7136 22.2419C68.214 22.3197 68.6803 21.9615 68.7552 21.4418Z" fill="white"/>
<path d="M67.7737 21.9529C67.8486 21.4333 67.5037 20.9489 67.0033 20.8712C66.5029 20.7934 66.0366 21.1516 65.9617 21.6713C65.8869 22.1909 66.2318 22.6752 66.7322 22.753C67.2325 22.8308 67.6989 22.4726 67.7737 21.9529Z" fill="white"/>
<path d="M66.812 21.0802C66.8871 20.5606 66.5423 20.0762 66.042 19.9982C65.5417 19.9202 65.0753 20.2782 65.0002 20.7978C64.9251 21.3174 65.2698 21.8019 65.7702 21.8799C66.2705 21.9578 66.7369 21.5998 66.812 21.0802Z" fill="white"/>
<path d="M65.7392 20.0189C65.8142 19.4993 65.4694 19.0149 64.9691 18.9369C64.4688 18.859 64.0024 19.2171 63.9273 19.7367C63.8523 20.2563 64.1971 20.7407 64.6974 20.8186C65.1977 20.8965 65.6641 20.5385 65.7392 20.0189Z" fill="white"/>
<path d="M64.1532 20.2987C64.2282 19.7791 63.8835 19.2947 63.3831 19.2167C62.8828 19.1388 62.4164 19.4968 62.3414 20.0164C62.2664 20.536 62.6112 21.0205 63.1115 21.0984C63.6118 21.1763 64.0782 20.8183 64.1532 20.2987Z" fill="white"/>
<path d="M62.929 20.2509C63.0039 19.7312 62.6589 19.2469 62.1586 19.1691C61.6582 19.0913 61.1919 19.4496 61.117 19.9692C61.0421 20.4889 61.3871 20.9732 61.8875 21.051C62.3878 21.1288 62.8541 20.7706 62.929 20.2509Z" fill="white"/>
<path d="M61.9806 19.2346C62.0556 18.715 61.7109 18.2306 61.2105 18.1526C60.7102 18.0747 60.2438 18.4327 60.1688 18.9524C60.0938 19.472 60.4386 19.9564 60.9389 20.0343C61.4392 20.1122 61.9056 19.7542 61.9806 19.2346Z" fill="white"/>
<path d="M60.7708 18.5936C60.8457 18.0739 60.5007 17.5896 60.0004 17.5118C59.5 17.4341 59.0337 17.7923 58.9588 18.3119C58.8839 18.8316 59.2289 19.3159 59.7292 19.3937C60.2296 19.4715 60.6959 19.1133 60.7708 18.5936Z" fill="white"/>
<path d="M59.6275 18.4107C59.7024 17.891 59.3574 17.4067 58.8571 17.3289C58.3567 17.2511 57.8904 17.6094 57.8155 18.129C57.7406 18.6487 58.0856 19.133 58.5859 19.2108C59.0863 19.2886 59.5526 18.9303 59.6275 18.4107Z" fill="white"/>
<path d="M58.6008 18.0451C58.6756 17.5255 58.3306 17.0412 57.8303 16.9635C57.3299 16.8857 56.8636 17.244 56.7888 17.7637C56.714 18.2833 57.059 18.7676 57.5593 18.8453C58.0597 18.9231 58.526 18.5648 58.6008 18.0451Z" fill="white"/>
<path d="M49.5064 8.16257C49.5718 8.16257 50.8805 7.61882 51.3385 8.16257C51.862 8.63835 51.6003 8.84225 52.3855 9.31803C53.1707 9.72584 52.8435 10.0657 53.4324 9.386C54.0868 8.70631 54.0868 8.50241 54.2831 7.48288C54.4794 6.46335 54.2831 5.98757 54.9374 5.51179C55.5918 5.03601 56.5733 4.15242 57.4894 4.15242C58.4055 4.15242 58.2092 3.5407 59.4524 3.81257C60.6957 4.08445 60.8265 3.88054 61.35 4.8321C61.8735 5.71569 62.3316 6.12351 63.1168 6.05554C63.902 5.98757 63.9674 5.57976 64.4255 6.53132C64.9489 7.48288 64.5563 8.2985 65.5378 9.25006C66.5194 10.2016 66.3885 10.4735 66.8465 10.2016C67.3046 9.92975 68.2861 9.45397 69.1368 9.45397C69.9874 9.45397 70.6417 10.1337 71.1652 11.0852C71.6887 12.0368 72.0159 13.3282 72.0813 14.4157C72.1467 15.5032 72.2776 17.8141 71.885 18.7657C71.4924 19.7172 70.3146 21.1446 69.0713 21.2125C67.8281 21.2805 66.6502 21.4164 65.6687 20.8727C64.6872 20.3289 65.0144 19.9211 63.5748 19.8532C62.2007 19.8532 62.4624 20.3289 61.2846 19.4454C60.1068 18.5618 58.9944 18.2219 57.9474 17.95C56.9005 17.6782 57.0313 18.6297 54.1522 17.8821C51.2731 17.2024 51.2731 17.3383 50.4879 16.8625C49.7027 16.3188 49.2446 16.2508 48.5248 15.5032C47.8051 14.7555 47.0199 14.4836 47.0853 13.804C47.1507 13.1243 46.6927 13.0563 47.4125 12.1047C48.1322 11.1532 48.5903 10.2696 48.7212 9.45397C48.9829 8.77428 49.3101 8.23053 49.5064 8.16257Z" fill="white"/>
<path d="M38.2387 31.7639C38.7266 31.7639 38.8017 31.53 38.8017 31.53C38.8017 31.53 38.5014 25.1755 38.614 25.0586C38.7266 24.9416 38.7641 24.7857 38.9518 24.7077C39.1019 24.6687 39.6273 24.7077 39.8525 24.5518C40.0777 24.3958 40.2654 24.1619 40.2654 24.1619C40.2654 24.1619 40.453 23.8501 40.6032 23.7721C40.7533 23.6941 41.1661 23.4212 41.1661 23.4212C41.1661 23.4212 41.4664 23.2653 41.6165 23.1483C41.7666 22.9924 42.0293 23.0314 42.1419 23.0314C42.217 23.0314 42.4422 22.7975 42.2921 22.8365C42.1419 22.8754 41.8417 22.9144 41.7291 22.9534C41.6165 22.9924 41.2037 23.2653 41.016 23.3822C40.8283 23.4602 40.5281 23.6941 40.453 23.8111C40.378 23.889 40.0027 24.3179 39.7399 24.3958C39.5147 24.4738 39.2145 24.4738 39.1019 24.4348C38.9893 24.3958 38.9893 24.045 39.252 23.889C39.5147 23.7331 39.7024 23.8111 39.7775 23.8111C39.8525 23.8501 40.1152 23.8111 40.1152 23.8111C40.1152 23.8111 39.7399 23.6551 39.5523 23.5772C39.3646 23.4992 39.177 23.6162 39.177 23.4212C39.177 23.2263 39.0268 23.1094 39.0268 23.1094C39.0268 23.1094 39.1019 23.4602 39.0268 23.6162C38.9518 23.7721 38.8017 24.084 38.7266 24.2399C38.6515 24.3958 38.5014 24.5128 38.5014 24.5128C38.5014 24.5128 38.5765 23.4602 38.6515 23.3822C38.6891 23.3043 39.0644 22.8365 39.1394 22.7585C39.2145 22.7195 39.5898 22.4856 39.815 22.6026C40.0402 22.7195 40.2278 22.9924 40.4155 22.9144C40.4155 22.9144 40.5281 22.7585 40.378 22.7195C40.2278 22.6805 39.8525 22.4466 39.6649 22.4466C39.4772 22.4076 39.177 22.4076 39.177 22.4076C39.177 22.4076 39.1394 21.6669 39.2145 21.472C39.252 21.2771 39.252 21.0432 39.5147 20.9262C39.7775 20.8482 40.0777 20.8482 40.0777 20.8482L39.9276 20.6533C39.9276 20.6533 40.0777 20.4194 40.1528 20.2245C40.2278 20.0296 40.1903 19.7957 40.1903 19.7957C40.1903 19.7957 39.815 20.5753 39.6649 20.6533C39.5147 20.7313 39.3271 20.9262 39.252 21.0432C39.177 21.1211 39.1019 21.394 39.0644 21.7839C39.0268 22.1737 38.9893 22.4466 38.8392 22.6415C38.6891 22.8754 38.5765 23.1873 38.4639 23.1873C38.3513 23.1873 38.1261 22.8754 38.0135 22.5246C37.9009 22.2517 37.8634 22.1347 37.7883 21.9398C37.7508 21.9008 37.7508 21.8229 37.7132 21.7839C37.5631 21.511 37.6007 21.3161 37.3755 21.2381C37.1503 21.1601 36.9626 21.0432 36.8876 20.9652C36.8125 20.8872 36.6624 20.8872 36.6624 20.8872C36.6624 20.8872 37.1127 21.2771 37.2629 21.355C37.413 21.433 37.4881 21.472 37.6007 21.7839C37.7132 22.0568 37.9009 22.6415 37.9384 22.7195C37.976 22.7975 38.0886 22.9534 38.0886 23.0314C38.0886 23.1094 38.1636 23.7331 38.1636 23.8111C38.1636 23.889 38.0886 23.889 37.8634 23.6551C37.6382 23.4212 37.4505 23.4992 37.3379 23.4992C37.2253 23.4992 36.9626 23.5772 36.8876 23.4212C36.8125 23.2263 36.5873 22.9924 36.4372 22.8754C36.2871 22.7195 36.0994 22.6026 36.0994 22.4466C36.0994 22.2907 35.9493 22.2517 35.9493 22.0958C35.9117 21.9398 35.9868 22.1347 35.9868 22.2517C35.9493 22.3686 36.1369 22.7195 36.2495 22.8754C36.3621 23.0314 36.5122 23.1094 36.5873 23.2263C36.6624 23.3822 36.8125 23.6551 36.8125 23.6551H36.4747H36.212C36.212 23.6551 35.9868 23.8111 36.212 23.8111C36.4372 23.8111 36.6624 23.8501 36.8125 23.8501C36.9626 23.8501 37.1503 23.7721 37.3004 23.7721C37.4505 23.7721 37.5631 23.8111 37.6757 23.8501C37.7508 23.889 37.6382 24.2009 37.6382 24.2789C37.6382 24.3569 37.7508 24.5518 37.7883 24.6298C37.8258 24.7077 37.7883 24.7857 37.7883 24.7857C37.7883 24.7857 37.3379 24.6298 37.0377 24.4348C36.6999 24.2009 36.3246 24.006 36.212 23.967C36.1369 23.928 35.8742 23.7331 35.7992 23.6162C35.7616 23.5382 35.3863 23.3043 35.3112 23.2263C35.2362 23.1483 35.0861 22.9144 34.9735 22.8365C34.8984 22.7585 35.011 23.2653 35.1987 23.3822C35.3488 23.5382 35.7992 23.8111 35.7992 23.8111C35.7992 23.8111 35.7241 23.889 35.574 23.8501C35.4614 23.8111 35.1987 23.8111 35.1987 23.8111C35.1987 23.8111 35.0485 23.889 35.1611 23.928C35.3112 23.967 35.6866 24.045 35.8367 24.084C35.9868 24.123 36.2871 24.1619 36.3997 24.2399C36.4747 24.3179 36.8125 24.3958 36.9251 24.5128C37.0377 24.5908 37.6382 24.9416 37.6382 24.9416L37.8634 25.1755L37.9009 31.4911C37.7132 31.569 37.6757 31.7639 38.2387 31.7639Z" fill="white"/>
<path d="M39.7784 25.0585C40.0064 25.0582 40.191 24.866 40.1907 24.6292C40.1904 24.3924 40.0054 24.2007 39.7773 24.201C39.5493 24.2013 39.3647 24.3935 39.365 24.6303C39.3653 24.8671 39.5504 25.0588 39.7784 25.0585Z" fill="white"/>
<path d="M40.3784 25.2534C40.6064 25.2534 40.7913 25.0614 40.7913 24.8246C40.7913 24.5878 40.6064 24.3959 40.3784 24.3959C40.1504 24.3959 39.9656 24.5878 39.9656 24.8246C39.9656 25.0614 40.1504 25.2534 40.3784 25.2534Z" fill="white"/>
<path d="M40.8662 25.2924C41.0942 25.2924 41.2791 25.1004 41.2791 24.8636C41.2791 24.6268 41.0942 24.4349 40.8662 24.4349C40.6382 24.4349 40.4534 24.6268 40.4534 24.8636C40.4534 25.1004 40.6382 25.2924 40.8662 25.2924Z" fill="white"/>
<path d="M41.3538 25.2144C41.5818 25.2144 41.7666 25.0224 41.7666 24.7856C41.7666 24.5488 41.5818 24.3569 41.3538 24.3569C41.1258 24.3569 40.9409 24.5488 40.9409 24.7856C40.9409 25.0224 41.1258 25.2144 41.3538 25.2144Z" fill="white"/>
<path d="M41.8044 25.3313C42.0325 25.3313 42.2173 25.1394 42.2173 24.9026C42.2173 24.6658 42.0325 24.4738 41.8044 24.4738C41.5764 24.4738 41.3916 24.6658 41.3916 24.9026C41.3916 25.1394 41.5764 25.3313 41.8044 25.3313Z" fill="white"/>
<path d="M42.2926 25.1754C42.5206 25.1751 42.7052 24.9829 42.7049 24.7461C42.7046 24.5093 42.5195 24.3176 42.2915 24.3179C42.0635 24.3182 41.8789 24.5104 41.8792 24.7472C41.8795 24.984 42.0646 25.1757 42.2926 25.1754Z" fill="white"/>
<path d="M42.7051 25.0194C42.9331 25.0194 43.1179 24.8275 43.1179 24.5907C43.1179 24.3539 42.9331 24.1619 42.7051 24.1619C42.4771 24.1619 42.2922 24.3539 42.2922 24.5907C42.2922 24.8275 42.4771 25.0194 42.7051 25.0194Z" fill="white"/>
<path d="M43.0806 24.7076C43.3086 24.7076 43.4934 24.5157 43.4934 24.2789C43.4934 24.0421 43.3086 23.8501 43.0806 23.8501C42.8526 23.8501 42.6677 24.0421 42.6677 24.2789C42.6677 24.5157 42.8526 24.7076 43.0806 24.7076Z" fill="white"/>
<path d="M43.6062 24.5907C43.8342 24.5907 44.019 24.3987 44.019 24.1619C44.019 23.9251 43.8342 23.7332 43.6062 23.7332C43.3782 23.7332 43.1934 23.9251 43.1934 24.1619C43.1934 24.3987 43.3782 24.5907 43.6062 24.5907Z" fill="white"/>
<path d="M44.0938 24.2788C44.3218 24.2788 44.5066 24.0868 44.5066 23.85C44.5066 23.6132 44.3218 23.4213 44.0938 23.4213C43.8657 23.4213 43.6809 23.6132 43.6809 23.85C43.6809 24.0868 43.8657 24.2788 44.0938 24.2788Z" fill="white"/>
<path d="M44.2816 23.616C44.5096 23.6157 44.6942 23.4235 44.6939 23.1867C44.6936 22.9499 44.5085 22.7582 44.2805 22.7585C44.0525 22.7588 43.8679 22.9511 43.8682 23.1878C43.8685 23.4246 44.0536 23.6163 44.2816 23.616Z" fill="white"/>
<path d="M43.9438 23.0312C44.1719 23.0312 44.3567 22.8393 44.3567 22.6025C44.3567 22.3657 44.1719 22.1737 43.9438 22.1737C43.7158 22.1737 43.531 22.3657 43.531 22.6025C43.531 22.8393 43.7158 23.0312 43.9438 23.0312Z" fill="white"/>
<path d="M43.7183 22.4464C43.9463 22.4464 44.1311 22.2545 44.1311 22.0177C44.1311 21.7809 43.9463 21.5889 43.7183 21.5889C43.4903 21.5889 43.3054 21.7809 43.3054 22.0177C43.3054 22.2545 43.4903 22.4464 43.7183 22.4464Z" fill="white"/>
<path d="M43.7556 21.8617C43.9836 21.8617 44.1685 21.6698 44.1685 21.433C44.1685 21.1962 43.9836 21.0042 43.7556 21.0042C43.5276 21.0042 43.3428 21.1962 43.3428 21.433C43.3428 21.6698 43.5276 21.8617 43.7556 21.8617Z" fill="white"/>
<path d="M43.6062 21.3549C43.8342 21.3549 44.019 21.1629 44.019 20.9261C44.019 20.6893 43.8342 20.4974 43.6062 20.4974C43.3782 20.4974 43.1934 20.6893 43.1934 20.9261C43.1934 21.1629 43.3782 21.3549 43.6062 21.3549Z" fill="white"/>
<path d="M43.1179 21.082C43.3459 21.082 43.5308 20.89 43.5308 20.6532C43.5308 20.4164 43.3459 20.2245 43.1179 20.2245C42.8899 20.2245 42.7051 20.4164 42.7051 20.6532C42.7051 20.89 42.8899 21.082 43.1179 21.082Z" fill="white"/>
<path d="M42.592 21.1599C42.82 21.1599 43.0049 20.968 43.0049 20.7312C43.0049 20.4944 42.82 20.3024 42.592 20.3024C42.364 20.3024 42.1792 20.4944 42.1792 20.7312C42.1792 20.968 42.364 21.1599 42.592 21.1599Z" fill="white"/>
<path d="M42.0295 21.6668C42.2575 21.6668 42.4424 21.4748 42.4424 21.238C42.4424 21.0012 42.2575 20.8093 42.0295 20.8093C41.8015 20.8093 41.6167 21.0012 41.6167 21.238C41.6167 21.4748 41.8015 21.6668 42.0295 21.6668Z" fill="white"/>
<path d="M41.542 21.4328C41.77 21.4328 41.9548 21.2409 41.9548 21.0041C41.9548 20.7673 41.77 20.5753 41.542 20.5753C41.314 20.5753 41.1292 20.7673 41.1292 21.0041C41.1292 21.2409 41.314 21.4328 41.542 21.4328Z" fill="white"/>
<path d="M41.3916 20.6532C41.6196 20.6532 41.8044 20.4612 41.8044 20.2244C41.8044 19.9876 41.6196 19.7957 41.3916 19.7957C41.1636 19.7957 40.9788 19.9876 40.9788 20.2244C40.9788 20.4612 41.1636 20.6532 41.3916 20.6532Z" fill="white"/>
<path d="M41.5045 20.0683C41.7325 20.068 41.9171 19.8757 41.9168 19.6389C41.9165 19.4022 41.7314 19.2104 41.5034 19.2107C41.2754 19.2111 41.0908 19.4033 41.0911 19.6401C41.0914 19.8769 41.2765 20.0686 41.5045 20.0683Z" fill="white"/>
<path d="M41.7671 19.6394C41.9951 19.6394 42.1799 19.4475 42.1799 19.2107C42.1799 18.9739 41.9951 18.7819 41.7671 18.7819C41.5391 18.7819 41.3542 18.9739 41.3542 19.2107C41.3542 19.4475 41.5391 19.6394 41.7671 19.6394Z" fill="white"/>
<path d="M41.1287 19.6394C41.3567 19.6394 41.5415 19.4475 41.5415 19.2107C41.5415 18.9739 41.3567 18.7819 41.1287 18.7819C40.9007 18.7819 40.7158 18.9739 40.7158 19.2107C40.7158 19.4475 40.9007 19.6394 41.1287 19.6394Z" fill="white"/>
<path d="M40.7537 19.2497C40.9817 19.2497 41.1665 19.0578 41.1665 18.821C41.1665 18.5842 40.9817 18.3922 40.7537 18.3922C40.5257 18.3922 40.3408 18.5842 40.3408 18.821C40.3408 19.0578 40.5257 19.2497 40.7537 19.2497Z" fill="white"/>
<path d="M40.1533 19.1717C40.3813 19.1717 40.5662 18.9798 40.5662 18.743C40.5662 18.5062 40.3813 18.3142 40.1533 18.3142C39.9253 18.3142 39.7405 18.5062 39.7405 18.743C39.7405 18.9798 39.9253 19.1717 40.1533 19.1717Z" fill="white"/>
<path d="M38.5391 19.1328C38.7671 19.1328 38.9519 18.9408 38.9519 18.704C38.9519 18.4672 38.7671 18.2753 38.5391 18.2753C38.3111 18.2753 38.1262 18.4672 38.1262 18.704C38.1262 18.9408 38.3111 19.1328 38.5391 19.1328Z" fill="white"/>
<path d="M37.9761 19.4445C38.2041 19.4445 38.3889 19.2526 38.3889 19.0158C38.3889 18.779 38.2041 18.587 37.9761 18.587C37.7481 18.587 37.5632 18.779 37.5632 19.0158C37.5632 19.2526 37.7481 19.4445 37.9761 19.4445Z" fill="white"/>
<path d="M37.4137 19.3277C37.6417 19.3273 37.8263 19.1351 37.826 18.8983C37.8257 18.6615 37.6406 18.4698 37.4126 18.4701C37.1846 18.4705 37 18.6627 37.0003 18.8995C37.0006 19.1363 37.1857 19.328 37.4137 19.3277Z" fill="white"/>
<path d="M37.076 19.0158C37.304 19.0155 37.4886 18.8233 37.4883 18.5865C37.488 18.3497 37.303 18.158 37.075 18.1583C36.8469 18.1586 36.6623 18.3508 36.6626 18.5876C36.6629 18.8244 36.848 19.0161 37.076 19.0158Z" fill="white"/>
<path d="M36.7751 19.7564C37.0032 19.7564 37.188 19.5645 37.188 19.3277C37.188 19.0909 37.0032 18.8989 36.7751 18.8989C36.5471 18.8989 36.3623 19.0909 36.3623 19.3277C36.3623 19.5645 36.5471 19.7564 36.7751 19.7564Z" fill="white"/>
<path d="M36.5122 20.38C36.7402 20.38 36.9251 20.1881 36.9251 19.9513C36.9251 19.7145 36.7402 19.5225 36.5122 19.5225C36.2842 19.5225 36.0994 19.7145 36.0994 19.9513C36.0994 20.1881 36.2842 20.38 36.5122 20.38Z" fill="white"/>
<path d="M36.1372 20.9261C36.3652 20.9261 36.5501 20.7341 36.5501 20.4973C36.5501 20.2605 36.3652 20.0685 36.1372 20.0685C35.9092 20.0685 35.7244 20.2605 35.7244 20.4973C35.7244 20.7341 35.9092 20.9261 36.1372 20.9261Z" fill="white"/>
<path d="M35.7617 21.1209C35.9897 21.1209 36.1746 20.929 36.1746 20.6922C36.1746 20.4554 35.9897 20.2634 35.7617 20.2634C35.5337 20.2634 35.3489 20.4554 35.3489 20.6922C35.3489 20.929 35.5337 21.1209 35.7617 21.1209Z" fill="white"/>
<path d="M35.2739 20.6921C35.5019 20.6921 35.6868 20.5001 35.6868 20.2633C35.6868 20.0266 35.5019 19.8346 35.2739 19.8346C35.0459 19.8346 34.8611 20.0266 34.8611 20.2633C34.8611 20.5001 35.0459 20.6921 35.2739 20.6921Z" fill="white"/>
<path d="M34.5992 20.458C34.8272 20.4577 35.0118 20.2655 35.0115 20.0287C35.0112 19.7919 34.8262 19.6001 34.5981 19.6005C34.3701 19.6008 34.1855 19.793 34.1858 20.0298C34.1861 20.2666 34.3712 20.4583 34.5992 20.458Z" fill="white"/>
<path d="M34.2231 20.2631C34.4512 20.2631 34.636 20.0711 34.636 19.8343C34.636 19.5975 34.4512 19.4056 34.2231 19.4056C33.9951 19.4056 33.8103 19.5975 33.8103 19.8343C33.8103 20.0711 33.9951 20.2631 34.2231 20.2631Z" fill="white"/>
<path d="M33.96 20.809C34.188 20.809 34.3728 20.6171 34.3728 20.3803C34.3728 20.1435 34.188 19.9515 33.96 19.9515C33.732 19.9515 33.5471 20.1435 33.5471 20.3803C33.5471 20.6171 33.732 20.809 33.96 20.809Z" fill="white"/>
<path d="M33.5476 21.1209C33.7756 21.1209 33.9605 20.929 33.9605 20.6922C33.9605 20.4554 33.7756 20.2634 33.5476 20.2634C33.3196 20.2634 33.1348 20.4554 33.1348 20.6922C33.1348 20.929 33.3196 21.1209 33.5476 21.1209Z" fill="white"/>
<path d="M33.3972 21.8227C33.6252 21.8227 33.8101 21.6307 33.8101 21.3939C33.8101 21.1571 33.6252 20.9651 33.3972 20.9651C33.1692 20.9651 32.9844 21.1571 32.9844 21.3939C32.9844 21.6307 33.1692 21.8227 33.3972 21.8227Z" fill="white"/>
<path d="M33.022 22.3685C33.25 22.3685 33.4348 22.1765 33.4348 21.9397C33.4348 21.7029 33.25 21.511 33.022 21.511C32.794 21.511 32.6091 21.7029 32.6091 21.9397C32.6091 22.1765 32.794 22.3685 33.022 22.3685Z" fill="white"/>
<path d="M32.8721 22.9533C33.1001 22.9533 33.2849 22.7613 33.2849 22.5245C33.2849 22.2877 33.1001 22.0958 32.8721 22.0958C32.6441 22.0958 32.4592 22.2877 32.4592 22.5245C32.4592 22.7613 32.6441 22.9533 32.8721 22.9533Z" fill="white"/>
<path d="M32.8347 23.5381C33.0627 23.5381 33.2476 23.3461 33.2476 23.1093C33.2476 22.8725 33.0627 22.6805 32.8347 22.6805C32.6067 22.6805 32.4219 22.8725 32.4219 23.1093C32.4219 23.3461 32.6067 23.5381 32.8347 23.5381Z" fill="white"/>
<path d="M32.8347 24.0448C33.0627 24.0448 33.2476 23.8529 33.2476 23.6161C33.2476 23.3793 33.0627 23.1873 32.8347 23.1873C32.6067 23.1873 32.4219 23.3793 32.4219 23.6161C32.4219 23.8529 32.6067 24.0448 32.8347 24.0448Z" fill="white"/>
<path d="M32.9468 24.4347C33.1748 24.4347 33.3596 24.2427 33.3596 24.0059C33.3596 23.7691 33.1748 23.5771 32.9468 23.5771C32.7188 23.5771 32.5339 23.7691 32.5339 24.0059C32.5339 24.2427 32.7188 24.4347 32.9468 24.4347Z" fill="white"/>
<path d="M33.1348 25.0974C33.3628 25.0974 33.5476 24.9055 33.5476 24.6687C33.5476 24.4319 33.3628 24.2399 33.1348 24.2399C32.9068 24.2399 32.7219 24.4319 32.7219 24.6687C32.7219 24.9055 32.9068 25.0974 33.1348 25.0974Z" fill="white"/>
<path d="M33.3972 25.6432C33.6252 25.6432 33.8101 25.4513 33.8101 25.2145C33.8101 24.9777 33.6252 24.7857 33.3972 24.7857C33.1692 24.7857 32.9844 24.9777 32.9844 25.2145C32.9844 25.4513 33.1692 25.6432 33.3972 25.6432Z" fill="white"/>
<path d="M33.9605 25.6433C34.1886 25.643 34.3731 25.4508 34.3729 25.214C34.3726 24.9772 34.1875 24.7855 33.9595 24.7858C33.7315 24.7861 33.5469 24.9783 33.5472 25.2151C33.5475 25.4519 33.7325 25.6436 33.9605 25.6433Z" fill="white"/>
<path d="M34.5243 25.8772C34.7523 25.8769 34.9369 25.6846 34.9366 25.4478C34.9363 25.2111 34.7512 25.0193 34.5232 25.0196C34.2952 25.02 34.1106 25.2122 34.1109 25.449C34.1112 25.6858 34.2963 25.8775 34.5243 25.8772Z" fill="white"/>
<path d="M34.8989 26.189C35.1269 26.189 35.3118 25.997 35.3118 25.7602C35.3118 25.5234 35.1269 25.3315 34.8989 25.3315C34.6709 25.3315 34.4861 25.5234 34.4861 25.7602C34.4861 25.997 34.6709 26.189 34.8989 26.189Z" fill="white"/>
<path d="M35.3865 25.8382C35.6145 25.8382 35.7993 25.6462 35.7993 25.4094C35.7993 25.1726 35.6145 24.9807 35.3865 24.9807C35.1585 24.9807 34.9736 25.1726 34.9736 25.4094C34.9736 25.6462 35.1585 25.8382 35.3865 25.8382Z" fill="white"/>
<path d="M35.9127 25.4483C36.1407 25.448 36.3253 25.2558 36.325 25.019C36.3247 24.7822 36.1396 24.5905 35.9116 24.5908C35.6836 24.5911 35.499 24.7833 35.4993 25.0201C35.4996 25.2569 35.6847 25.4486 35.9127 25.4483Z" fill="white"/>
<path d="M36.5874 25.6822C36.8154 25.6822 37.0002 25.4902 37.0002 25.2534C37.0002 25.0166 36.8154 24.8246 36.5874 24.8246C36.3594 24.8246 36.1746 25.0166 36.1746 25.2534C36.1746 25.4902 36.3594 25.6822 36.5874 25.6822Z" fill="white"/>
<path d="M37.1504 25.7602C37.3784 25.7602 37.5632 25.5682 37.5632 25.3314C37.5632 25.0946 37.3784 24.9026 37.1504 24.9026C36.9224 24.9026 36.7375 25.0946 36.7375 25.3314C36.7375 25.5682 36.9224 25.7602 37.1504 25.7602Z" fill="white"/>
<path d="M37.639 25.3703C37.8671 25.37 38.0516 25.1778 38.0513 24.941C38.051 24.7042 37.8659 24.5125 37.6379 24.5128C37.4099 24.5131 37.2253 24.7053 37.2257 24.9421C37.226 25.1789 37.411 25.3706 37.639 25.3703Z" fill="white"/>
<path d="M38.2012 25.1364C38.4292 25.1364 38.614 24.9444 38.614 24.7076C38.614 24.4708 38.4292 24.2789 38.2012 24.2789C37.9732 24.2789 37.7883 24.4708 37.7883 24.7076C37.7883 24.9444 37.9732 25.1364 38.2012 25.1364Z" fill="white"/>
<path d="M38.7268 25.1754C38.9548 25.1754 39.1397 24.9834 39.1397 24.7466C39.1397 24.5098 38.9548 24.3179 38.7268 24.3179C38.4988 24.3179 38.314 24.5098 38.314 24.7466C38.314 24.9834 38.4988 25.1754 38.7268 25.1754Z" fill="white"/>
<path d="M39.2148 25.0584C39.4429 25.0584 39.6277 24.8665 39.6277 24.6297C39.6277 24.3929 39.4429 24.2009 39.2148 24.2009C38.9868 24.2009 38.802 24.3929 38.802 24.6297C38.802 24.8665 38.9868 25.0584 39.2148 25.0584Z" fill="white"/>
<path d="M43.4559 20.8873C43.4184 20.8873 42.8929 20.5754 42.6302 20.7703C42.3675 20.9652 42.4801 21.0822 42.1048 21.1991C41.7295 21.3161 41.8796 21.472 41.6169 21.1601C41.3917 20.8093 41.3917 20.7313 41.3542 20.2635C41.3542 19.7957 41.4292 19.6008 41.1665 19.3279C40.9038 19.094 40.5285 18.6261 40.1156 18.5482C39.7028 18.4702 39.8154 18.2363 39.2524 18.2753C38.6894 18.3143 38.6519 18.2363 38.3517 18.5872C38.0514 18.938 37.8638 19.094 37.4884 19.016C37.1131 18.938 37.1507 18.7431 36.8504 19.1329C36.5877 19.5228 36.6628 19.9126 36.1749 20.2635C35.6869 20.6144 35.7245 20.7703 35.5368 20.6144C35.3492 20.4584 34.9363 20.1855 34.561 20.1076C34.1857 20.0296 33.8479 20.3025 33.5477 20.6923C33.2474 21.0822 33.0598 21.628 32.9096 22.0958C32.797 22.6026 32.6094 23.5772 32.722 24.045C32.8346 24.5128 33.2474 25.2146 33.8104 25.3315C34.3358 25.4485 34.8613 25.6044 35.3116 25.4095C35.7995 25.2535 35.6869 25.0196 36.2874 25.0976C36.9255 25.1756 36.7754 25.3705 37.3383 25.0586C37.9013 24.7467 38.4267 24.6688 38.9146 24.6298C39.4025 24.5908 39.2899 24.9806 40.6035 24.8637C41.9171 24.7467 41.9171 24.8247 42.2924 24.6688C42.6678 24.4738 42.8929 24.4738 43.2683 24.201C43.6436 23.9281 44.0189 23.8501 44.0189 23.5382C44.0189 23.2263 44.2441 23.2263 43.9813 22.7585C43.7186 22.2907 43.5685 21.8619 43.5685 21.511C43.6811 21.1601 43.531 20.9262 43.4559 20.8873Z" fill="white"/>
<path d="M14.2299 34.8563C15.0638 34.723 15.128 34.3232 15.128 34.3232C15.128 34.3232 12.947 23.6625 13.1395 23.4626C13.3319 23.1961 13.3319 22.9296 13.5885 22.7963C13.8451 22.6631 14.7431 22.5965 15.0638 22.2633C15.3846 21.9302 15.6411 21.4638 15.6411 21.4638C15.6411 21.4638 15.8977 20.8641 16.1543 20.7308C16.4109 20.5309 16.9882 19.9313 16.9882 19.9313C16.9882 19.9313 17.4372 19.5981 17.6938 19.3316C17.9504 19.0651 18.3994 18.9985 18.5277 18.9985C18.656 18.9985 18.9767 18.532 18.7201 18.6653C18.4635 18.7319 17.9504 18.9318 17.7579 18.9985C17.5655 19.1317 16.9882 19.6648 16.6675 19.8646C16.3467 20.0645 15.8977 20.5309 15.8336 20.7308C15.7694 20.9307 15.1921 21.7303 14.8072 21.9302C14.4224 22.13 13.9733 22.1967 13.7809 22.1967C13.5885 22.1967 13.4602 21.597 13.9092 21.2639C14.2941 20.9307 14.6789 20.9973 14.8072 20.9973C14.9355 20.9973 15.3846 20.9307 15.3846 20.9307C15.3846 20.9307 14.7431 20.7975 14.3582 20.7308C14.0375 20.6642 13.7168 20.8641 13.7168 20.5309C13.6526 20.1978 13.3319 20.0645 13.3319 20.0645C13.3319 20.0645 13.5885 20.6642 13.4602 20.9307C13.3319 21.1972 13.2036 21.7969 13.1395 22.0634C13.0112 22.3299 12.8187 22.5965 12.8187 22.5965C12.8187 22.5965 12.6904 20.7975 12.7546 20.6642C12.8187 20.4643 13.3319 19.5981 13.396 19.5315C13.5243 19.3982 14.1016 18.9318 14.4865 19.0651C14.8714 19.1983 15.3204 19.5981 15.577 19.3982C15.577 19.3982 15.7053 19.1317 15.5128 19.0651C15.2563 18.9985 14.5507 18.7319 14.2299 18.7986C13.9092 18.7986 13.396 18.8652 13.396 18.8652C13.396 18.8652 13.1395 17.5992 13.2036 17.2661C13.2036 16.9329 13.1395 16.5332 13.5885 16.2666C14.0375 15.9335 14.4865 15.8669 14.4865 15.8669L14.1658 15.6003C14.1658 15.6003 14.3582 15.1339 14.4224 14.8008C14.4865 14.4676 14.3582 14.0679 14.3582 14.0679C14.3582 14.0679 13.9092 15.5337 13.7168 15.667C13.5243 15.8002 13.2036 16.2666 13.1395 16.4665C13.0753 16.6664 13.0112 17.1328 13.0112 17.7991C13.0112 18.4654 13.0112 18.9318 12.8187 19.3316C12.6263 19.7314 12.498 20.331 12.3056 20.331C12.1131 20.331 11.6641 19.8646 11.3434 19.3316C11.0868 18.9318 11.0227 18.7319 10.8302 18.4654C10.7661 18.3988 10.7019 18.3322 10.6378 18.1989C10.3171 17.7991 10.3171 17.466 9.93218 17.3994C9.54731 17.3327 9.16244 17.1995 9.03415 17.0662C8.90586 16.9329 8.64927 16.9996 8.64927 16.9996C8.64927 16.9996 9.48317 17.5326 9.73975 17.6659C9.99633 17.7991 10.1246 17.7991 10.3812 18.2655C10.6378 18.7319 11.0868 19.6648 11.2151 19.7314C11.3434 19.8646 11.5358 20.0645 11.6 20.1978C11.6 20.331 11.9207 21.3305 11.9848 21.4638C11.9848 21.597 11.8565 21.597 11.4075 21.2639C11.0227 20.9307 10.6378 21.1306 10.4453 21.1972C10.2529 21.1972 9.86804 21.4638 9.61146 21.1306C9.41902 20.7975 8.97 20.5309 8.71342 20.331C8.39269 20.1312 8.07196 19.9313 8.00782 19.6648C7.94367 19.3982 7.75124 19.3982 7.62295 19.1317C7.5588 18.8652 7.68709 19.1317 7.68709 19.3982C7.68709 19.6648 8.07196 20.1978 8.2644 20.3977C8.52098 20.5976 8.77756 20.6642 8.97 20.9307C9.16244 21.1306 9.41902 21.597 9.41902 21.597L8.84171 21.6636L8.39269 21.7303C8.39269 21.7303 8.07196 22.0634 8.45684 21.9968C8.84171 21.9302 9.22658 21.9302 9.48317 21.9302C9.73975 21.8635 9.99633 21.7303 10.3171 21.6636C10.5736 21.597 10.7661 21.597 10.9585 21.6636C11.1509 21.7303 10.9585 22.2633 11.0227 22.3966C11.0227 22.5298 11.2792 22.863 11.3434 22.9962C11.4075 23.1295 11.4075 23.2627 11.4075 23.2627C11.4075 23.2627 10.5736 23.1961 9.99633 22.9296C9.41902 22.6631 8.64927 22.4632 8.52098 22.3966C8.32855 22.3299 7.87953 22.0634 7.75124 21.9302C7.62295 21.7969 6.98149 21.5304 6.8532 21.3971C6.72491 21.2639 6.40418 20.9307 6.21175 20.8641C6.01931 20.7975 6.40418 21.5304 6.72491 21.7303C7.04564 21.9302 7.81538 22.3299 7.81538 22.3299C7.81538 22.3299 7.68709 22.4632 7.49466 22.4632C7.30222 22.4632 6.8532 22.5298 6.8532 22.5298C6.8532 22.5298 6.59662 22.7297 6.8532 22.7297C7.10978 22.7963 7.81538 22.7963 8.00782 22.7963C8.2644 22.863 8.84171 22.863 8.97 22.9296C9.16244 22.9962 9.6756 23.1295 9.93218 23.2627C10.1246 23.396 11.2792 23.7292 11.2792 23.7292L11.7283 24.0623L13.396 34.723C13.3319 34.723 13.2677 35.0562 14.2299 34.8563Z" fill="white"/>
<path d="M15.046 23.1261C15.4309 23.0622 15.6929 22.6864 15.6314 22.2867C15.5699 21.8871 15.2081 21.6149 14.8232 21.6788C14.4384 21.7427 14.1763 22.1185 14.2379 22.5182C14.2994 22.9179 14.6612 23.19 15.046 23.1261Z" fill="white"/>
<path d="M16.1351 23.3278C16.52 23.2638 16.782 22.8881 16.7205 22.4884C16.659 22.0887 16.2972 21.8166 15.9124 21.8805C15.5275 21.9444 15.2654 22.3202 15.327 22.7199C15.3885 23.1195 15.7503 23.3917 16.1351 23.3278Z" fill="white"/>
<path d="M16.968 23.255C17.3529 23.1916 17.6155 22.8162 17.5545 22.4165C17.4936 22.0168 17.1321 21.7441 16.7472 21.8074C16.3623 21.8708 16.0997 22.2462 16.1607 22.6459C16.2217 23.0456 16.5831 23.3183 16.968 23.255Z" fill="white"/>
<path d="M17.8051 22.9857C18.19 22.9223 18.4525 22.5469 18.3915 22.1471C18.3305 21.7474 17.969 21.4747 17.5841 21.5381C17.1992 21.6015 16.9367 21.9769 16.9977 22.3767C17.0587 22.7764 17.4202 23.0491 17.8051 22.9857Z" fill="white"/>
<path d="M18.6427 23.0483C19.0276 22.9847 19.29 22.6092 19.2288 22.2095C19.1676 21.8098 18.8061 21.5373 18.4212 21.6009C18.0364 21.6644 17.774 22.04 17.8351 22.4397C17.8963 22.8393 18.2579 23.1119 18.6427 23.0483Z" fill="white"/>
<path d="M19.4077 22.6491C19.7925 22.5851 20.0544 22.2092 19.9928 21.8096C19.9312 21.41 19.5693 21.1379 19.1845 21.202C18.7997 21.266 18.5378 21.6419 18.5994 22.0415C18.661 22.4411 19.0229 22.7131 19.4077 22.6491Z" fill="white"/>
<path d="M20.0419 22.2546C20.4267 22.1909 20.689 21.8153 20.6276 21.4156C20.5663 21.016 20.2046 20.7437 19.8198 20.8074C19.435 20.8711 19.1728 21.2467 19.2341 21.6464C19.2954 22.046 19.6571 22.3184 20.0419 22.2546Z" fill="white"/>
<path d="M20.6276 21.648C21.0124 21.5842 21.2747 21.2086 21.2133 20.809C21.152 20.4093 20.7903 20.137 20.4055 20.2007C20.0207 20.2644 19.7585 20.64 19.8198 21.0397C19.8811 21.4393 20.2428 21.7117 20.6276 21.648Z" fill="white"/>
<path d="M21.394 21.2579C21.7789 21.1947 22.0416 20.8193 21.9807 20.4196C21.9198 20.0199 21.5584 19.7471 21.1735 19.8104C20.7886 19.8736 20.5259 20.249 20.5868 20.6487C20.6477 21.0484 21.0091 21.3212 21.394 21.2579Z" fill="white"/>
<path d="M22.1615 20.5863C22.5464 20.5226 22.8086 20.147 22.7473 19.7473C22.6859 19.3477 22.3243 19.0753 21.9395 19.139C21.5546 19.2027 21.2924 19.5784 21.3537 19.978C21.415 20.3777 21.7767 20.65 22.1615 20.5863Z" fill="white"/>
<path d="M22.3016 19.5238C22.6865 19.4599 22.9485 19.0841 22.887 18.6844C22.8255 18.2848 22.4637 18.0126 22.0789 18.0765C21.694 18.1404 21.432 18.5162 21.4935 18.9159C21.555 19.3156 21.9168 19.5877 22.3016 19.5238Z" fill="white"/>
<path d="M21.65 18.5165C22.0348 18.4528 22.297 18.0771 22.2356 17.6775C22.1743 17.2778 21.8126 17.0055 21.4277 17.0693C21.0429 17.133 20.7807 17.5087 20.8421 17.9083C20.9034 18.308 21.2651 18.5803 21.65 18.5165Z" fill="white"/>
<path d="M21.0753 17.6584C21.4602 17.5949 21.7226 17.2193 21.6614 16.8196C21.6003 16.4199 21.2387 16.1474 20.8538 16.211C20.469 16.2745 20.2066 16.6501 20.2677 17.0498C20.3289 17.4495 20.6905 17.722 21.0753 17.6584Z" fill="white"/>
<path d="M20.9503 16.6593C21.3352 16.5959 21.5978 16.2204 21.5368 15.8207C21.4758 15.421 21.1143 15.1483 20.7294 15.2117C20.3445 15.2751 20.0819 15.6505 20.1429 16.0503C20.204 16.45 20.5654 16.7227 20.9503 16.6593Z" fill="white"/>
<path d="M20.6265 15.8584C21.0114 15.795 21.274 15.4196 21.213 15.0199C21.152 14.6202 20.7906 14.3475 20.4057 14.4108C20.0208 14.4742 19.7582 14.8496 19.8191 15.2493C19.8801 15.649 20.2416 15.9217 20.6265 15.8584Z" fill="white"/>
<path d="M19.6669 15.5298C20.0518 15.4664 20.3144 15.091 20.2534 14.6912C20.1923 14.2915 19.8308 14.0188 19.4459 14.0822C19.061 14.1456 18.7985 14.521 18.8595 14.9207C18.9205 15.3205 19.282 15.5931 19.6669 15.5298Z" fill="white"/>
<path d="M18.8253 15.7225C19.2101 15.6588 19.4723 15.2831 19.4109 14.8835C19.3496 14.4838 18.9878 14.2115 18.603 14.2753C18.2182 14.339 17.956 14.7147 18.0174 15.1143C18.0787 15.514 18.4404 15.7863 18.8253 15.7225Z" fill="white"/>
<path d="M18.0632 16.7852C18.448 16.7214 18.7102 16.3458 18.6489 15.9462C18.5876 15.5465 18.2259 15.2742 17.8411 15.3379C17.4562 15.4016 17.194 15.7772 17.2553 16.1769C17.3167 16.5765 17.6783 16.8489 18.0632 16.7852Z" fill="white"/>
<path d="M17.1601 16.52C17.5449 16.4563 17.8071 16.0806 17.7458 15.681C17.6845 15.2813 17.3228 15.009 16.938 15.0727C16.5532 15.1364 16.2909 15.512 16.3523 15.9117C16.4136 16.3113 16.7753 16.5837 17.1601 16.52Z" fill="white"/>
<path d="M16.7206 15.3187C17.1054 15.255 17.3676 14.8793 17.3062 14.4797C17.2448 14.08 16.8831 13.8077 16.4983 13.8715C16.1135 13.9352 15.8513 14.3109 15.9126 14.7105C15.974 15.1102 16.3357 15.3825 16.7206 15.3187Z" fill="white"/>
<path d="M16.7159 14.2599C17.1007 14.1961 17.3628 13.8203 17.3013 13.4206C17.2398 13.021 16.878 12.7488 16.4932 12.8126C16.1083 12.8765 15.8462 13.2523 15.9077 13.6519C15.9692 14.0516 16.331 14.3238 16.7159 14.2599Z" fill="white"/>
<path d="M17.0345 13.4563C17.4193 13.3928 17.6818 13.0173 17.6206 12.6176C17.5595 12.2179 17.1979 11.9454 16.8131 12.0089C16.4282 12.0724 16.1658 12.4479 16.2269 12.8475C16.2881 13.2472 16.6496 13.5198 17.0345 13.4563Z" fill="white"/>
<path d="M16.0135 13.6563C16.3984 13.5929 16.6609 13.2174 16.5999 12.8177C16.5388 12.4179 16.1773 12.1453 15.7924 12.2087C15.4075 12.2721 15.145 12.6476 15.206 13.0473C15.2671 13.4471 15.6286 13.7197 16.0135 13.6563Z" fill="white"/>
<path d="M15.2382 13.0586C15.623 12.9946 15.8851 12.6189 15.8236 12.2192C15.762 11.8196 15.4002 11.5474 15.0154 11.6113C14.6306 11.6752 14.3685 12.051 14.43 12.4506C14.4916 12.8503 14.8534 13.1225 15.2382 13.0586Z" fill="white"/>
<path d="M14.2098 13.0567C14.5947 12.9931 14.857 12.6176 14.7958 12.2179C14.7346 11.8182 14.373 11.5457 13.9881 11.6093C13.6033 11.6729 13.3409 12.0484 13.4021 12.4481C13.4633 12.8478 13.825 13.1203 14.2098 13.0567Z" fill="white"/>
<path d="M11.4566 13.5257C11.8415 13.4621 12.1039 13.0866 12.0426 12.6869C11.9814 12.2872 11.6198 12.0147 11.2349 12.0783C10.8501 12.1419 10.5877 12.5174 10.6489 12.9171C10.7102 13.3168 11.0718 13.5893 11.4566 13.5257Z" fill="white"/>
<path d="M10.6168 14.1234C11.0016 14.0596 11.2638 13.684 11.2024 13.2843C11.1411 12.8847 10.7794 12.6123 10.3945 12.6761C10.0097 12.7398 9.74751 13.1155 9.80889 13.5151C9.87026 13.9148 10.232 14.1871 10.6168 14.1234Z" fill="white"/>
<path d="M9.59808 14.1271C9.98286 14.0631 10.2448 13.6872 10.1831 13.2876C10.1214 12.888 9.75947 12.616 9.37469 12.68C8.98991 12.7441 8.72799 13.12 8.78967 13.5196C8.85136 13.9192 9.2133 14.1912 9.59808 14.1271Z" fill="white"/>
<path d="M9.01751 13.7232C9.40233 13.6593 9.66441 13.2835 9.60287 12.8838C9.54134 12.4842 9.1795 12.212 8.79468 12.2759C8.40986 12.3398 8.14778 12.7156 8.20931 13.1152C8.27085 13.5149 8.63269 13.7871 9.01751 13.7232Z" fill="white"/>
<path d="M8.62604 14.9926C9.01086 14.929 9.27312 14.5534 9.21183 14.1537C9.15053 13.7541 8.78888 13.4817 8.40406 13.5454C8.01923 13.609 7.75697 13.9846 7.81827 14.3843C7.87956 14.7839 8.24122 15.0563 8.62604 14.9926Z" fill="white"/>
<path d="M8.37212 16.1243C8.75698 16.0607 9.01935 15.6852 8.95814 15.2855C8.89693 14.8858 8.53532 14.6133 8.15046 14.6769C7.7656 14.7405 7.50323 15.1161 7.56444 15.5158C7.62565 15.9155 7.98726 16.1879 8.37212 16.1243Z" fill="white"/>
<path d="M7.86358 17.1912C8.2484 17.1275 8.51061 16.7518 8.44925 16.3521C8.38788 15.9525 8.02618 15.6802 7.64136 15.7439C7.25654 15.8077 6.99433 16.1834 7.05569 16.583C7.11706 16.9827 7.47876 17.255 7.86358 17.1912Z" fill="white"/>
<path d="M7.2835 17.5849C7.66832 17.5211 7.93054 17.1455 7.86917 16.7458C7.8078 16.3462 7.4461 16.0739 7.06128 16.1376C6.67646 16.2014 6.41425 16.577 6.47561 16.9767C6.53698 17.3763 6.89869 17.6486 7.2835 17.5849Z" fill="white"/>
<path d="M6.38921 17.0528C6.77407 16.9892 7.03644 16.6136 6.97523 16.2139C6.91402 15.8143 6.55241 15.5418 6.16755 15.6054C5.78269 15.669 5.52032 16.0445 5.58153 16.4442C5.64274 16.8439 6.00435 17.1164 6.38921 17.0528Z" fill="white"/>
<path d="M5.17543 16.8546C5.56024 16.7906 5.82233 16.4148 5.76081 16.0152C5.69929 15.6155 5.33745 15.3434 4.95264 15.4073C4.56782 15.4712 4.30573 15.847 4.36725 16.2467C4.42878 16.6463 4.79061 16.9185 5.17543 16.8546Z" fill="white"/>
<path d="M4.46182 16.5924C4.84672 16.529 5.10927 16.1536 5.04826 15.7539C4.98724 15.3541 4.62576 15.0815 4.24086 15.1449C3.85597 15.2083 3.59341 15.5837 3.65442 15.9834C3.71544 16.3832 4.07692 16.6558 4.46182 16.5924Z" fill="white"/>
<path d="M4.1396 17.5953C4.52446 17.5316 4.78679 17.156 4.72554 16.7563C4.66429 16.3566 4.30265 16.0842 3.9178 16.1478C3.53294 16.2115 3.2706 16.5871 3.33185 16.9868C3.3931 17.3865 3.75474 17.6589 4.1396 17.5953Z" fill="white"/>
<path d="M3.56109 18.1853C3.94595 18.1217 4.20831 17.7461 4.1471 17.3465C4.08589 16.9468 3.72428 16.6743 3.33943 16.7379C2.95457 16.8015 2.6922 17.177 2.75341 17.5767C2.81462 17.9764 3.17623 18.2489 3.56109 18.1853Z" fill="white"/>
<path d="M3.49967 19.4563C3.88449 19.3926 4.14673 19.017 4.08541 18.6173C4.02408 18.2177 3.66241 17.9453 3.27759 18.009C2.89277 18.0727 2.63053 18.4484 2.69185 18.848C2.75318 19.2477 3.11485 19.52 3.49967 19.4563Z" fill="white"/>
<path d="M3.0484 20.4491C3.43322 20.3853 3.69543 20.0097 3.63406 19.61C3.5727 19.2104 3.21099 18.9381 2.82617 19.0018C2.44135 19.0656 2.17914 19.4412 2.24051 19.8409C2.30187 20.2405 2.66358 20.5128 3.0484 20.4491Z" fill="white"/>
<path d="M2.91886 21.5207C3.30368 21.457 3.56592 21.0813 3.5046 20.6817C3.44327 20.282 3.0816 20.0097 2.69678 20.0734C2.31196 20.1371 2.04972 20.5128 2.11104 20.9124C2.17237 21.3121 2.53404 21.5844 2.91886 21.5207Z" fill="white"/>
<path d="M2.92973 22.5269C3.31463 22.4634 3.57716 22.088 3.5161 21.6882C3.45505 21.2885 3.09353 21.0159 2.70864 21.0793C2.32374 21.1427 2.06121 21.5182 2.12227 21.9179C2.18332 22.3177 2.54484 22.5903 2.92973 22.5269Z" fill="white"/>
<path d="M3.11553 23.3881C3.50039 23.3245 3.76276 22.949 3.70155 22.5493C3.64034 22.1496 3.27873 21.8771 2.89387 21.9407C2.50901 22.0043 2.24664 22.3799 2.30785 22.7796C2.36906 23.1793 2.73067 23.4517 3.11553 23.3881Z" fill="white"/>
<path d="M3.37384 23.9882C3.75866 23.9245 4.02087 23.5488 3.9595 23.1491C3.89814 22.7495 3.53643 22.4772 3.15161 22.5409C2.76679 22.6047 2.50458 22.9804 2.56595 23.38C2.62731 23.7797 2.98902 24.052 3.37384 23.9882Z" fill="white"/>
<path d="M3.88716 25.0497C4.27198 24.9859 4.53416 24.6102 4.47275 24.2106C4.41135 23.8109 4.04961 23.5387 3.66479 23.6024C3.27997 23.6662 3.0178 24.0419 3.0792 24.4416C3.14061 24.8412 3.50234 25.1135 3.88716 25.0497Z" fill="white"/>
<path d="M4.46148 25.9216C4.84634 25.858 5.1087 25.4825 5.04749 25.0828C4.98628 24.6831 4.62467 24.4106 4.23982 24.4742C3.85496 24.5378 3.59259 24.9134 3.6538 25.3131C3.71501 25.7128 4.07662 25.9852 4.46148 25.9216Z" fill="white"/>
<path d="M5.42138 25.724C5.8062 25.6601 6.06831 25.2844 6.00683 24.8847C5.94535 24.4851 5.58355 24.2129 5.19873 24.2767C4.81391 24.3406 4.55179 24.7164 4.61328 25.116C4.67476 25.5157 5.03656 25.7879 5.42138 25.724Z" fill="white"/>
<path d="M6.38368 25.9914C6.7685 25.9275 7.03058 25.5517 6.96906 25.152C6.90754 24.7524 6.54571 24.4802 6.16089 24.5441C5.77607 24.608 5.51398 24.9838 5.57551 25.3835C5.63703 25.7831 5.99886 26.0553 6.38368 25.9914Z" fill="white"/>
<path d="M7.09112 26.3898C7.47597 26.3262 7.73834 25.9507 7.67713 25.551C7.61592 25.1513 7.25431 24.8788 6.86945 24.9424C6.4846 25.006 6.22223 25.3816 6.28344 25.7813C6.34465 26.181 6.70626 26.4534 7.09112 26.3898Z" fill="white"/>
<path d="M7.85908 25.6572C8.24394 25.5936 8.50628 25.218 8.44503 24.8183C8.38378 24.4186 8.02214 24.1462 7.63728 24.2098C7.25242 24.2734 6.99008 24.649 7.05133 25.0487C7.11258 25.4484 7.47422 25.7208 7.85908 25.6572Z" fill="white"/>
<path d="M8.6974 24.8489C9.08218 24.7848 9.34411 24.4089 9.28243 24.0093C9.22076 23.6097 8.85883 23.3377 8.47405 23.4017C8.08927 23.4658 7.82734 23.8417 7.88902 24.2413C7.9507 24.6409 8.31262 24.9129 8.6974 24.8489Z" fill="white"/>
<path d="M9.91422 25.0473C10.2991 24.9837 10.5615 24.6082 10.5003 24.2085C10.4391 23.8088 10.0776 23.5363 9.6927 23.5998C9.30784 23.6634 9.04544 24.0389 9.10661 24.4386C9.16778 24.8383 9.52936 25.1108 9.91422 25.0473Z" fill="white"/>
<path d="M10.8787 25.0471C11.2635 24.9834 11.5257 24.6077 11.4644 24.208C11.403 23.8084 11.0413 23.5361 10.6565 23.5998C10.2717 23.6636 10.0095 24.0393 10.0708 24.4389C10.1322 24.8386 10.4939 25.1109 10.8787 25.0471Z" fill="white"/>
<path d="M11.5853 24.2504C11.9702 24.1865 12.2322 23.8107 12.1707 23.411C12.1092 23.0113 11.7474 22.7392 11.3625 22.8031C10.9777 22.867 10.7156 23.2428 10.7772 23.6425C10.8387 24.0421 11.2005 24.3143 11.5853 24.2504Z" fill="white"/>
<path d="M12.4817 23.7208C12.8666 23.6574 13.1292 23.2819 13.0681 22.8822C13.0071 22.4825 12.6455 22.2098 12.2606 22.2733C11.8757 22.3367 11.6132 22.7122 11.6743 23.1119C11.7353 23.5116 12.0968 23.7843 12.4817 23.7208Z" fill="white"/>
<path d="M13.3734 23.5855C13.7583 23.5219 14.0207 23.1464 13.9595 22.7467C13.8984 22.347 13.5368 22.0745 13.1519 22.138C12.7671 22.2016 12.5047 22.5771 12.5658 22.9768C12.627 23.3765 12.9886 23.649 13.3734 23.5855Z" fill="white"/>
<path d="M14.1467 23.3229C14.5316 23.2594 14.794 22.8839 14.7329 22.4842C14.6718 22.0845 14.3102 21.812 13.9254 21.8755C13.5405 21.939 13.2781 22.3145 13.3392 22.7142C13.4003 23.1139 13.7619 23.3864 14.1467 23.3229Z" fill="white"/>
<path d="M20.2596 15.0672C20.1954 15.0672 19.2333 14.6674 18.8484 15.0672C18.4635 15.4669 18.656 15.6002 18.0786 15.9334C17.5013 16.2665 17.7579 16.4664 17.2448 16C16.7316 15.4669 16.7316 15.3337 16.6033 14.6008C16.475 13.8012 16.6033 13.4681 16.0901 13.1349C15.577 12.8018 14.8714 12.1355 14.1658 12.1355C13.4602 12.1355 13.5885 11.6691 12.6263 11.869C11.6641 12.0688 11.6 11.9356 11.2151 12.6685C10.8302 13.3348 10.5095 13.6679 9.86802 13.6013C9.22657 13.5347 9.22657 13.2682 8.8417 14.0011C8.45683 14.734 8.71341 15.3337 8.00781 16.1332C7.30221 16.8662 7.36635 17.1327 6.98148 16.8662C6.66075 16.6663 5.82686 16.3331 5.18541 16.2665C4.54395 16.2665 4.03079 16.7995 3.64591 17.5325C3.26104 18.2654 3.00446 19.2648 2.94031 20.0644C2.87617 20.9306 2.81202 22.6629 3.13275 23.3959C3.45348 24.1288 4.35151 25.1949 5.3137 25.2615C6.27588 25.3281 7.17392 25.3947 7.87952 24.995C8.64926 24.5952 8.39268 24.262 9.48315 24.1954C10.5736 24.1954 10.3812 24.5286 11.2151 23.8623C12.1131 23.196 12.947 22.9295 13.7809 22.6629C14.5506 22.463 14.4865 23.1293 16.6674 22.5963C18.8484 21.9966 18.9125 22.1965 19.4898 21.7968C20.0672 21.397 20.452 21.3303 20.9652 20.7307C21.5425 20.1976 22.1198 19.9311 22.0557 19.3981C21.9915 18.8651 22.3764 18.7984 21.7991 18.1321C21.2218 17.3992 20.901 16.7329 20.7728 16.1332C20.6445 15.5336 20.3879 15.1338 20.2596 15.0672Z" fill="white"/>
<path d="M1.76978 38.1569C1.76978 38.1569 2.05293 38.0466 2.54844 37.826C3.04396 37.6055 3.78724 37.3113 4.74288 36.9069C5.66312 36.5025 6.86652 36.1349 8.24689 35.6569C8.91937 35.4363 9.66265 35.179 10.4413 34.9584C11.22 34.7378 12.0341 34.554 12.8835 34.2966C13.3082 34.1863 13.733 34.076 14.1931 33.9657C14.6532 33.8555 15.0779 33.7819 15.5735 33.6716C16.4937 33.4878 17.4493 33.2672 18.4404 33.0834C19.4314 32.8996 20.4578 32.7525 21.4843 32.5687C22.5461 32.3849 23.6079 32.2378 24.7051 32.1275C25.8023 32.0172 26.8996 31.8702 28.0322 31.7599C29.1648 31.6496 30.2974 31.576 31.4654 31.5025C32.0317 31.4657 32.6334 31.429 33.1997 31.3922C33.766 31.3555 34.3677 31.3555 34.934 31.3555C36.102 31.3187 37.27 31.3187 38.438 31.2819C39.606 31.3187 40.774 31.3187 41.942 31.3555C42.5083 31.3555 43.11 31.3555 43.6763 31.3922C44.2426 31.429 44.8443 31.4657 45.4106 31.5025C46.5787 31.576 47.7113 31.6496 48.8439 31.7599C49.9765 31.8702 51.0737 32.0172 52.1709 32.1275C53.2681 32.2378 54.3299 32.3849 55.3918 32.5687C56.4182 32.7525 57.4446 32.8996 58.4357 33.0834C59.4267 33.2672 60.3823 33.4878 61.3026 33.6716C61.7627 33.7819 62.2228 33.8555 62.6829 33.9657C63.1431 34.076 63.5678 34.1863 63.9925 34.2966C64.842 34.5172 65.656 34.7378 66.4347 34.9584C67.2134 35.1422 67.9213 35.4363 68.5938 35.6569C69.9387 36.0981 71.1421 36.4657 72.0978 36.9069C73.0534 37.2746 73.7967 37.6055 74.2922 37.826C74.7877 38.0466 75.0709 38.1569 75.0709 38.1569C75.0709 38.1569 74.7877 38.0834 74.2568 37.9363C73.7259 37.7893 72.9472 37.6055 71.9562 37.3113C71.7084 37.2378 71.4607 37.1643 71.1775 37.0907C70.8944 37.0172 70.6112 36.9805 70.3281 36.9069C69.7264 36.7599 69.0893 36.6128 68.3814 36.4657C67.001 36.1349 65.4437 35.8775 63.7094 35.5466C63.2846 35.4731 62.8599 35.3996 62.3998 35.326C61.9397 35.2525 61.4795 35.2157 61.0194 35.1422C60.0992 34.9952 59.1435 34.8849 58.1525 34.7378C57.1615 34.5907 56.135 34.5172 55.1086 34.4069C54.0822 34.2966 53.0204 34.1496 51.9231 34.1128C50.8613 34.0393 49.7641 33.9657 48.6315 33.8555C48.0652 33.8187 47.4989 33.8187 46.968 33.7819C46.4017 33.7452 45.8354 33.7452 45.2691 33.7084C44.7028 33.6716 44.1365 33.6716 43.5702 33.6349C43.0038 33.5981 42.4375 33.6349 41.8358 33.5981C40.7032 33.5981 39.5352 33.5613 38.3672 33.5613C37.1992 33.5613 36.0666 33.5981 34.8986 33.5981C34.3323 33.5981 33.766 33.5981 33.1643 33.6349C32.598 33.6716 32.0317 33.7084 31.4654 33.7084C30.8991 33.7452 30.3328 33.7452 29.7665 33.7819C29.2002 33.8187 28.6339 33.8187 28.103 33.8555C27.0057 33.929 25.9085 34.0393 24.8113 34.1128C23.7141 34.1863 22.6877 34.3334 21.6258 34.4069C20.5994 34.5172 19.573 34.5907 18.582 34.7378C17.5909 34.8849 16.6353 35.0319 15.715 35.1422C15.2549 35.2157 14.7948 35.2525 14.3347 35.326C13.8745 35.3996 13.4498 35.4731 13.0251 35.5466C11.3262 35.8775 9.73344 36.0981 8.38846 36.4657C7.71598 36.6128 7.04349 36.7599 6.44179 36.9069C6.15864 36.9805 5.84009 37.0172 5.59233 37.0907C5.30918 37.1643 5.06142 37.2378 4.81366 37.3113C3.82263 37.6055 3.04396 37.7893 2.51305 37.9363C2.05293 38.0834 1.76978 38.1569 1.76978 38.1569Z" fill="white"/>
</g>
<defs>
<clipPath id="clip0_601_9246">
<rect width="75" height="40" fill="white" transform="translate(0 0.877502)"/>
</clipPath>
</defs>
</svg>
