<svg xmlns="http://www.w3.org/2000/svg" width="32" height="32" viewBox="0 0 32 32" fill="none">
  <path d="M27.2645 28.117H12.7808C12.354 28.117 11.9447 27.9574 11.6429 27.6734C11.3411 27.3893 11.1715 27.0041 11.1715 26.6024V22.0585C11.1715 21.8576 11.2563 21.665 11.4072 21.523C11.5581 21.3809 11.7628 21.3011 11.9762 21.3011C12.1896 21.3011 12.3942 21.3809 12.5451 21.523C12.696 21.665 12.7808 21.8576 12.7808 22.0585V26.6024H27.2645V5.39745H12.7808V9.94136C12.7808 10.1422 12.696 10.3348 12.5451 10.4769C12.3942 10.6189 12.1896 10.6987 11.9762 10.6987C11.7628 10.6987 11.5581 10.6189 11.4072 10.4769C11.2563 10.3348 11.1715 10.1422 11.1715 9.94136V5.39745C11.1715 4.99574 11.3411 4.61049 11.6429 4.32644C11.9447 4.04239 12.354 3.88281 12.7808 3.88281H27.2645C27.6914 3.88281 28.1007 4.04239 28.4025 4.32644C28.7043 4.61049 28.8738 4.99574 28.8738 5.39745V26.6024C28.8738 27.0041 28.7043 27.3893 28.4025 27.6734C28.1007 27.9574 27.6914 28.117 27.2645 28.117ZM22.0343 16.7572H3.92965C3.71624 16.7572 3.51158 16.6774 3.36068 16.5354C3.20978 16.3934 3.125 16.2008 3.125 15.9999C3.125 15.7991 3.20978 15.6064 3.36068 15.4644C3.51158 15.3224 3.71624 15.2426 3.92965 15.2426H22.0343C22.2477 15.2426 22.4524 15.3224 22.6033 15.4644C22.7542 15.6064 22.839 15.7991 22.839 15.9999C22.839 16.2008 22.7542 16.3934 22.6033 16.5354C22.4524 16.6774 22.2477 16.7572 22.0343 16.7572ZM7.95291 20.5438C7.73952 20.5438 7.53489 20.464 7.38402 20.3219L3.36068 16.5354C3.20978 16.3934 3.125 16.2008 3.125 15.9999C3.125 15.7991 3.20978 15.6064 3.36068 15.4644L7.38402 11.6779C7.53578 11.5399 7.73904 11.4636 7.95001 11.4653C8.16099 11.4671 8.36281 11.5467 8.51199 11.6871C8.66118 11.8275 8.74581 12.0175 8.74764 12.216C8.74947 12.4146 8.66837 12.6059 8.5218 12.7487L5.06743 15.9999L8.5218 19.2511C8.63429 19.357 8.7109 19.4919 8.74194 19.6388C8.77297 19.7857 8.75703 19.9379 8.69615 20.0763C8.63526 20.2147 8.53215 20.3329 8.39986 20.4161C8.26756 20.4994 8.11203 20.5438 7.95291 20.5438Z" fill="#B0AFAF"/>
</svg>