<svg xmlns="http://www.w3.org/2000/svg" width="33" height="32" viewBox="0 0 33 32" fill="none">
  <g clip-path="url(#clip0_189_11686)">
    <path d="M31.2442 29.1469L23.6282 21.2259C25.5864 18.898 26.6593 15.9691 26.6593 12.92C26.6593 5.79602 20.8633 0 13.7393 0C6.61536 0 0.819336 5.79602 0.819336 12.92C0.819336 20.044 6.61536 25.84 13.7393 25.84C16.4138 25.84 18.9624 25.0333 21.1414 23.502L28.8153 31.4832C29.136 31.8163 29.5674 32 30.0297 32C30.4673 32 30.8825 31.8332 31.1976 31.5298C31.8672 30.8855 31.8885 29.8171 31.2442 29.1469ZM13.7393 3.37043C19.0051 3.37043 23.2889 7.65425 23.2889 12.92C23.2889 18.1857 19.0051 22.4695 13.7393 22.4695C8.47359 22.4695 4.18977 18.1857 4.18977 12.92C4.18977 7.65425 8.47359 3.37043 13.7393 3.37043Z" fill="#03001e"/>
  </g>
  <defs>
    <clipPath id="clip0_189_11686">
      <rect width="32" height="32" fill="white" transform="translate(0.266602)"/>
    </clipPath>
  </defs>
</svg>