<svg width="33" height="32" viewBox="0 0 33 32" fill="none" xmlns="http://www.w3.org/2000/svg">
<path fill-rule="evenodd" clip-rule="evenodd" d="M19.4613 4.74029C19.6048 4.20696 20.1534 3.89088 20.6867 4.03432C22.5512 4.53575 24.2511 5.51827 25.6164 6.88349C26.9816 8.2487 27.9641 9.94867 28.4655 11.8131C28.6089 12.3465 28.2929 12.8951 27.7595 13.0385C27.2262 13.182 26.6776 12.8659 26.5341 12.3325C26.1237 10.8065 25.3195 9.41511 24.2021 8.2977C23.0847 7.18029 21.6933 6.3761 20.1673 5.96569C19.634 5.82226 19.3179 5.27363 19.4613 4.74029Z" fill="white"/>
<path fill-rule="evenodd" clip-rule="evenodd" d="M18.4262 8.60492C18.5696 8.07158 19.1182 7.75551 19.6516 7.89894C20.8379 8.218 21.9196 8.84319 22.7883 9.71188C23.657 10.5806 24.2822 11.6623 24.6012 12.8486C24.7447 13.382 24.4286 13.9306 23.8953 14.074C23.3619 14.2174 22.8133 13.9014 22.6699 13.368C22.4418 12.5201 21.995 11.747 21.3741 11.1261C20.7532 10.5052 19.9801 10.0584 19.1321 9.83031C18.5988 9.68688 18.2827 9.13825 18.4262 8.60492Z" fill="white"/>
<path fill-rule="evenodd" clip-rule="evenodd" d="M10.8571 5.03839C10.8571 5.03839 10.8571 5.03839 10.8571 5.03839V5.03839ZM10.8581 5.04073L13.3696 10.9011L11.2912 14.0767C11.1022 14.3633 10.9904 14.6939 10.9668 15.0364C10.9431 15.38 11.0089 15.7238 11.1579 16.0344L11.1612 16.0413C12.2969 18.3631 14.179 20.2366 16.5059 21.3617L16.513 21.3651C16.8254 21.5131 17.171 21.5773 17.5157 21.5512C17.8594 21.5252 18.1904 21.4104 18.4764 21.2182C18.4773 21.2176 18.4782 21.2169 18.4791 21.2163L21.604 19.1326L27.4587 21.6417C27.3027 22.8449 26.7152 23.9507 25.8044 24.7526C24.8913 25.5564 23.7165 25.9999 22.5 26M10.8581 5.04073C9.65486 5.19673 8.54928 5.78484 7.74742 6.69564C6.94355 7.60873 6.50006 8.78352 6.5 10.0001C6.5 14.2435 8.18571 18.3131 11.1863 21.3137C14.1869 24.3143 18.2566 26 22.5 26M10.6202 3.05487C11.05 3.00286 11.485 3.09193 11.8597 3.30865C12.2339 3.52505 12.5278 3.85704 12.6971 4.2547C12.6974 4.25527 12.6976 4.25585 12.6979 4.25642L15.2079 10.1132C15.3378 10.4164 15.3908 10.7469 15.362 11.0755C15.3333 11.404 15.2237 11.7203 15.0431 11.9963L12.9635 15.1738C13.9011 17.0841 15.4502 18.6265 17.3648 19.5555L20.4945 17.4686C20.7713 17.284 21.0898 17.1714 21.4211 17.1409C21.7524 17.1105 22.0861 17.1632 22.3919 17.2943L28.2436 19.8021C28.244 19.8023 28.2445 19.8025 28.245 19.8027C28.6428 19.9721 28.9749 20.266 29.1913 20.6403C29.4081 21.015 29.4971 21.45 29.4451 21.8798L29.4443 21.8864C29.2284 23.5757 28.4042 25.1284 27.1259 26.2537C25.8477 27.3791 24.2031 27.9999 22.5001 28C17.7262 28 13.1477 26.1036 9.77208 22.7279C6.39642 19.3523 4.5 14.7739 4.5 10C4.50009 8.29697 5.12093 6.6523 6.24628 5.37406C7.37163 4.09581 8.92431 3.27158 10.6136 3.05569L10.6202 3.05487Z" fill="white"/>
</svg>
