<svg xmlns="http://www.w3.org/2000/svg" width="32" height="32" viewBox="0 0 32 32" fill="none">
  <path fill-rule="evenodd" clip-rule="evenodd" d="M18.9613 4.74005C19.1048 4.20671 19.6534 3.89064 20.1867 4.03407C22.0512 4.5355 23.7511 5.51803 25.1164 6.88324C26.4816 8.24845 27.4641 9.94842 27.9655 11.8129C28.1089 12.3462 27.7929 12.8948 27.2595 13.0383C26.7262 13.1817 26.1776 12.8656 26.0341 12.3323C25.6237 10.8063 24.8195 9.41486 23.7021 8.29745C22.5847 7.18005 21.1933 6.37586 19.6673 5.96545C19.134 5.82201 18.8179 5.27338 18.9613 4.74005Z" fill="#03001e"/>
  <path fill-rule="evenodd" clip-rule="evenodd" d="M17.9262 8.60479C18.0696 8.07146 18.6182 7.75539 19.1516 7.89882C20.3379 8.21788 21.4196 8.84307 22.2883 9.71175C23.157 10.5804 23.7822 11.6621 24.1012 12.8485C24.2447 13.3818 23.9286 13.9305 23.3953 14.0739C22.8619 14.2173 22.3133 13.9013 22.1699 13.3679C21.9418 12.52 21.495 11.7469 20.8741 11.126C20.2532 10.5051 19.4801 10.0582 18.6321 9.83019C18.0988 9.68676 17.7827 9.13813 17.9262 8.60479Z" fill="#03001e"/>
  <path fill-rule="evenodd" clip-rule="evenodd" d="M10.3571 5.03851C10.3571 5.03851 10.3571 5.03851 10.3571 5.03851V5.03851ZM10.3581 5.04085L12.8696 10.9012L10.7912 14.0769C10.6022 14.3634 10.4904 14.694 10.4668 15.0365C10.4431 15.3801 10.5089 15.7239 10.6579 16.0345L10.6612 16.0414C11.7969 18.3632 13.679 20.2367 16.0059 21.3618L16.013 21.3652C16.3254 21.5132 16.671 21.5774 17.0157 21.5513C17.3594 21.5253 17.6904 21.4106 17.9764 21.2183C17.9773 21.2177 17.9782 21.2171 17.9791 21.2164L21.104 19.1327L26.9587 21.6418C26.8027 22.845 26.2152 23.9508 25.3044 24.7527C24.3913 25.5566 23.2165 26 22 26.0001M10.3581 5.04085C9.15486 5.19685 8.04928 5.78496 7.24742 6.69576C6.44355 7.60885 6.00006 8.78365 6 10.0002C6 14.2436 7.68571 18.3132 10.6863 21.3138C13.6869 24.3144 17.7566 26.0001 22 26.0001M10.1202 3.05499C10.55 3.00299 10.985 3.09205 11.3597 3.30877C11.7339 3.52517 12.0278 3.85716 12.1971 4.25482C12.1974 4.2554 12.1976 4.25597 12.1979 4.25655L14.7079 10.1133C14.8378 10.4165 14.8908 10.747 14.862 11.0756C14.8333 11.4041 14.7237 11.7205 14.5431 11.9964L12.4635 15.1739C13.4011 17.0843 14.9502 18.6267 16.8648 19.5556L19.9945 17.4687C20.2713 17.2841 20.5898 17.1715 20.9211 17.1411C21.2524 17.1106 21.5861 17.1633 21.8919 17.2944L27.7436 19.8023C27.744 19.8025 27.7445 19.8027 27.745 19.8029C28.1428 19.9722 28.4749 20.2661 28.6913 20.6404C28.9081 21.0151 28.9971 21.4501 28.9451 21.8799L28.9443 21.8865C28.7284 23.5758 27.9042 25.1285 26.6259 26.2538C25.3477 27.3792 23.7031 28 22.0001 28.0001C17.2262 28.0001 12.6477 26.1037 9.27208 22.728C5.89642 19.3524 4 14.774 4 10.0001C4.00009 8.29709 4.62093 6.65243 5.74628 5.37418C6.87163 4.09593 8.42431 3.2717 10.1136 3.05582L10.1202 3.05499Z" fill="#03001e"/>
</svg>