<svg xmlns="http://www.w3.org/2000/svg" width="19" height="19" viewBox="0 0 19 19" fill="none">
  <path fill-rule="evenodd" clip-rule="evenodd" d="M10.9325 3.16655C11.0132 2.86655 11.3218 2.68876 11.6218 2.76944C12.6706 3.05149 13.6268 3.60417 14.3947 4.3721C15.1627 5.14003 15.7153 6.09626 15.9974 7.14502C16.0781 7.44502 15.9003 7.75362 15.6003 7.8343C15.3003 7.91499 14.9917 7.73719 14.911 7.43719C14.6801 6.5788 14.2278 5.79614 13.5992 5.16759C12.9707 4.53905 12.188 4.0867 11.3296 3.85584C11.0296 3.77516 10.8518 3.46655 10.9325 3.16655Z" fill="#333333"/>
  <path fill-rule="evenodd" clip-rule="evenodd" d="M10.35 5.34038C10.4307 5.04038 10.7393 4.86259 11.0393 4.94327C11.7066 5.12274 12.3151 5.47441 12.8037 5.96304C13.2923 6.45168 13.644 7.06014 13.8235 7.72746C13.9042 8.02746 13.7264 8.33607 13.4264 8.41675C13.1264 8.49743 12.8178 8.31964 12.7371 8.01964C12.6088 7.54267 12.3575 7.10779 12.0082 6.75854C11.659 6.40929 11.2241 6.15794 10.7471 6.02967C10.4471 5.94898 10.2693 5.64038 10.35 5.34038Z" fill="#333333"/>
  <path fill-rule="evenodd" clip-rule="evenodd" d="M6.09245 3.33431C6.09245 3.33431 6.09245 3.33431 6.09245 3.33431V3.33431ZM6.09301 3.33563L7.50577 6.63207L6.33668 8.41839C6.23033 8.57957 6.16745 8.76551 6.15417 8.95818C6.14084 9.15145 6.17788 9.34487 6.26166 9.51955L6.26355 9.52345C6.90237 10.8295 7.96102 11.8833 9.26993 12.5162L9.2739 12.5181C9.44964 12.6014 9.64404 12.6374 9.83796 12.6228C10.0313 12.6081 10.2174 12.5436 10.3783 12.4354C10.3788 12.4351 10.3793 12.4347 10.3798 12.4344L12.1376 11.2623L15.4309 12.6737C15.3431 13.3505 15.0126 13.9725 14.5003 14.4235C13.9867 14.8757 13.3259 15.1252 12.6416 15.1252M6.09301 3.33563C5.41621 3.42338 4.79432 3.75419 4.34328 4.26652C3.8911 4.78013 3.64164 5.44095 3.6416 6.12525C3.6416 8.5122 4.58981 10.8014 6.27764 12.4892C7.96546 14.177 10.2547 15.1252 12.6416 15.1252M5.95923 2.21859C6.20097 2.18933 6.44566 2.23943 6.65645 2.36134C6.86693 2.48306 7.03222 2.6698 7.12748 2.89349C7.12762 2.89381 7.12776 2.89414 7.1279 2.89446L8.53981 6.18891C8.61288 6.35942 8.64266 6.54536 8.62648 6.73016C8.61031 6.91497 8.54868 7.09291 8.44709 7.24813L7.27735 9.03546C7.80474 10.11 8.67611 10.9776 9.75307 11.5002L11.5135 10.3263C11.6692 10.2225 11.8483 10.1591 12.0347 10.142C12.2211 10.1249 12.4088 10.1545 12.5808 10.2282L15.8724 11.6389C15.8726 11.639 15.8729 11.6392 15.8732 11.6393C16.0969 11.7345 16.2837 11.8998 16.4055 12.1104C16.5274 12.3212 16.5775 12.5659 16.5482 12.8076L16.5478 12.8113C16.4264 13.7615 15.9627 14.6349 15.2437 15.2679C14.5247 15.9009 13.5996 16.2502 12.6416 16.2502C9.95632 16.2502 7.38095 15.1835 5.48215 13.2847C3.58334 11.3859 2.5166 8.81054 2.5166 6.12522C2.51665 5.16727 2.86588 4.24214 3.49888 3.52313C4.13189 2.80411 5.00528 2.34048 5.95551 2.21905L5.95923 2.21859Z" fill="#333333"/>
</svg>