<svg xmlns="http://www.w3.org/2000/svg" width="19" height="19" viewBox="0 0 19 19" fill="none">
  <path fill-rule="evenodd" clip-rule="evenodd" d="M11.248 2.71245C11.3286 2.41245 11.6372 2.23466 11.9372 2.31534C12.986 2.59739 13.9422 3.15006 14.7102 3.918C15.4781 4.68593 16.0308 5.64216 16.3128 6.69091C16.3935 6.99091 16.2157 7.29952 15.9157 7.3802C15.6157 7.46088 15.3071 7.28309 15.2264 6.98309C14.9956 6.1247 14.5432 5.34203 13.9147 4.71349C13.2861 4.08495 12.5035 3.63259 11.6451 3.40174C11.3451 3.32105 11.1673 3.01245 11.248 2.71245Z" fill="#E77817"/>
  <path fill-rule="evenodd" clip-rule="evenodd" d="M10.6654 4.88628C10.7461 4.58628 11.0547 4.40849 11.3547 4.48917C12.0221 4.66864 12.6305 5.02031 13.1191 5.50894C13.6078 5.99758 13.9594 6.60603 14.1389 7.27336C14.2196 7.57336 14.0418 7.88196 13.7418 7.96265C13.4418 8.04333 13.1332 7.86554 13.0525 7.56554C12.9242 7.08857 12.6729 6.65369 12.3236 6.30444C11.9744 5.95519 11.5395 5.70384 11.0625 5.57556C10.7625 5.49488 10.5848 5.18628 10.6654 4.88628Z" fill="#E77817"/>
  <path fill-rule="evenodd" clip-rule="evenodd" d="M6.40788 2.88021C6.40788 2.88021 6.40788 2.88021 6.40788 2.88021V2.88021ZM6.40844 2.88153L7.8212 6.17797L6.65211 7.96429C6.54576 8.12547 6.48288 8.31141 6.4696 8.50408C6.45627 8.69735 6.49331 8.89077 6.57709 9.06545L6.57898 9.06935C7.2178 10.3754 8.27644 11.4292 9.58536 12.0621L9.58933 12.064C9.76507 12.1473 9.95947 12.1833 10.1534 12.1687C10.3467 12.154 10.5329 12.0895 10.6937 11.9813C10.6942 11.981 10.6948 11.9806 10.6953 11.9803L12.4531 10.8082L15.7463 12.2196C15.6585 12.8964 15.3281 13.5184 14.8157 13.9694C14.3021 14.4216 13.6413 14.6711 12.957 14.6711M6.40844 2.88153C5.73164 2.96928 5.10975 3.30009 4.65871 3.81242C4.20653 4.32603 3.95707 4.98685 3.95703 5.67115C3.95703 8.0581 4.90524 10.3473 6.59307 12.0351C8.28089 13.7229 10.5701 14.6711 12.957 14.6711M6.27466 1.76448C6.5164 1.73523 6.76109 1.78533 6.97188 1.90723C7.18236 2.02896 7.34765 2.2157 7.44291 2.43939C7.44305 2.43971 7.44319 2.44003 7.44333 2.44036L8.85524 5.73481C8.92831 5.90532 8.95809 6.09126 8.94191 6.27606C8.92574 6.46087 8.86411 6.63881 8.76252 6.79403L7.59277 8.58135C8.12017 9.65595 8.99154 10.5235 10.0685 11.0461L11.8289 9.87219C11.9846 9.76836 12.1638 9.70502 12.3501 9.6879C12.5365 9.67078 12.7242 9.70042 12.8962 9.77415L16.1878 11.1848C16.188 11.1849 16.1883 11.185 16.1886 11.1852C16.4123 11.2804 16.5992 11.4457 16.7209 11.6563C16.8428 11.8671 16.8929 12.1118 16.8637 12.3535L16.8632 12.3572C16.7418 13.3074 16.2781 14.1808 15.5591 14.8138C14.8401 15.4468 13.915 15.7961 12.9571 15.7961C10.2717 15.7961 7.69638 14.7294 5.79758 12.8306C3.89877 10.9318 2.83203 8.35644 2.83203 5.67112C2.83208 4.71316 3.18131 3.78804 3.81431 3.06903C4.44732 2.35001 5.32071 1.88638 6.27094 1.76495L6.27466 1.76448Z" fill="#E77817"/>
</svg>