<svg xmlns="http://www.w3.org/2000/svg" width="17" height="18" viewBox="0 0 17 18" fill="none">
  <path d="M14.6375 0.772461H2.38783C1.2284 0.772461 0.285156 1.71573 0.285156 2.87517V15.1248C0.285156 16.2842 1.2284 17.2275 2.38783 17.2275H14.6375C15.797 17.2275 16.7402 16.2842 16.7402 15.1248V2.87517C16.7402 1.71573 15.797 0.772461 14.6375 0.772461ZM15.771 15.1248C15.771 15.7498 15.2625 16.2583 14.6375 16.2583H2.38783C1.76283 16.2583 1.25436 15.7498 1.25436 15.1248V13.357L4.4443 10.6428C4.5607 10.5438 4.73052 10.5428 4.84802 10.6404L6.84622 12.2997C7.03889 12.4596 7.32171 12.4465 7.49876 12.2693L12.2466 7.5142C12.3324 7.42823 12.4324 7.41988 12.4847 7.42255C12.5367 7.42521 12.6356 7.44379 12.7121 7.53812L15.771 11.3045L15.771 15.1248ZM15.771 9.76697L13.4645 6.927C13.2358 6.64533 12.8967 6.47313 12.5343 6.45453C12.1722 6.43621 11.8171 6.57254 11.5607 6.82933L7.12531 11.2716L5.46727 9.89479C4.98651 9.49556 4.29218 9.4997 3.81621 9.90468L1.25436 12.0844V2.87517C1.25436 2.25017 1.76283 1.7417 2.38783 1.7417H14.6375C15.2625 1.7417 15.771 2.25017 15.771 2.87517V9.76697Z" fill="#B0AFAF"/>
  <path d="M5.46581 2.79718C4.17721 2.79718 3.12891 3.84555 3.12891 5.13408C3.12891 6.42266 4.17724 7.47099 5.46581 7.47099C6.75438 7.47099 7.80271 6.42266 7.80271 5.13408C7.80271 3.84551 6.75441 2.79718 5.46581 2.79718ZM5.46581 6.50178C4.71164 6.50178 4.09811 5.88822 4.09811 5.13408C4.09811 4.37992 4.71164 3.76639 5.46581 3.76639C6.21998 3.76639 6.83351 4.37995 6.83351 5.13408C6.83351 5.88822 6.21998 6.50178 5.46581 6.50178Z" fill="#B0AFAF"/>
</svg>