<svg width="75" height="41" viewBox="0 0 75 41" fill="none" xmlns="http://www.w3.org/2000/svg">
<g clip-path="url(#clip0_601_9172)">
<path fill-rule="evenodd" clip-rule="evenodd" d="M17.6709 23.0125L17.8784 36.0542C17.8784 36.0542 18.6486 35.8449 20.6812 35.3536C22.082 35.0033 24.4624 34.4366 25.9354 34.3027L25.9821 34.2984H19.8998V26.4301H30.2525V34.0582C31.733 34.025 32.6387 34.0588 32.6387 34.0588V23.0125H17.6709Z" fill="white"/>
<path d="M14.3817 36.5037C14.4231 36.6511 14.485 36.7863 14.5613 36.9108L22.4313 35.0033C22.4255 34.8894 22.1328 34.5509 22.1005 34.4358C21.9656 33.9551 21.6247 33.5867 21.1994 33.3988C21.4473 33.0242 21.538 32.5477 21.4071 32.0812C21.1679 31.2288 20.2828 30.7299 19.4284 30.9696C19.184 31.0382 18.9702 31.1614 18.7945 31.3196C18.442 30.6843 17.6892 30.3465 16.958 30.5516C16.1521 30.7778 15.6631 31.5817 15.8154 32.3887C15.625 32.3702 15.429 32.386 15.2351 32.4404C14.3828 32.6796 13.8838 33.5647 14.1236 34.4191C14.2086 34.7221 14.3768 34.9799 14.5952 35.1757C14.3433 35.5514 14.2496 36.0331 14.3817 36.5037Z" fill="white"/>
<path d="M57.1159 37.2043C57.2027 37.0487 57.2728 36.8825 57.3185 36.7015C57.4252 36.2784 57.3915 35.8545 57.2483 35.4787C57.2713 35.4131 57.2929 35.345 57.3108 35.2738C57.5828 34.1958 56.9506 33.1082 55.899 32.8429C55.5695 32.7598 55.2388 32.7672 54.9297 32.8515C54.8332 32.0591 54.2765 31.3757 53.4731 31.173C52.4215 30.9077 51.3491 31.5653 51.0772 32.6434C51.0756 32.6495 51.0741 32.6556 51.0725 32.6617C50.9374 32.5886 50.792 32.5303 50.6374 32.4913C49.5858 32.2261 48.5134 32.8837 48.2414 33.9617C48.1552 34.3035 48.1596 34.6464 48.2398 34.963L57.1144 37.2017L57.1159 37.2043Z" fill="white"/>
<path d="M32.3566 15.2611L32.3545 16.4044L52.1973 15.9975V15.2234L32.3566 15.2611Z" fill="white"/>
<path fill-rule="evenodd" clip-rule="evenodd" d="M32.3504 14.6738L31.8896 33.9524C31.8896 33.9524 33.3838 33.8694 35.5236 33.865V28.946C35.5236 28.7162 35.5541 28.4935 35.6113 28.2819C35.6785 27.9846 35.8123 27.7089 35.998 27.4681C36.4501 26.8392 37.183 26.4301 38.0095 26.4301C38.8552 26.4301 39.6028 26.8585 40.052 27.5123C40.2067 27.7239 40.3221 27.961 40.3887 28.2153C40.458 28.4466 40.4953 28.6919 40.4953 28.946V34.0144C41.4851 34.0809 42.485 34.1741 43.4495 34.3027C48.704 35.0033 53.6082 36.4045 53.6082 36.4045L52.1974 14.6738H32.3504ZM49.4392 26.4662H44.1234V31.101H49.4392V26.4662ZM49.0277 17.3219V21.1605H44.5346L44.5321 21.1626V21.1605V17.3219H49.0277ZM35.5117 17.3262H40.0072V21.1648H35.5117V17.3262Z" fill="white"/>
<path d="M33.1203 22.9684H17.1772V23.8599H33.1203V22.9684Z" fill="white"/>
<path d="M12 36.8775C12 36.8775 12.1544 36.8289 12.4413 36.7316C12.7281 36.6343 13.1693 36.5045 13.7209 36.3262C14.2724 36.1478 14.9564 35.9856 15.7506 35.791C15.9492 35.7424 16.1478 35.6937 16.3684 35.6451C16.4787 35.6126 16.589 35.5964 16.6993 35.564C16.8096 35.5478 16.92 35.5153 17.0303 35.4991C17.4936 35.4018 17.9569 35.3207 18.4643 35.2072C18.707 35.1586 18.9718 35.1099 19.2365 35.0613C19.5013 35.0126 19.766 34.9802 20.0308 34.9316C20.5824 34.8505 21.1339 34.7532 21.7296 34.6721C22.3032 34.591 22.921 34.5262 23.5167 34.4451C24.1344 34.364 24.7522 34.2991 25.392 34.2505C26.0318 34.2018 26.6937 34.137 27.3556 34.0883C28.0174 34.0397 28.6793 34.0072 29.3633 33.9748C29.6942 33.9586 30.0472 33.9424 30.3781 33.9262C30.7091 33.9099 31.0621 33.9099 31.4151 33.9099C32.099 33.8937 32.783 33.8937 33.489 33.8775C34.1729 33.8937 34.8789 33.8937 35.5629 33.9099C35.9159 33.9099 36.2468 33.9099 36.5998 33.9262C36.9307 33.9424 37.2837 33.9586 37.6147 33.9748C38.2986 34.0072 38.9605 34.0397 39.6224 34.0883C40.2843 34.137 40.9461 34.2018 41.5859 34.2505C42.2258 34.2991 42.8656 34.364 43.4613 34.4451C44.079 34.5262 44.6747 34.591 45.2483 34.6721C45.822 34.7694 46.3956 34.8505 46.9472 34.9316C47.2119 34.9802 47.4767 35.0126 47.7414 35.0613C48.0062 35.1099 48.2488 35.1586 48.5136 35.2072C49.021 35.3045 49.4844 35.4018 49.9477 35.4991C50.058 35.5153 50.1683 35.5478 50.2786 35.564C50.3889 35.5964 50.4992 35.6126 50.6095 35.6451C50.8302 35.6937 51.0287 35.7424 51.2273 35.791C52.0215 35.9856 52.7276 36.1478 53.2791 36.3262C53.8307 36.4883 54.2719 36.6343 54.5588 36.7316C54.8456 36.8289 55 36.8775 55 36.8775C55 36.8775 54.8235 36.8451 54.5146 36.7802C54.2057 36.7153 53.7424 36.6343 53.1688 36.5045C52.882 36.4397 52.5731 36.3748 52.2201 36.3262C51.8671 36.2775 51.492 36.1964 51.0949 36.1316C50.3007 35.9856 49.374 35.8721 48.3592 35.7262C48.1165 35.6937 47.8517 35.6613 47.587 35.6289C47.3222 35.5964 47.0575 35.5802 46.7927 35.5478C46.2411 35.4829 45.6896 35.4343 45.116 35.3694C44.5423 35.3045 43.9466 35.2721 43.3289 35.2234C42.7111 35.1748 42.0934 35.1099 41.4756 35.0937C40.8358 35.0613 40.196 35.0289 39.5341 34.9802C39.2032 34.964 38.8722 34.964 38.5413 34.9478C38.2104 34.9316 37.8794 34.9316 37.5485 34.9153C37.2175 34.8991 36.8866 34.8991 36.5336 34.8829C36.2027 34.8667 35.8497 34.8829 35.5187 34.8667C34.8348 34.8667 34.1729 34.8505 33.489 34.8505C32.805 34.8505 32.1432 34.8667 31.4592 34.8667C31.1283 34.8667 30.7753 34.8667 30.4443 34.8829C30.1134 34.8991 29.7825 34.9153 29.4295 34.9153C29.0985 34.9316 28.7676 34.9316 28.4366 34.9478C28.1057 34.964 27.7748 34.964 27.4438 34.9802C26.7819 35.0126 26.1421 35.0613 25.5023 35.0937C24.8625 35.1262 24.2447 35.191 23.627 35.2234C23.0092 35.2721 22.4135 35.3045 21.8399 35.3694C21.2663 35.4343 20.6927 35.4991 20.1632 35.5478C19.8984 35.5802 19.6337 35.5964 19.3689 35.6289C19.1042 35.6613 18.8615 35.6937 18.5967 35.7262C17.6039 35.8721 16.6773 35.9694 15.861 36.1316C15.0667 36.2775 14.3386 36.3586 13.765 36.5045C13.1914 36.618 12.7281 36.7153 12.4192 36.7802C12.1765 36.8451 12 36.8775 12 36.8775Z" fill="white"/>
<path d="M42.3982 4.8775L55.1397 16.4374H29.6567L42.3982 4.8775Z" fill="white"/>
<path d="M-1 40.4736C-1 40.4736 -0.706745 40.3678 -0.193548 40.1562C0.319648 39.9445 1.08944 39.6623 2.07918 39.2743C3.03226 38.8863 4.27859 38.5336 5.70821 38.075C6.40469 37.8634 7.17449 37.6165 7.98094 37.4048C8.78739 37.1932 9.6305 37.0168 10.5103 36.7699C10.9501 36.6641 11.39 36.5583 11.8666 36.4525C12.3431 36.3466 12.783 36.2761 13.2962 36.1703C14.2493 35.9939 15.239 35.7823 16.2654 35.6059C17.2918 35.4295 18.3548 35.2884 19.4179 35.1121C20.5176 34.9357 21.6173 34.7946 22.7537 34.6888C23.89 34.583 25.0264 34.4419 26.1994 34.3361C27.3724 34.2302 28.5455 34.1597 29.7551 34.0891C30.3416 34.0539 30.9648 34.0186 31.5513 33.9833C32.1378 33.948 32.761 33.948 33.3475 33.948C34.5572 33.9128 35.7669 33.9128 36.9765 33.8775C38.1862 33.9128 39.3959 33.9128 40.6056 33.948C41.1921 33.948 41.8152 33.948 42.4018 33.9833C42.9883 34.0186 43.6114 34.0539 44.1979 34.0891C45.4076 34.1597 46.5806 34.2302 47.7537 34.3361C48.9267 34.4419 50.063 34.583 51.1994 34.6888C52.3358 34.7946 53.4355 34.9357 54.5352 35.1121C55.5982 35.2884 56.6613 35.4295 57.6877 35.6059C58.7141 35.7823 59.7038 35.9939 60.6569 36.1703C61.1334 36.2761 61.61 36.3466 62.0865 36.4525C62.563 36.5583 63.0029 36.6641 63.4428 36.7699C64.3226 36.9816 65.1657 37.1932 65.9721 37.4048C66.7786 37.5812 67.5117 37.8634 68.2082 38.075C69.6012 38.4983 70.8475 38.851 71.8372 39.2743C72.827 39.6271 73.5968 39.9445 74.11 40.1562C74.6232 40.3678 74.9164 40.4736 74.9164 40.4736C74.9164 40.4736 74.6232 40.4031 74.0733 40.262C73.5235 40.1209 72.717 39.9445 71.6906 39.6623C71.434 39.5918 71.1774 39.5212 70.8842 39.4507C70.5909 39.3801 70.2976 39.3449 70.0044 39.2743C69.3812 39.1332 68.7214 38.9921 67.9883 38.851C66.5586 38.5336 64.9457 38.2867 63.1496 37.9692C62.7097 37.8987 62.2698 37.8281 61.7933 37.7576C61.3167 37.687 60.8402 37.6518 60.3636 37.5812C59.4106 37.4401 58.4208 37.3343 57.3944 37.1932C56.368 37.0521 55.305 36.9816 54.2419 36.8757C53.1789 36.7699 52.0792 36.6288 50.9428 36.5936C49.8431 36.523 48.7067 36.4525 47.5337 36.3466C46.9472 36.3114 46.3607 36.3114 45.8108 36.2761C45.2243 36.2408 44.6378 36.2408 44.0513 36.2055C43.4648 36.1703 42.8783 36.1703 42.2918 36.135C41.7053 36.0997 41.1188 36.135 40.4956 36.0997C39.3226 36.0997 38.1129 36.0645 36.9032 36.0645C35.6935 36.0645 34.5205 36.0997 33.3109 36.0997C32.7243 36.0997 32.1378 36.0997 31.5147 36.135C30.9282 36.1703 30.3416 36.2055 29.7551 36.2055C29.1686 36.2408 28.5821 36.2408 27.9956 36.2761C27.4091 36.3114 26.8226 36.3114 26.2727 36.3466C25.1364 36.4172 24 36.523 22.8636 36.5936C21.7273 36.6641 20.6642 36.8052 19.5645 36.8757C18.5015 36.9816 17.4384 37.0521 16.412 37.1932C15.3856 37.3343 14.3959 37.4754 13.4428 37.5812C12.9663 37.6518 12.4897 37.687 12.0132 37.7576C11.5367 37.8281 11.0968 37.8987 10.6569 37.9692C8.89736 38.2867 7.2478 38.4983 5.85484 38.851C5.15836 38.9921 4.46188 39.1332 3.83871 39.2743C3.54545 39.3449 3.21554 39.3801 2.95894 39.4507C2.66569 39.5212 2.40909 39.5918 2.15249 39.6623C1.1261 39.9445 0.319648 40.1209 -0.230205 40.262C-0.706745 40.4031 -1 40.4736 -1 40.4736Z" fill="white"/>
</g>
<defs>
<clipPath id="clip0_601_9172">
<rect width="75" height="40" fill="white" transform="translate(0 0.877502)"/>
</clipPath>
</defs>
</svg>
