<svg xmlns="http://www.w3.org/2000/svg" width="21" height="5" viewBox="0 0 21 5" fill="none">
  <path fill-rule="evenodd" clip-rule="evenodd" d="M4.79967 4.82056H1.76853C1.15769 4.82056 0.662109 4.32497 0.662109 3.71413V1.24773C0.662109 0.648418 1.15769 0.152832 1.76853 0.152832H4.79967C5.41051 0.152832 5.89457 0.648418 5.89457 1.24773V3.71413C5.9061 4.32497 5.41051 4.82056 4.79967 4.82056Z" fill="#B0AFAF"/>
  <path fill-rule="evenodd" clip-rule="evenodd" d="M12.0145 4.82056H8.98338C8.37254 4.82056 7.87695 4.32497 7.87695 3.71413V1.24773C7.87695 0.648418 8.37254 0.152832 8.98338 0.152832H12.0145C12.6254 0.152832 13.1094 0.648418 13.1094 1.24773V3.71413C13.1094 4.32497 12.6254 4.82056 12.0145 4.82056Z" fill="#B0AFAF"/>
  <path fill-rule="evenodd" clip-rule="evenodd" d="M19.2294 4.82056H16.1982C15.5874 4.82056 15.0918 4.32497 15.0918 3.71413V1.24773C15.0918 0.648418 15.5874 0.152832 16.1982 0.152832H19.2294C19.8402 0.152832 20.3243 0.648418 20.3243 1.24773V3.71413C20.3243 4.32497 19.8402 4.82056 19.2294 4.82056Z" fill="#B0AFAF"/>
</svg>