<svg width="75" height="41" viewBox="0 0 75 41" fill="none" xmlns="http://www.w3.org/2000/svg">
<g clip-path="url(#clip0_601_8921)">
<path d="M26.2864 18.4878C22.9005 18.7084 19.5146 19.0392 16.1287 19.4804C16.2015 19.9951 16.2743 20.4731 16.3107 20.9878C19.6602 20.5466 23.0097 20.2157 26.3592 19.9951C26.3592 19.5172 26.3228 19.0025 26.2864 18.4878Z" fill="white"/>
<path d="M16.7476 20.5098C17.3301 25.1422 17.9126 29.7745 18.4951 34.3701C21.4078 34.0025 24.3204 33.7084 27.233 33.5245C26.9417 28.8554 26.6505 24.2231 26.3592 19.554C23.1553 19.7745 19.9514 20.1054 16.7476 20.5098ZM20.1699 32.0172C19.8058 32.054 19.4417 32.0907 19.0777 32.1275C19.0412 31.6863 18.9684 31.2819 18.932 30.8407C19.2961 30.804 19.6602 30.7672 20.0243 30.6937C20.0607 31.1348 20.1335 31.576 20.1699 32.0172ZM19.915 29.6643C19.551 29.701 19.1869 29.7378 18.8228 29.8113C18.7864 29.3701 18.7136 28.9657 18.6772 28.5245C19.0412 28.4878 19.4053 28.451 19.7694 28.3775C19.8058 28.7819 19.8422 29.2231 19.915 29.6643ZM19.6238 27.3113C19.2597 27.3481 18.8956 27.3848 18.4951 27.4584C18.4587 27.0172 18.3859 26.6128 18.3495 26.1716C18.7136 26.1348 19.1141 26.0981 19.4781 26.0245C19.551 26.429 19.5874 26.8701 19.6238 27.3113ZM19.3689 24.9584C19.0048 24.9951 18.6044 25.0319 18.2403 25.1054C18.2039 24.6642 18.1311 24.2598 18.0946 23.8187C18.4587 23.7819 18.8592 23.7084 19.2233 23.6716C19.2961 24.076 19.3325 24.5172 19.3689 24.9584ZM19.1141 22.6054C18.7136 22.6422 18.3495 22.679 17.949 22.7525C17.9126 22.3113 17.8398 21.9069 17.8034 21.4657C18.2039 21.429 18.5679 21.3554 18.9684 21.3187C19.0048 21.7231 19.0777 22.1642 19.1141 22.6054ZM21.6626 31.8334C21.2985 31.8701 20.9345 31.9069 20.5704 31.9437C20.534 31.5025 20.4612 31.0981 20.4247 30.6569C20.7888 30.6201 21.1529 30.5834 21.517 30.5466C21.5898 30.9878 21.6262 31.3922 21.6626 31.8334ZM21.4442 29.4804C21.0801 29.5172 20.716 29.554 20.3519 29.5907C20.3155 29.1495 20.2427 28.7451 20.2063 28.304C20.5704 28.2672 20.9345 28.2304 21.2985 28.1937C21.3713 28.6348 21.4078 29.0393 21.4442 29.4804ZM21.1893 27.1275C20.8252 27.1642 20.4612 27.201 20.0607 27.2378C20.0243 26.7966 19.9514 26.3922 19.915 25.951C20.2791 25.9142 20.6796 25.8775 21.0437 25.8407C21.1165 26.2819 21.1529 26.6863 21.1893 27.1275ZM20.9709 24.7745C20.6068 24.8113 20.2063 24.8481 19.8422 24.8848C19.8058 24.4437 19.733 24.0392 19.6966 23.5981C20.0607 23.5613 20.4612 23.5245 20.8252 23.4878C20.8616 23.929 20.9345 24.3334 20.9709 24.7745ZM20.716 22.4216C20.3155 22.4584 19.9514 22.4951 19.551 22.5319C19.5145 22.0907 19.4417 21.6863 19.4053 21.2451C19.8058 21.2084 20.1699 21.1716 20.5704 21.1348C20.6432 21.576 20.6796 21.9804 20.716 22.4216ZM23.1917 31.6863C22.8277 31.7231 22.4636 31.7598 22.0995 31.7966C22.0631 31.3554 22.0267 30.951 21.9903 30.5098C22.3544 30.4731 22.7184 30.4363 23.0825 30.3995C23.1189 30.8407 23.1553 31.2451 23.1917 31.6863ZM22.9733 29.3334C22.6092 29.3701 22.2451 29.4069 21.8811 29.4437C21.8446 29.0025 21.8082 28.5981 21.7718 28.1569C22.1359 28.1201 22.5 28.0834 22.9005 28.0466C22.9005 28.4878 22.9369 28.8922 22.9733 29.3334ZM22.7548 26.9804C22.3908 27.0172 22.0267 27.054 21.6262 27.0907C21.5898 26.6495 21.5534 26.2451 21.517 25.804C21.8811 25.7672 22.2815 25.7304 22.6456 25.6937C22.682 26.1348 22.7184 26.5392 22.7548 26.9804ZM22.5728 24.6275C22.2087 24.6642 21.8082 24.701 21.4442 24.7378C21.4078 24.2966 21.3713 23.8922 21.3349 23.451C21.699 23.4143 22.0995 23.3775 22.4636 23.3407C22.4636 23.7451 22.5 24.1863 22.5728 24.6275ZM22.3544 22.2745C21.9539 22.3113 21.5898 22.3481 21.1893 22.3848C21.1529 21.9437 21.1165 21.5392 21.0801 21.0981C21.4806 21.0613 21.8446 21.0245 22.2451 20.9878C22.2815 21.3922 22.3179 21.8334 22.3544 22.2745ZM24.7209 31.576C24.3568 31.6128 23.9927 31.6495 23.6286 31.6863C23.5922 31.2451 23.5558 30.8407 23.5194 30.3995C23.8835 30.3628 24.2476 30.326 24.6116 30.2892C24.648 30.6937 24.6845 31.1348 24.7209 31.576ZM24.5388 29.1863C24.1747 29.2231 23.8107 29.2598 23.4466 29.2966C23.4102 28.8554 23.3738 28.451 23.3374 28.0098C23.7014 27.9731 24.0655 27.9363 24.466 27.8995C24.466 28.3407 24.5024 28.7819 24.5388 29.1863ZM24.3204 26.8334C23.9563 26.8701 23.5558 26.9069 23.1917 26.9437C23.1553 26.5025 23.1189 26.0981 23.0825 25.6569C23.4466 25.6201 23.8471 25.5834 24.2112 25.5466C24.284 25.9878 24.284 26.3922 24.3204 26.8334ZM24.1383 24.4804C23.7743 24.5172 23.3738 24.554 23.0097 24.5907C22.9733 24.1495 22.9369 23.7451 22.9005 23.304C23.301 23.2672 23.665 23.2304 24.0655 23.1937C24.0655 23.6348 24.1019 24.0392 24.1383 24.4804ZM23.9563 22.1275C23.5558 22.1642 23.1917 22.201 22.7912 22.2378C22.7548 21.7966 22.7184 21.3922 22.682 20.951C23.0825 20.9142 23.4466 20.8775 23.8471 20.8407C23.8835 21.2451 23.9199 21.6863 23.9563 22.1275ZM26.2136 31.429C25.8495 31.4657 25.4854 31.4657 25.1213 31.5025C25.0849 31.0613 25.0485 30.6569 25.0121 30.2157C25.3762 30.179 25.7403 30.1422 26.1044 30.1422C26.1772 30.5834 26.2136 31.0245 26.2136 31.429ZM26.0679 29.076C25.7039 29.1128 25.3398 29.1128 24.9757 29.1495C24.9393 28.7084 24.9029 28.304 24.8665 27.8628C25.2306 27.826 25.5946 27.7892 25.9951 27.7892C25.9951 28.2304 26.0315 28.6348 26.0679 29.076ZM25.9223 26.7231C25.5582 26.7598 25.1578 26.7598 24.7937 26.7966C24.7573 26.3554 24.7209 25.951 24.6845 25.5098C25.0485 25.4731 25.449 25.4363 25.8131 25.4363C25.8495 25.8775 25.8859 26.2819 25.9223 26.7231ZM25.7403 24.3701C25.3762 24.4069 24.9757 24.4069 24.6116 24.4437C24.5752 24.0025 24.5388 23.5981 24.5024 23.1569C24.9029 23.1201 25.267 23.0834 25.6675 23.0834C25.6675 23.4878 25.7039 23.929 25.7403 24.3701ZM25.5946 21.9804C25.1942 22.0172 24.8301 22.054 24.4296 22.054C24.3932 21.6128 24.3568 21.2084 24.3204 20.7672C24.7209 20.7304 25.0849 20.6937 25.4854 20.6937C25.5218 21.1348 25.5582 21.576 25.5946 21.9804Z" fill="white"/>
<path d="M31.2013 16.5392C29.3809 16.6128 27.5241 16.6863 25.7037 16.7966C25.6673 16.2819 25.6309 15.8039 25.5945 15.2892C27.4513 15.1789 29.3081 15.0686 31.1649 14.9951C31.1649 15.5466 31.2013 16.0245 31.2013 16.5392Z" fill="white"/>
<path d="M26.1406 16.3554C26.5047 22.0907 26.8688 27.826 27.2329 33.5245C28.5799 33.451 29.927 33.3775 31.3105 33.3407C31.1285 27.6054 30.91 21.8701 30.728 16.1348C29.1989 16.1716 27.6698 16.2451 26.1406 16.3554ZM28.1795 31.5392C27.961 31.5392 27.7426 31.576 27.5241 31.576C27.4877 31.1348 27.4877 30.7304 27.4513 30.2892C27.6698 30.2892 27.8882 30.2525 28.1066 30.2525C28.143 30.6569 28.1795 31.0981 28.1795 31.5392ZM28.0702 29.1863C27.8518 29.1863 27.6333 29.2231 27.4149 29.2231C27.3785 28.7819 27.3785 28.3775 27.3421 27.9363C27.5605 27.9363 27.779 27.8995 27.9974 27.8995C28.0338 28.3039 28.0338 28.7451 28.0702 29.1863ZM27.9246 26.7966C27.7062 26.7966 27.4877 26.8334 27.2693 26.8334C27.2329 26.3922 27.2329 25.9878 27.1964 25.5466C27.4149 25.5466 27.6333 25.5098 27.8882 25.5098C27.8882 25.951 27.9246 26.3922 27.9246 26.7966ZM27.8154 24.4437C27.5969 24.4437 27.3421 24.4804 27.1236 24.4804C27.0872 24.0392 27.0872 23.6348 27.0508 23.1937C27.2693 23.1937 27.5241 23.1569 27.7426 23.1569C27.7426 23.5981 27.779 24.0025 27.8154 24.4437ZM27.6698 22.0907C27.4513 22.0907 27.1964 22.1275 26.978 22.1275C26.9416 21.6863 26.9416 21.2819 26.9052 20.8407C27.1236 20.8407 27.3785 20.8039 27.5969 20.8039C27.6333 21.2084 27.6333 21.6495 27.6698 22.0907ZM27.5241 19.701C27.3057 19.701 27.0508 19.7378 26.8324 19.7378C26.796 19.2966 26.796 18.8922 26.7596 18.451C26.978 18.451 27.2329 18.4142 27.4513 18.4142C27.4877 18.8554 27.5241 19.2966 27.5241 19.701ZM29.4901 31.4657C29.2717 31.4657 29.0532 31.5025 28.8348 31.5025C28.7984 31.0613 28.7984 30.6569 28.762 30.2157C28.9804 30.2157 29.1989 30.1789 29.4173 30.1789C29.4537 30.6201 29.4901 31.0245 29.4901 31.4657ZM29.3809 29.1128C29.1625 29.1128 28.944 29.1495 28.7256 29.1495C28.6892 28.7084 28.6892 28.3039 28.6528 27.8628C28.8712 27.8628 29.0897 27.826 29.3081 27.826C29.3445 28.2304 29.3809 28.6716 29.3809 29.1128ZM29.2717 26.7231C29.0532 26.7231 28.8348 26.7598 28.6164 26.7598C28.5799 26.3187 28.5799 25.9142 28.5435 25.4731C28.762 25.4731 28.9804 25.4363 29.2353 25.4363C29.2353 25.8775 29.2717 26.3187 29.2717 26.7231ZM29.1625 24.3701C28.944 24.3701 28.6892 24.4069 28.4707 24.4069C28.4343 23.9657 28.4343 23.5613 28.3979 23.1201C28.6164 23.1201 28.8712 23.0834 29.0897 23.0834C29.1261 23.5245 29.1625 23.9289 29.1625 24.3701ZM29.0532 22.0172C28.8348 22.0172 28.5799 22.0539 28.3615 22.0539C28.3251 21.6128 28.3251 21.2084 28.2887 20.7672C28.5071 20.7672 28.762 20.7304 28.9804 20.7304C29.0168 21.1348 29.0532 21.576 29.0532 22.0172ZM28.944 19.6275C28.7256 19.6275 28.4707 19.6642 28.2523 19.6642C28.2159 19.2231 28.2159 18.8186 28.1795 18.3775C28.3979 18.3775 28.6528 18.3407 28.9076 18.3407C28.9076 18.7819 28.944 19.2231 28.944 19.6275ZM30.8008 31.3922C30.5824 31.3922 30.3639 31.3922 30.1455 31.4289C30.1455 30.9878 30.1091 30.5834 30.1091 30.1422C30.3275 30.1422 30.546 30.1422 30.7644 30.1054C30.7644 30.5466 30.7644 30.9878 30.8008 31.3922ZM30.728 29.0392C30.5096 29.0392 30.2911 29.0392 30.0727 29.076C30.0727 28.6348 30.0363 28.2304 30.0363 27.7892C30.2547 27.7892 30.4731 27.7892 30.6916 27.7525C30.6916 28.1937 30.6916 28.5981 30.728 29.0392ZM30.6188 26.6863C30.4003 26.6863 30.1819 26.6863 29.9634 26.7231C29.9634 26.2819 29.927 25.8775 29.927 25.4363C30.1455 25.4363 30.3639 25.3995 30.6188 25.3995C30.5824 25.8039 30.6188 26.2451 30.6188 26.6863ZM30.546 24.2966C30.3275 24.2966 30.0727 24.2966 29.8542 24.3334C29.8542 23.8922 29.8178 23.4878 29.8178 23.0466C30.0363 23.0466 30.2911 23.0098 30.5096 23.0098C30.5096 23.451 30.5096 23.8922 30.546 24.2966ZM30.4367 21.9437C30.2183 21.9437 29.9634 21.9437 29.745 21.9804C29.745 21.5392 29.7086 21.1348 29.7086 20.6937C29.927 20.6937 30.1819 20.6569 30.4003 20.6569C30.4003 21.0981 30.4367 21.5025 30.4367 21.9437ZM30.3639 19.5907C30.1455 19.5907 29.8906 19.5907 29.6722 19.6275C29.6722 19.1863 29.6358 18.7819 29.6358 18.3407C29.8906 18.3407 30.1091 18.3039 30.3639 18.3039C30.3275 18.7084 30.3275 19.1495 30.3639 19.5907Z" fill="white"/>
<path d="M60.1457 20.0686C56.7961 19.5172 53.4102 19.1128 50.0243 18.8186C49.9879 19.3333 49.9515 19.8113 49.8787 20.326C53.2282 20.6201 56.5777 21.0613 59.9272 21.576C59.9636 21.0613 60.0728 20.5833 60.1457 20.0686Z" fill="white"/>
<path d="M50.3883 19.9216C49.9514 24.554 49.5145 29.2231 49.114 33.8555C52.0266 34.1128 54.9393 34.4805 57.8519 34.9584C58.58 30.3628 59.2718 25.7305 59.9999 21.1349C56.7961 20.6202 53.5922 20.2157 50.3883 19.9216ZM51.2257 31.9069C50.8616 31.8702 50.4975 31.8334 50.1334 31.7966C50.1698 31.3555 50.2062 30.951 50.2427 30.5099C50.6067 30.5466 50.9708 30.5834 51.3349 30.6202C51.3349 31.0613 51.2985 31.4657 51.2257 31.9069ZM51.4805 29.554C51.1164 29.5172 50.7524 29.4805 50.3883 29.4437C50.4247 29.0025 50.4611 28.5981 50.4975 28.1569C50.8616 28.1937 51.2257 28.2305 51.5897 28.2672C51.5897 28.7084 51.5169 29.1128 51.4805 29.554ZM51.7354 27.201C51.3713 27.1643 51.0072 27.1275 50.6067 27.0907C50.6431 26.6496 50.6796 26.2452 50.716 25.804C51.08 25.8407 51.4805 25.8775 51.8446 25.9143C51.8446 26.3555 51.7718 26.7599 51.7354 27.201ZM51.9902 24.8481C51.6262 24.8113 51.2257 24.7746 50.8616 24.7378C50.898 24.2966 50.9344 23.8922 50.9708 23.451C51.3349 23.4878 51.7354 23.5246 52.0995 23.5613C52.063 24.0025 52.0266 24.4069 51.9902 24.8481ZM52.2451 22.4952C51.8446 22.4584 51.4805 22.4216 51.08 22.3849C51.1164 21.9437 51.1529 21.5393 51.1893 21.0981C51.5897 21.1349 51.9538 21.1716 52.3543 21.2084C52.3179 21.6496 52.2815 22.054 52.2451 22.4952ZM52.7548 32.0907C52.3907 32.054 52.0266 32.0172 51.6626 31.9805C51.699 31.5393 51.7718 31.1349 51.8082 30.6937C52.1723 30.7305 52.5363 30.7672 52.9004 30.804C52.864 31.2452 52.7912 31.6496 52.7548 32.0907ZM53.0096 29.7378C52.6456 29.701 52.2815 29.6643 51.9174 29.6275C51.9538 29.1863 52.0266 28.7819 52.063 28.3407C52.4271 28.3775 52.7912 28.4143 53.1553 28.451C53.1189 28.8922 53.0825 29.2966 53.0096 29.7378ZM53.3009 27.3849C52.9368 27.3481 52.5728 27.3113 52.1723 27.2378C52.2087 26.7966 52.2815 26.3922 52.3179 25.951C52.682 25.9878 53.0825 26.0246 53.4465 26.0981C53.4101 26.5393 53.3373 26.9437 53.3009 27.3849ZM53.5922 25.0319C53.2281 24.9952 52.8276 24.9584 52.4635 24.8849C52.4999 24.4437 52.5728 24.0393 52.6092 23.5981C52.9732 23.6349 53.3737 23.6716 53.7378 23.7452C53.665 24.1863 53.6286 24.5907 53.5922 25.0319ZM53.847 22.679C53.4465 22.6422 53.0825 22.6055 52.682 22.5319C52.7184 22.0907 52.7912 21.6863 52.8276 21.2452C53.2281 21.2819 53.5922 21.3187 53.9927 21.3922C53.9563 21.8334 53.8834 22.2378 53.847 22.679ZM54.2475 32.2746C53.8834 32.2378 53.5194 32.1643 53.1553 32.1275C53.1917 31.6863 53.2645 31.2819 53.3009 30.8407C53.665 30.8775 54.0291 30.9143 54.3931 30.9878C54.3567 31.429 54.3203 31.8334 54.2475 32.2746ZM54.5752 29.9216C54.2111 29.8849 53.847 29.8113 53.4829 29.7746C53.5194 29.3334 53.5922 28.929 53.6286 28.4878C53.9927 28.5246 54.3567 28.5981 54.7208 28.6349C54.6844 29.076 54.6116 29.4805 54.5752 29.9216ZM54.8664 27.5687C54.5024 27.5319 54.1383 27.4584 53.7378 27.4216C53.7742 26.9805 53.847 26.576 53.8834 26.1349C54.2475 26.1716 54.648 26.2452 55.0121 26.2819C54.9757 26.7231 54.9029 27.1643 54.8664 27.5687ZM55.1577 25.2157C54.7936 25.179 54.3931 25.1055 54.0291 25.0687C54.0655 24.6275 54.1383 24.2231 54.1747 23.7819C54.5388 23.8187 54.9393 23.8922 55.3033 23.929C55.2669 24.3702 55.2305 24.8113 55.1577 25.2157ZM55.449 22.8996C55.0485 22.8628 54.6844 22.7893 54.2839 22.7525C54.3203 22.3113 54.3931 21.9069 54.4296 21.4657C54.83 21.5025 55.1941 21.576 55.5946 21.6128C55.5582 22.0172 55.5218 22.4584 55.449 22.8996ZM55.7766 32.4952C55.4126 32.4584 55.0485 32.3849 54.6844 32.3481C54.7572 31.9069 54.7936 31.5025 54.8664 31.0613C55.2305 31.0981 55.5946 31.1716 55.9587 31.2084C55.8859 31.6128 55.8495 32.054 55.7766 32.4952ZM56.1043 30.1422C55.7402 30.1055 55.3762 30.0319 55.0121 29.9952C55.0849 29.554 55.1213 29.1496 55.1941 28.7084C55.5582 28.7452 55.9223 28.8187 56.2863 28.8555C56.2135 29.2966 56.1407 29.701 56.1043 30.1422ZM56.432 27.7893C56.0679 27.7525 55.7038 27.679 55.3033 27.6422C55.3761 27.201 55.4126 26.7966 55.4854 26.3555C55.8495 26.3922 56.2499 26.4657 56.614 26.5025C56.5412 26.9437 56.4684 27.3481 56.432 27.7893ZM56.7596 25.4363C56.3956 25.3996 55.9951 25.326 55.631 25.2893C55.7038 24.8481 55.7402 24.4437 55.813 24.0025C56.1771 24.0393 56.5776 24.1128 56.9417 24.1496C56.8689 24.5907 56.7961 25.0319 56.7596 25.4363ZM57.0873 23.0834C56.6868 23.0466 56.3228 22.9731 55.9223 22.9363C55.9951 22.4952 56.0315 22.0907 56.1043 21.6496C56.5048 21.6863 56.8689 21.7599 57.2694 21.7966C57.1965 22.2378 57.1237 22.679 57.0873 23.0834ZM57.2694 32.7157C56.9053 32.679 56.5412 32.6055 56.1771 32.5687C56.2499 32.1275 56.2863 31.7231 56.3592 31.2819C56.7232 31.3187 57.0873 31.3922 57.4514 31.429C57.415 31.8334 57.3422 32.2746 57.2694 32.7157ZM57.6334 30.3628C57.2694 30.2893 56.9053 30.2525 56.5412 30.2157C56.614 29.7746 56.6504 29.3702 56.7232 28.929C57.0873 28.9657 57.4514 29.0393 57.8155 29.076C57.7427 29.5172 57.7063 29.9216 57.6334 30.3628ZM57.9975 28.0099C57.6334 27.9363 57.2694 27.8996 56.8689 27.826C56.9417 27.3849 56.9781 26.9805 57.0509 26.5393C57.415 26.576 57.8155 26.6496 58.1796 26.7231C58.1067 27.1643 58.0339 27.6055 57.9975 28.0099ZM58.3252 25.6937C57.9611 25.6202 57.5606 25.5834 57.1965 25.5099C57.2694 25.0687 57.3058 24.6643 57.3786 24.2231C57.7427 24.2599 58.1431 24.3334 58.5072 24.4069C58.4708 24.8113 58.398 25.2525 58.3252 25.6937ZM58.6893 23.3407C58.2888 23.2672 57.9247 23.2305 57.5242 23.1569C57.597 22.7157 57.6334 22.3113 57.7062 21.8702C58.1067 21.9437 58.4708 21.9805 58.8713 22.054C58.7985 22.4952 58.7621 22.8996 58.6893 23.3407Z" fill="white"/>
<path d="M65.3882 19.2598C63.5678 18.929 61.7474 18.5981 59.927 18.304C59.9998 17.7893 60.0726 17.3113 60.1454 16.8334C61.9658 17.1275 63.8226 17.4216 65.643 17.7893C65.5702 18.2672 65.461 18.7451 65.3882 19.2598Z" fill="white"/>
<path d="M60.4732 17.9363C59.5994 23.5981 58.6892 29.2598 57.8154 34.9584C59.1625 35.179 60.5096 35.3995 61.8203 35.6569C62.8761 30.0319 63.9319 24.3701 64.9513 18.7451C63.4586 18.451 61.9659 18.1937 60.4732 17.9363ZM59.1989 33.2304C58.9805 33.1937 58.762 33.1569 58.5436 33.1201C58.6164 32.679 58.6892 32.2745 58.762 31.8334C58.9805 31.8701 59.1989 31.9069 59.4174 31.9437C59.3081 32.3848 59.2717 32.7893 59.1989 33.2304ZM59.563 30.8775C59.3446 30.8407 59.1261 30.804 58.9077 30.7672C58.9805 30.326 59.0533 29.9216 59.1261 29.4804C59.3446 29.5172 59.563 29.554 59.7814 29.5907C59.7086 30.0319 59.6358 30.4731 59.563 30.8775ZM59.9635 28.5613C59.745 28.5245 59.5266 28.4878 59.3081 28.451C59.381 28.0098 59.4538 27.6054 59.5266 27.1643C59.745 27.201 59.9635 27.2378 60.1819 27.2745C60.0727 27.7157 60.0363 28.1201 59.9635 28.5613ZM60.3276 26.2084C60.1091 26.1716 59.8907 26.1348 59.6358 26.0981C59.7086 25.6569 59.7814 25.2525 59.8543 24.8113C60.0727 24.8481 60.3276 24.8848 60.546 24.9216C60.4732 25.3628 60.4004 25.804 60.3276 26.2084ZM60.7281 23.8922C60.5096 23.8554 60.2547 23.8187 60.0363 23.7819C60.1091 23.3407 60.1819 22.9363 60.2547 22.4951C60.4732 22.5319 60.728 22.5687 60.9465 22.6054C60.8373 23.0466 60.8009 23.451 60.7281 23.8922ZM61.0921 21.5393C60.8737 21.5025 60.6188 21.4657 60.4004 21.429C60.4732 20.9878 60.546 20.5834 60.6188 20.1422C60.8373 20.179 61.0921 20.2157 61.3106 20.2525C61.2378 20.6937 61.1649 21.1348 61.0921 21.5393ZM60.4732 33.451C60.2548 33.4142 60.0363 33.3775 59.8179 33.3407C59.8907 32.8995 59.9635 32.4951 60.0363 32.054C60.2547 32.0907 60.4732 32.1275 60.6916 32.1642C60.6188 32.6054 60.546 33.0098 60.4732 33.451ZM60.8737 31.0981C60.6552 31.0613 60.4368 31.0245 60.2183 30.9878C60.2912 30.5466 60.364 30.1422 60.4368 29.701C60.6552 29.7378 60.8737 29.7745 61.0921 29.8113C61.0193 30.2525 60.9465 30.6937 60.8737 31.0981ZM61.2742 28.7819C61.0557 28.7451 60.8373 28.7084 60.6188 28.6716C60.6916 28.2304 60.7645 27.826 60.8373 27.3848C61.0557 27.4216 61.2742 27.4584 61.4926 27.4951C61.4198 27.9363 61.347 28.3407 61.2742 28.7819ZM61.6746 26.4657C61.4562 26.429 61.2378 26.3922 60.9829 26.3554C61.0557 25.9143 61.1285 25.5098 61.2014 25.0687C61.4198 25.1054 61.6382 25.1422 61.8931 25.179C61.8203 25.5834 61.7475 26.0245 61.6746 26.4657ZM62.0751 24.1128C61.8567 24.076 61.6018 24.0393 61.3834 24.0025C61.4562 23.5613 61.529 23.1569 61.6018 22.7157C61.8203 22.7525 62.0751 22.7893 62.2936 22.826C62.2208 23.2672 62.148 23.7084 62.0751 24.1128ZM62.4756 21.7966C62.2572 21.7598 62.0023 21.7231 61.7839 21.6863C61.8567 21.2451 61.9295 20.8407 62.0023 20.3995C62.2208 20.4363 62.4756 20.4731 62.6941 20.5098C62.6213 20.951 62.5484 21.3554 62.4756 21.7966ZM61.7475 33.6716C61.529 33.6348 61.3106 33.5981 61.0921 33.5613C61.1649 33.1201 61.2378 32.7157 61.3106 32.2745C61.529 32.3113 61.7475 32.3481 61.9659 32.3848C61.9295 32.826 61.8203 33.2672 61.7475 33.6716ZM62.1844 31.3554C61.9659 31.3187 61.7475 31.2819 61.529 31.2451C61.6018 30.804 61.6747 30.3995 61.7475 29.9584C61.9659 29.9951 62.1844 30.0319 62.4028 30.0687C62.33 30.5098 62.2572 30.9143 62.1844 31.3554ZM62.6213 29.0025C62.4028 28.9657 62.1844 28.929 61.9659 28.8922C62.0387 28.451 62.1115 28.0466 62.1844 27.6054C62.4028 27.6422 62.6213 27.679 62.8397 27.7157C62.7669 28.1569 62.6941 28.5981 62.6213 29.0025ZM63.0217 26.6863C62.8033 26.6495 62.5848 26.6128 62.33 26.576C62.4028 26.1348 62.4756 25.7304 62.5484 25.2893C62.7669 25.326 62.9853 25.3628 63.2402 25.3995C63.2038 25.8407 63.0946 26.2819 63.0217 26.6863ZM63.4586 24.3701C63.2402 24.3334 62.9853 24.2966 62.7669 24.2598C62.8397 23.8187 62.9125 23.4142 62.9853 22.9731C63.2038 23.0098 63.4586 23.0466 63.6771 23.0834C63.6043 23.5245 63.5314 23.929 63.4586 24.3701ZM63.8955 22.054C63.6771 22.0172 63.4222 21.9804 63.2038 21.9437C63.2766 21.5025 63.3494 21.0981 63.4222 20.6569C63.6407 20.6937 63.8955 20.7304 64.114 20.804C64.0412 21.2084 63.9683 21.6128 63.8955 22.054Z" fill="white"/>
<path d="M43.4343 16.2084C40.012 16.0613 36.5532 15.9878 33.0945 16.0613C33.0945 16.576 33.1309 17.054 33.1309 17.5687C36.5532 17.4951 39.9391 17.5687 43.3615 17.7157C43.3979 17.201 43.3979 16.6863 43.4343 16.2084Z" fill="white"/>
<path d="M48.7863 12.679C46.8931 12.5319 45.0363 12.4216 43.1431 12.3113C43.1795 11.7966 43.1795 11.3187 43.2159 10.804C45.1091 10.8775 47.0387 10.9878 48.9319 11.1716C48.8591 11.6495 48.8227 12.1642 48.7863 12.679Z" fill="white"/>
<path d="M33.6042 17.1275C33.6771 22.4951 33.7863 27.8995 33.8591 33.2672C36.7717 33.2304 39.7208 33.2672 42.6334 33.4143C42.8882 28.0466 43.1431 22.679 43.3979 17.2745C40.1212 17.1275 36.8809 17.0907 33.6042 17.1275ZM35.7887 31.3187C35.4246 31.3187 35.0606 31.3187 34.6965 31.3187C34.6965 30.8775 34.6965 30.4731 34.6965 30.0319C35.0606 30.0319 35.4246 30.0319 35.7887 30.0319C35.7887 30.4363 35.7887 30.8775 35.7887 31.3187ZM35.7887 28.929C35.4246 28.929 35.0606 28.929 34.6965 28.929C34.6965 28.4878 34.6965 28.0834 34.6965 27.6422C35.0606 27.6422 35.4246 27.6422 35.8251 27.6422C35.7887 28.0834 35.7887 28.5245 35.7887 28.929ZM35.7887 26.576C35.4246 26.576 35.0241 26.576 34.6601 26.576C34.6601 26.1348 34.6601 25.7304 34.6601 25.2893C35.0241 25.2893 35.4246 25.2893 35.7887 25.2893C35.7887 25.7304 35.7887 26.1348 35.7887 26.576ZM35.7887 24.2231C35.4246 24.2231 35.0241 24.2231 34.6601 24.2231C34.6601 23.7819 34.6601 23.3775 34.6601 22.9363C35.0606 22.9363 35.4246 22.9363 35.8251 22.9363C35.7523 23.3407 35.7887 23.7819 35.7887 24.2231ZM35.7523 21.8334C35.3518 21.8334 34.9877 21.8334 34.5873 21.8334C34.5873 21.3922 34.5873 20.9878 34.5873 20.5466C34.9877 20.5466 35.3518 20.5466 35.7523 20.5466C35.7523 20.9878 35.7523 21.3922 35.7523 21.8334ZM35.7523 19.4804C35.3518 19.4804 34.9513 19.4804 34.5873 19.4804C34.5873 19.0393 34.5873 18.6348 34.5873 18.1937C34.9877 18.1937 35.3882 18.1937 35.7887 18.1937C35.7523 18.5981 35.7523 19.0393 35.7523 19.4804ZM37.3178 31.3187C36.9538 31.3187 36.5897 31.3187 36.2256 31.3187C36.2256 30.8775 36.2256 30.4731 36.2256 30.0319C36.5897 30.0319 36.9538 30.0319 37.3178 30.0319C37.3178 30.4363 37.3178 30.8775 37.3178 31.3187ZM37.3178 28.929C36.9538 28.929 36.5897 28.929 36.2256 28.929C36.2256 28.4878 36.2256 28.0834 36.2256 27.6422C36.5897 27.6422 36.9538 27.6422 37.3542 27.6422C37.3178 28.0834 37.3178 28.5245 37.3178 28.929ZM37.3542 26.576C36.9902 26.576 36.5897 26.576 36.2256 26.576C36.2256 26.1348 36.2256 25.7304 36.2256 25.2893C36.5897 25.2893 36.9902 25.2893 37.3542 25.2893C37.3542 25.7304 37.3542 26.1348 37.3542 26.576ZM37.3542 24.2231C36.9902 24.2231 36.5897 24.2231 36.2256 24.2231C36.2256 23.7819 36.2256 23.3775 36.2256 22.9363C36.6261 22.9363 36.9902 22.9363 37.3907 22.9363C37.3907 23.3407 37.3542 23.7819 37.3542 24.2231ZM37.3907 21.8334C36.9902 21.8334 36.6261 21.8334 36.2256 21.8334C36.2256 21.3922 36.2256 20.9878 36.2256 20.5466C36.6261 20.5466 36.9902 20.5466 37.3907 20.5466C37.3907 20.9878 37.3907 21.429 37.3907 21.8334ZM37.3907 19.4804C36.9902 19.4804 36.5897 19.4804 36.2256 19.4804C36.2256 19.0393 36.2256 18.6348 36.2256 18.1937C36.6261 18.1937 37.0266 18.1937 37.4271 18.1937C37.4271 18.6348 37.4271 19.0393 37.3907 19.4804ZM40.3397 31.3554C39.9756 31.3554 39.6115 31.3187 39.2475 31.3187C39.2475 30.8775 39.2839 30.4731 39.2839 30.0319C39.6479 30.0319 40.012 30.0319 40.3761 30.0687C40.3761 30.5098 40.3397 30.951 40.3397 31.3554ZM40.4125 29.0025C40.0484 29.0025 39.6843 28.9657 39.3203 28.9657C39.3203 28.5245 39.3567 28.1201 39.3567 27.679C39.7208 27.679 40.0848 27.679 40.4853 27.7157C40.4489 28.1569 40.4125 28.5613 40.4125 29.0025ZM40.4853 26.6495C40.1212 26.6495 39.7208 26.6128 39.3567 26.6128C39.3567 26.1716 39.3931 25.7672 39.3931 25.326C39.7572 25.326 40.1576 25.326 40.5217 25.3628C40.5217 25.7672 40.4853 26.2084 40.4853 26.6495ZM40.5581 24.2598C40.1941 24.2598 39.7936 24.2231 39.4295 24.2231C39.4295 23.7819 39.4659 23.3775 39.4659 22.9363C39.8664 22.9363 40.2305 22.9731 40.6309 22.9731C40.5945 23.4143 40.5581 23.8554 40.5581 24.2598ZM40.6309 21.9069C40.2305 21.9069 39.8664 21.8701 39.4659 21.8701C39.4659 21.429 39.5023 21.0245 39.5023 20.5834C39.9028 20.5834 40.2669 20.6201 40.6674 20.6201C40.6674 21.0613 40.6309 21.4657 40.6309 21.9069ZM40.7038 19.554C40.3033 19.554 39.9028 19.5172 39.5387 19.5172C39.5387 19.076 39.5751 18.6716 39.5751 18.2304C39.9756 18.2304 40.3761 18.2672 40.7766 18.2672C40.7038 18.6716 40.7038 19.1128 40.7038 19.554ZM41.8688 31.429C41.5047 31.429 41.1407 31.3922 40.7766 31.3922C40.7766 30.951 40.813 30.5466 40.813 30.1054C41.1771 30.1054 41.5411 30.1422 41.9052 30.1422C41.9052 30.5834 41.8688 30.9878 41.8688 31.429ZM41.9416 29.076C41.5775 29.076 41.2135 29.0393 40.8494 29.0393C40.8494 28.5981 40.8858 28.1937 40.8858 27.7525C41.2499 27.7525 41.614 27.7893 42.0144 27.7893C41.978 28.1937 41.978 28.6348 41.9416 29.076ZM42.0508 26.6863C41.6868 26.6863 41.2863 26.6495 40.9222 26.6495C40.9222 26.2084 40.9586 25.804 40.9586 25.3628C41.3227 25.3628 41.7232 25.3995 42.0873 25.3995C42.0873 25.8407 42.0873 26.2819 42.0508 26.6863ZM42.1601 24.3334C41.796 24.3334 41.3955 24.2966 41.0314 24.2966C41.0314 23.8554 41.0678 23.451 41.0678 23.0098C41.4683 23.0098 41.8324 23.0466 42.2329 23.0466C42.1965 23.4878 42.1601 23.8922 42.1601 24.3334ZM42.2329 21.9804C41.8324 21.9804 41.4683 21.9437 41.0678 21.9437C41.0678 21.5025 41.1042 21.0981 41.1042 20.6569C41.5047 20.6569 41.8688 20.6937 42.2693 20.6937C42.2693 21.0981 42.2693 21.5393 42.2329 21.9804ZM42.3421 19.5907C41.9416 19.5907 41.5411 19.554 41.1771 19.554C41.1771 19.1128 41.2135 18.7084 41.2135 18.2672C41.614 18.2672 42.0144 18.304 42.4149 18.304C42.3785 18.7451 42.3421 19.1863 42.3421 19.5907Z" fill="white"/>
<path d="M43.6529 11.9069C43.3253 19.076 42.9976 26.2451 42.6699 33.4142C44.017 33.4878 45.3641 33.5613 46.7476 33.6716C47.2937 26.5025 47.8398 19.3701 48.3495 12.201C46.7476 12.0907 45.1821 11.9804 43.6529 11.9069ZM43.7986 31.9437C43.5801 31.9437 43.3617 31.9069 43.1432 31.9069C43.1796 31.4657 43.1796 31.0613 43.216 30.6201C43.4345 30.6201 43.6529 30.6569 43.8714 30.6569C43.835 31.0981 43.7986 31.5025 43.7986 31.9437ZM43.9078 29.5907C43.6893 29.5907 43.4709 29.5539 43.2524 29.5539C43.2889 29.1128 43.2889 28.7084 43.3253 28.2672C43.5437 28.2672 43.7622 28.3039 43.9806 28.3039C43.9806 28.7451 43.9442 29.1495 43.9078 29.5907ZM44.0534 27.2378C43.835 27.2378 43.6165 27.201 43.3981 27.201C43.4345 26.7598 43.4345 26.3554 43.4709 25.9142C43.6893 25.9142 43.9078 25.951 44.1626 25.951C44.0898 26.3554 44.0534 26.7966 44.0534 27.2378ZM44.1626 24.8481C43.9442 24.8481 43.7257 24.8113 43.4709 24.8113C43.5073 24.3701 43.5073 23.9657 43.5437 23.5245C43.7622 23.5245 44.017 23.5613 44.2355 23.5613C44.2355 24.0025 44.1991 24.4437 44.1626 24.8481ZM44.3083 22.4951C44.0898 22.4951 43.835 22.4584 43.6165 22.4584C43.6529 22.0172 43.6529 21.6128 43.6893 21.1716C43.9078 21.1716 44.1626 21.2084 44.3811 21.2084C44.3447 21.6495 44.3083 22.0539 44.3083 22.4951ZM44.4175 20.1422C44.199 20.1422 43.9442 20.1054 43.7257 20.1054C43.7622 19.6642 43.7622 19.2598 43.7986 18.8187C44.017 18.8187 44.2719 18.8554 44.4903 18.8554C44.4903 19.2598 44.4539 19.701 44.4175 20.1422ZM44.5631 17.7525C44.3083 17.7525 44.0898 17.7157 43.835 17.7157C43.8714 17.2745 43.8714 16.8701 43.9078 16.4289C44.1626 16.4289 44.3811 16.4657 44.6359 16.4657C44.5995 16.9069 44.5631 17.3481 44.5631 17.7525ZM44.6723 15.3995C44.4175 15.3995 44.199 15.3628 43.9442 15.3628C43.9806 14.9216 43.9806 14.5172 44.017 14.076C44.2719 14.076 44.4903 14.1128 44.7452 14.1128C44.7452 14.5539 44.7088 14.9584 44.6723 15.3995ZM45.0728 32.0172C44.8544 32.0172 44.6359 31.9804 44.4175 31.9804C44.4539 31.5392 44.4539 31.1348 44.4903 30.6937C44.7088 30.6937 44.9272 30.7304 45.1457 30.7304C45.1457 31.1716 45.1092 31.6128 45.0728 32.0172ZM45.2185 29.6642C45 29.6642 44.7816 29.6275 44.5631 29.6275C44.5995 29.1863 44.5995 28.7819 44.6359 28.3407C44.8544 28.3407 45.0728 28.3775 45.2913 28.3775C45.2913 28.8187 45.2549 29.2231 45.2185 29.6642ZM45.4005 27.3113C45.1821 27.3113 44.9636 27.2745 44.7452 27.2745C44.7816 26.8334 44.7816 26.429 44.818 25.9878C45.0364 25.9878 45.2549 26.0245 45.5097 26.0245C45.4369 26.4289 45.4005 26.8701 45.4005 27.3113ZM45.5461 24.9584C45.3277 24.9584 45.1092 24.9216 44.8544 24.9216C44.8908 24.4804 44.8908 24.076 44.9272 23.6348C45.1457 23.6348 45.4005 23.6716 45.619 23.6716C45.5825 24.076 45.5461 24.5172 45.5461 24.9584ZM45.6918 22.5687C45.4733 22.5687 45.2185 22.5319 45 22.5319C45.0364 22.0907 45.0364 21.6863 45.0728 21.2451C45.2913 21.2451 45.5461 21.2819 45.7646 21.2819C45.7282 21.7231 45.7282 22.1642 45.6918 22.5687ZM45.8374 20.2157C45.619 20.2157 45.3641 20.1789 45.1457 20.1789C45.1821 19.7378 45.1821 19.3334 45.2185 18.8922C45.4369 18.8922 45.6918 18.9289 45.9102 18.9289C45.8738 19.3701 45.8738 19.7745 45.8374 20.2157ZM45.983 17.8628C45.7282 17.8628 45.5097 17.826 45.2549 17.826C45.2913 17.3848 45.2913 16.9804 45.3277 16.5392C45.5825 16.5392 45.801 16.576 46.0558 16.576C46.0194 16.9804 46.0194 17.4216 45.983 17.8628ZM46.1287 15.5098C45.8738 15.5098 45.6554 15.4731 45.4005 15.4731C45.4369 15.0319 45.4369 14.6275 45.4733 14.1863C45.7282 14.1863 45.9466 14.2231 46.2015 14.2231C46.2015 14.6275 46.1651 15.0687 46.1287 15.5098ZM46.3835 32.1275C46.1651 32.1275 45.9466 32.0907 45.7282 32.0907C45.7646 31.6495 45.801 31.2451 45.801 30.8039C46.0194 30.8039 46.2379 30.8407 46.4563 30.8407C46.4563 31.2451 46.4199 31.6863 46.3835 32.1275ZM46.5656 29.7745C46.3471 29.7745 46.1287 29.7378 45.9102 29.7378C45.9466 29.2966 45.983 28.8922 45.983 28.451C46.2015 28.451 46.4199 28.4878 46.6384 28.4878C46.602 28.8922 46.602 29.3334 46.5656 29.7745ZM46.7112 27.3848C46.4927 27.3848 46.2743 27.3481 46.0558 27.3481C46.0923 26.9069 46.1287 26.5025 46.1287 26.0613C46.3471 26.0613 46.5656 26.0981 46.8204 26.0981C46.784 26.5392 46.7476 26.9804 46.7112 27.3848ZM46.8932 25.0319C46.6748 25.0319 46.4563 24.9951 46.2015 24.9951C46.2379 24.5539 46.2743 24.1495 46.2743 23.7084C46.4927 23.7084 46.7476 23.7451 46.966 23.7451C46.966 24.1863 46.9296 24.5907 46.8932 25.0319ZM47.0753 22.6789C46.8568 22.6789 46.602 22.6422 46.3835 22.6422C46.4199 22.201 46.4563 21.7966 46.4563 21.3554C46.6748 21.3554 46.9296 21.3922 47.1481 21.3922C47.1117 21.8334 47.1117 22.2378 47.0753 22.6789ZM47.2209 20.326C47.0024 20.326 46.7476 20.2892 46.5291 20.2892C46.5656 19.8481 46.602 19.4437 46.602 19.0025C46.8204 19.0025 47.0753 19.0392 47.2937 19.0392C47.2937 19.4437 47.2573 19.8848 47.2209 20.326ZM47.4029 17.9363C47.1481 17.9363 46.9296 17.8995 46.6748 17.8995C46.7112 17.4584 46.7476 17.0539 46.7476 16.6128C47.0024 16.6128 47.2209 16.6495 47.4757 16.6495C47.4757 17.0907 47.4393 17.5319 47.4029 17.9363ZM47.585 15.5834C47.3301 15.5834 47.1117 15.5466 46.8568 15.5466C46.8932 15.1054 46.9296 14.701 46.9296 14.2598C47.1845 14.2598 47.4029 14.2966 47.6578 14.2966C47.6578 14.7378 47.6214 15.1789 47.585 15.5834Z" fill="white"/>
<path d="M7.79126 3.63483C8.55582 3.48777 9.32039 3.37748 10.0849 3.26718C11.6869 13.8187 13.2888 24.3334 14.8908 34.8848C14.2718 34.9951 13.6529 35.0687 13.034 35.1789C11.2864 24.6642 9.53883 14.1495 7.79126 3.63483Z" fill="white"/>
<path d="M26.8689 4.81129C19.4053 5.2157 11.9781 6.13482 4.62372 7.56864C4.5509 7.16423 4.47809 6.75982 4.40527 6.39217C11.8325 4.92158 19.2961 4.00246 26.7961 3.59805C26.8325 4.00246 26.8689 4.40688 26.8689 4.81129Z" fill="white"/>
<path d="M26.7961 10.6201C26.4685 10.6569 26.1044 10.6569 25.7767 10.6936C25.6311 8.63482 25.5219 6.576 25.3762 4.55394C25.7403 4.51717 26.068 4.51717 26.432 4.48041C26.5777 6.53923 26.6869 8.56129 26.7961 10.6201Z" fill="white"/>
<path d="M30.0364 11.0613C27.5607 11.1716 25.085 11.3186 22.6093 11.5024C22.5728 10.9142 22.5 10.326 22.4636 9.73774C24.9758 9.51715 27.4515 9.37009 29.9636 9.2598C30 9.8848 30.0364 10.473 30.0364 11.0613Z" fill="white"/>
<path d="M9.7937 6.28191C10.085 8.23044 10.4126 10.1422 10.7039 12.0907C12.5971 11.7966 14.5267 11.5025 16.4563 11.2819C16.2379 9.33338 15.983 7.38485 15.7646 5.47308C13.7621 5.69367 11.7597 5.95102 9.7937 6.28191ZM14.1262 9.22308C13.216 9.33338 12.3058 9.48044 11.3956 9.62749C11.2864 8.85544 11.1772 8.08338 11.0316 7.31132C11.9418 7.16426 12.8884 7.0172 13.7986 6.90691C13.9078 7.6422 14.017 8.41426 14.1262 9.22308Z" fill="white"/>
</g>
<defs>
<clipPath id="clip0_601_8921">
<rect width="75" height="40" fill="white" transform="translate(0 0.877502)"/>
</clipPath>
</defs>
</svg>
