<svg xmlns="http://www.w3.org/2000/svg" width="15" height="18" viewBox="0 0 15 18" fill="none">
  <path d="M9.97715 0.496059C9.89794 0.412632 9.78934 0.362549 9.67679 0.362549H2.9379C1.6944 0.362549 0.667969 1.38489 0.667969 2.62826V15.3715C0.667969 16.615 1.6944 17.6374 2.9379 17.6374H12.0843C13.3278 17.6374 14.3542 16.615 14.3542 15.3715V5.25286C14.3542 5.14439 14.3042 5.04014 14.2333 4.9608L9.97715 0.496059ZM10.0981 1.83551L12.9481 4.82729H11.0954C10.5447 4.82729 10.0981 4.38498 10.0981 3.8342V1.83551ZM12.0843 16.8028H2.9379C2.15767 16.8028 1.5025 16.1561 1.5025 15.3715V2.62826C1.5025 1.84803 2.15345 1.19708 2.9379 1.19708H9.26361V3.8342C9.26361 4.84811 10.0815 5.66182 11.0954 5.66182H13.5197V15.3715C13.5197 16.1561 12.8688 16.8028 12.0843 16.8028Z" fill="#B0AFAF"/>
  <path d="M10.9456 13.9236H4.07742C3.84797 13.9236 3.66016 14.1113 3.66016 14.3409C3.66016 14.5704 3.84797 14.7582 4.07742 14.7582H10.9498C11.1793 14.7582 11.3671 14.5704 11.3671 14.3409C11.3671 14.1113 11.1793 13.9236 10.9456 13.9236Z" fill="#B0AFAF"/>
  <path d="M5.37393 9.4339L7.09309 7.58532V12.1419C7.09309 12.3714 7.2809 12.5592 7.51035 12.5592C7.73994 12.5592 7.92762 12.3714 7.92762 12.1419V7.58532L9.64678 9.4339C9.7302 9.52141 9.8388 9.56741 9.95136 9.56741C10.0515 9.56741 10.1559 9.52985 10.2351 9.45472C10.4021 9.29617 10.4146 9.03324 10.2561 8.86638L7.81085 6.24179C7.73151 6.15836 7.62304 6.10828 7.50627 6.10828C7.38937 6.10828 7.2809 6.15836 7.20169 6.24179L4.75647 8.86638C4.59792 9.03324 4.61044 9.30026 4.77729 9.45472C4.95258 9.61327 5.21538 9.60075 5.37393 9.4339Z" fill="#B0AFAF"/>
</svg>