<svg width="33" height="32" viewBox="0 0 33 32" fill="none" xmlns="http://www.w3.org/2000/svg">
<g clip-path="url(#clip0_43_706)">
<path d="M14.2451 18.9976L19.4497 16L14.2451 13.0024V18.9976Z" fill="white"/>
<path d="M16.2378 0C7.40259 0 0.237793 7.16479 0.237793 16C0.237793 24.8352 7.40259 32 16.2378 32C25.073 32 32.2378 24.8352 32.2378 16C32.2378 7.16479 25.073 0 16.2378 0ZM26.2354 16.0164C26.2354 16.0164 26.2354 19.2612 25.8237 20.8259C25.593 21.6824 24.9177 22.3577 24.0613 22.5881C22.4966 23 16.2378 23 16.2378 23C16.2378 23 9.99536 23 8.41431 22.5718C7.55786 22.3413 6.88257 21.6658 6.65186 20.8093C6.23999 19.2612 6.23999 16 6.23999 16C6.23999 16 6.23999 12.7554 6.65186 11.1907C6.88232 10.3342 7.57422 9.64233 8.41431 9.41187C9.979 9 16.2378 9 16.2378 9C16.2378 9 22.4966 9 24.0613 9.42822C24.9177 9.65869 25.593 10.3342 25.8237 11.1907C26.252 12.7554 26.2354 16.0164 26.2354 16.0164Z" fill="white"/>
</g>
<defs>
<clipPath id="clip0_43_706">
<rect width="32" height="32" fill="white" transform="translate(0.237793)"/>
</clipPath>
</defs>
</svg>
